<svg width="30" height="30" viewBox="0 0 30 30" fill="none" xmlns="http://www.w3.org/2000/svg">
<path d="M12.5 20C14.5833 20 16.3542 19.2708 17.8125 17.8125C19.2708 16.3542 20 14.5833 20 12.5C20 10.4167 19.2708 8.64583 17.8125 7.1875C16.3542 5.72917 14.5833 5 12.5 5C10.4167 5 8.64583 5.72917 7.1875 7.1875C5.72917 8.64583 5 10.4167 5 12.5C5 14.5833 5.72917 16.3542 7.1875 17.8125C8.64583 19.2708 10.4167 20 12.5 20ZM11.25 16.25V7.5H13.75V16.25H11.25ZM6.875 16.25V10H9.375V16.25H6.875ZM15.625 16.25V11.25H18.125V16.25H15.625ZM25.75 27.5L18.6562 20.4062C17.8021 21.0729 16.8542 21.5885 15.8125 21.9531C14.7708 22.3177 13.6667 22.5 12.5 22.5C9.70833 22.5 7.34375 21.5312 5.40625 19.5938C3.46875 17.6562 2.5 15.2917 2.5 12.5C2.5 9.70833 3.46875 7.34375 5.40625 5.40625C7.34375 3.46875 9.70833 2.5 12.5 2.5C15.2917 2.5 17.6562 3.46875 19.5938 5.40625C21.5312 7.34375 22.5 9.70833 22.5 12.5C22.5 13.6667 22.3177 14.7708 21.9531 15.8125C21.5885 16.8542 21.0729 17.8021 20.4062 18.6562L27.5 25.75L25.75 27.5Z" fill="#F1F1F1"/>
</svg>
