<svg width="30" height="30" viewBox="0 0 30 30" fill="none" xmlns="http://www.w3.org/2000/svg">
<path d="M2.5 26.25V3.75H15V8.75H27.5V26.25H2.5ZM5 23.75H7.5V21.25H5V23.75ZM5 18.75H7.5V16.25H5V18.75ZM5 13.75H7.5V11.25H5V13.75ZM5 8.75H7.5V6.25H5V8.75ZM10 23.75H12.5V21.25H10V23.75ZM10 18.75H12.5V16.25H10V18.75ZM10 13.75H12.5V11.25H10V13.75ZM10 8.75H12.5V6.25H10V8.75ZM15 23.75H25V11.25H15V13.75H17.5V16.25H15V18.75H17.5V21.25H15V23.75ZM20 16.25V13.75H22.5V16.25H20ZM20 21.25V18.75H22.5V21.25H20Z" fill="#F1F1F1"/>
</svg>
