<svg width="50" height="50" viewBox="0 0 50 50" fill="none" xmlns="http://www.w3.org/2000/svg">
<path d="M4.16663 45.8333L14.5833 16.6667L33.3333 35.4167L4.16663 45.8333ZM11.0416 38.9583L25.7291 33.75L16.25 24.2708L11.0416 38.9583ZM30.3125 26.1458L28.125 23.9583L39.7916 12.2917C40.9027 11.1806 42.2395 10.625 43.802 10.625C45.3645 10.625 46.7014 11.1806 47.8125 12.2917L49.0625 13.5417L46.875 15.7292L45.625 14.4792C45.1389 13.9931 44.5312 13.75 43.802 13.75C43.0729 13.75 42.4652 13.9931 41.9791 14.4792L30.3125 26.1458ZM21.9791 17.8125L19.7916 15.625L21.0416 14.375C21.5277 13.8889 21.7708 13.2986 21.7708 12.6042C21.7708 11.9097 21.5277 11.3194 21.0416 10.8333L19.6875 9.47917L21.875 7.29167L23.2291 8.64583C24.3402 9.75694 24.8958 11.0764 24.8958 12.6042C24.8958 14.1319 24.3402 15.4514 23.2291 16.5625L21.9791 17.8125ZM26.1458 21.9792L23.9583 19.7917L31.4583 12.2917C31.9444 11.8056 32.1875 11.1979 32.1875 10.4688C32.1875 9.73958 31.9444 9.13194 31.4583 8.64583L28.125 5.3125L30.3125 3.125L33.6458 6.45833C34.7569 7.56944 35.3125 8.90625 35.3125 10.4688C35.3125 12.0312 34.7569 13.3681 33.6458 14.4792L26.1458 21.9792ZM34.4791 30.3125L32.2916 28.125L35.625 24.7917C36.7361 23.6806 38.0729 23.125 39.6354 23.125C41.1979 23.125 42.5347 23.6806 43.6458 24.7917L46.9791 28.125L44.7916 30.3125L41.4583 26.9792C40.9722 26.4931 40.3645 26.25 39.6354 26.25C38.9062 26.25 38.2986 26.4931 37.8125 26.9792L34.4791 30.3125Z" fill="white"/>
</svg>
