<svg width="44" height="43" viewBox="0 0 44 43" fill="none" xmlns="http://www.w3.org/2000/svg">
<path d="M21.9993 37.6251L19.341 35.296C16.2549 32.5786 13.7035 30.2345 11.6868 28.2637C9.67018 26.2928 8.06602 24.5236 6.87435 22.9559C5.68268 21.3882 4.85004 19.9474 4.37643 18.6335C3.90282 17.3196 3.66602 15.9758 3.66602 14.6022C3.66602 11.7953 4.62852 9.45117 6.55352 7.56992C8.47852 5.68867 10.8771 4.74805 13.7493 4.74805C15.3382 4.74805 16.8507 5.07652 18.2868 5.73346C19.723 6.39041 20.9605 7.3161 21.9993 8.51055C23.0382 7.3161 24.2757 6.39041 25.7118 5.73346C27.148 5.07652 28.6605 4.74805 30.2493 4.74805C33.1216 4.74805 35.5202 5.68867 37.4452 7.56992C39.3702 9.45117 40.3327 11.7953 40.3327 14.6022C40.3327 15.9758 40.0959 17.3196 39.6223 18.6335C39.1487 19.9474 38.316 21.3882 37.1244 22.9559C35.9327 24.5236 34.3285 26.2928 32.3118 28.2637C30.2952 30.2345 27.7438 32.5786 24.6577 35.296L21.9993 37.6251ZM21.9993 32.7876C24.9327 30.2196 27.3466 28.0173 29.241 26.1809C31.1355 24.3444 32.6327 22.7468 33.7327 21.3882C34.8327 20.0295 35.5966 18.8201 36.0243 17.76C36.4521 16.7 36.666 15.6474 36.666 14.6022C36.666 12.8105 36.0549 11.3175 34.8327 10.123C33.6105 8.9286 32.0827 8.33138 30.2493 8.33138C28.8132 8.33138 27.4841 8.72704 26.2619 9.51836C25.0396 10.3097 24.1993 11.3175 23.741 12.5418H20.2577C19.7993 11.3175 18.9591 10.3097 17.7368 9.51836C16.5146 8.72704 15.1855 8.33138 13.7493 8.33138C11.916 8.33138 10.3882 8.9286 9.16602 10.123C7.94379 11.3175 7.33268 12.8105 7.33268 14.6022C7.33268 15.6474 7.54657 16.7 7.97435 17.76C8.40213 18.8201 9.16602 20.0295 10.266 21.3882C11.366 22.7468 12.8632 24.3444 14.7577 26.1809C16.6521 28.0173 19.066 30.2196 21.9993 32.7876Z" fill="#F1F1F1"/>
</svg>
