<svg width="46" height="46" viewBox="0 0 46 46" fill="none" xmlns="http://www.w3.org/2000/svg">
<path d="M9.58333 36.4167H12.3146L31.05 17.6812L28.3188 14.95L9.58333 33.6854V36.4167ZM5.75 40.25V32.1042L31.05 6.85208C31.4333 6.50069 31.8566 6.22917 32.3198 6.0375C32.783 5.84583 33.2701 5.75 33.7812 5.75C34.2924 5.75 34.7875 5.84583 35.2667 6.0375C35.7458 6.22917 36.1611 6.51667 36.5125 6.9L39.1479 9.58333C39.5312 9.93472 39.8108 10.35 39.9865 10.8292C40.1622 11.3083 40.25 11.7875 40.25 12.2667C40.25 12.7778 40.1622 13.2649 39.9865 13.7281C39.8108 14.1913 39.5312 14.6146 39.1479 14.9979L13.8958 40.25H5.75ZM29.6604 16.3396L28.3188 14.95L31.05 17.6812L29.6604 16.3396Z" fill="#575757"/>
</svg>
