<svg width="37" height="25" viewBox="0 0 37 25" fill="none" xmlns="http://www.w3.org/2000/svg">
<g clip-path="url(#clip0_341_258)">
<path d="M17.7461 21.1433C19.5947 21.1433 21.166 20.5652 22.46 19.4089C23.754 18.2527 24.4011 16.8486 24.4011 15.1968C24.4011 13.5451 23.754 12.141 22.46 10.9848C21.166 9.82854 19.5947 9.25042 17.7461 9.25042C15.8975 9.25042 14.3262 9.82854 13.0322 10.9848C11.7382 12.141 11.0912 13.5451 11.0912 15.1968C11.0912 16.8486 11.7382 18.2527 13.0322 19.4089C14.3262 20.5652 15.8975 21.1433 17.7461 21.1433ZM17.7461 18.7647C16.637 18.7647 15.6942 18.4178 14.9178 17.7241C14.1414 17.0303 13.7532 16.1879 13.7532 15.1968C13.7532 14.2058 14.1414 13.3634 14.9178 12.6696C15.6942 11.9759 16.637 11.629 17.7461 11.629C18.8553 11.629 19.7981 11.9759 20.5745 12.6696C21.3509 13.3634 21.7391 14.2058 21.7391 15.1968C21.7391 16.1879 21.3509 17.0303 20.5745 17.7241C19.7981 18.4178 18.8553 18.7647 17.7461 18.7647ZM17.7461 25.1076C14.1475 25.1076 10.8694 24.2101 7.91161 22.4151C4.95387 20.6202 2.8095 18.2141 1.47852 15.1968C2.8095 12.1796 4.95387 9.77348 7.91161 7.97854C10.8694 6.1836 14.1475 5.28613 17.7461 5.28613C21.3447 5.28613 24.6229 6.1836 27.5806 7.97854C30.5384 9.77348 32.6827 12.1796 34.0137 15.1968C32.6827 18.2141 30.5384 20.6202 27.5806 22.4151C24.6229 24.2101 21.3447 25.1076 17.7461 25.1076ZM17.7461 22.4647C20.5313 22.4647 23.0886 21.8095 25.4178 20.4991C27.747 19.1887 29.5278 17.4213 30.7602 15.1968C29.5278 12.9724 27.747 11.205 25.4178 9.89462C23.0886 8.5842 20.5313 7.92899 17.7461 7.92899C14.9609 7.92899 12.4037 8.5842 10.0745 9.89462C7.74524 11.205 5.96443 12.9724 4.73204 15.1968C5.96443 17.4213 7.74524 19.1887 10.0745 20.4991C12.4037 21.8095 14.9609 22.4647 17.7461 22.4647Z" fill="#212121"/>
</g>
<defs>
<clipPath id="clip0_341_258">
<rect width="37" height="25" fill="white"/>
</clipPath>
</defs>
</svg>
