<svg width="50" height="50" viewBox="0 0 50 50" fill="none" xmlns="http://www.w3.org/2000/svg">
<path d="M25 45.8337C24.0973 45.8337 23.2813 45.6166 22.5521 45.1826C21.823 44.7486 21.25 44.167 20.8334 43.4378C19.6875 43.4378 18.7066 43.0298 17.8907 42.2139C17.0747 41.3979 16.6667 40.417 16.6667 39.2712V31.8753C14.6181 30.5212 12.9775 28.733 11.7448 26.5107C10.5122 24.2885 9.89587 21.8753 9.89587 19.2712C9.89587 15.0698 11.3629 11.5021 14.2969 8.56803C17.2309 5.63401 20.7987 4.16699 25 4.16699C29.2014 4.16699 32.7691 5.63401 35.7032 8.56803C38.6372 11.5021 40.1042 15.0698 40.1042 19.2712C40.1042 21.9448 39.4879 24.3753 38.2553 26.5628C37.0226 28.7503 35.382 30.5212 33.3334 31.8753V39.2712C33.3334 40.417 32.9254 41.3979 32.1094 42.2139C31.2934 43.0298 30.3125 43.4378 29.1667 43.4378C28.75 44.167 28.1771 44.7486 27.448 45.1826C26.7188 45.6166 25.9028 45.8337 25 45.8337ZM20.8334 39.2712H29.1667V37.3962H20.8334V39.2712ZM20.8334 35.3128H29.1667V33.3337H20.8334V35.3128ZM20.4167 29.167H23.4375V23.542L18.8542 18.9587L21.0417 16.7712L25 20.7295L28.9584 16.7712L31.1459 18.9587L26.5625 23.542V29.167H29.5834C31.4584 28.2642 32.9862 26.9361 34.1667 25.1826C35.3473 23.4291 35.9375 21.4587 35.9375 19.2712C35.9375 16.2156 34.8785 13.6288 32.7605 11.5107C30.6424 9.39269 28.0556 8.33366 25 8.33366C21.9445 8.33366 19.3577 9.39269 17.2396 11.5107C15.1216 13.6288 14.0625 16.2156 14.0625 19.2712C14.0625 21.4587 14.6528 23.4291 15.8334 25.1826C17.0139 26.9361 18.5417 28.2642 20.4167 29.167Z" fill="white"/>
</svg>
