<svg width="30" height="30" viewBox="0 0 30 30" fill="none" xmlns="http://www.w3.org/2000/svg">
<path d="M16.25 17.5H18.75V13.75H22.5V11.25H18.75V7.5H16.25V11.25H12.5V13.75H16.25V17.5ZM10 22.5C9.3125 22.5 8.72396 22.2552 8.23438 21.7656C7.74479 21.276 7.5 20.6875 7.5 20V5C7.5 4.3125 7.74479 3.72396 8.23438 3.23438C8.72396 2.74479 9.3125 2.5 10 2.5H25C25.6875 2.5 26.276 2.74479 26.7656 3.23438C27.2552 3.72396 27.5 4.3125 27.5 5V20C27.5 20.6875 27.2552 21.276 26.7656 21.7656C26.276 22.2552 25.6875 22.5 25 22.5H10ZM10 20H25V5H10V20ZM5 27.5C4.3125 27.5 3.72396 27.2552 3.23438 26.7656C2.74479 26.276 2.5 25.6875 2.5 25V7.5H5V25H22.5V27.5H5Z" fill="#414141"/>
</svg>
