<svg width="50" height="50" viewBox="0 0 50 50" fill="none" xmlns="http://www.w3.org/2000/svg">
<path d="M2.08337 41.6663V33.333C2.08337 32.1525 2.49136 31.1629 3.30733 30.3643C4.1233 29.5656 5.10421 29.1663 6.25004 29.1663H13.073C13.7674 29.1663 14.4271 29.34 15.0521 29.6872C15.6771 30.0344 16.1806 30.5031 16.5625 31.0934C17.5695 32.4476 18.8108 33.5066 20.2865 34.2705C21.7622 35.0344 23.3334 35.4163 25 35.4163C26.7014 35.4163 28.29 35.0344 29.7657 34.2705C31.2414 33.5066 32.4653 32.4476 33.4375 31.0934C33.8889 30.5031 34.4184 30.0344 35.0261 29.6872C35.6337 29.34 36.2674 29.1663 36.9271 29.1663H43.75C44.9306 29.1663 45.9202 29.5656 46.7188 30.3643C47.5174 31.1629 47.9167 32.1525 47.9167 33.333V41.6663H33.3334V36.9268C32.1181 37.7948 30.8073 38.4545 29.4011 38.9059C27.9948 39.3573 26.5278 39.583 25 39.583C23.507 39.583 22.0487 39.3486 20.625 38.8799C19.2014 38.4111 17.882 37.7427 16.6667 36.8747V41.6663H2.08337ZM25 33.333C23.6806 33.333 22.4306 33.0292 21.25 32.4215C20.0695 31.8139 19.0799 30.9719 18.2813 29.8955C17.691 29.0275 16.9532 28.3417 16.0677 27.8382C15.1823 27.3347 14.2188 27.083 13.1771 27.083C13.941 25.7983 15.5556 24.7827 18.0209 24.0361C20.4862 23.2896 22.8125 22.9163 25 22.9163C27.1875 22.9163 29.5139 23.2896 31.9792 24.0361C34.4445 24.7827 36.0591 25.7983 36.823 27.083C35.816 27.083 34.8612 27.3347 33.9584 27.8382C33.0556 28.3417 32.3091 29.0275 31.7188 29.8955C30.9549 31.0066 29.9827 31.8573 28.8021 32.4476C27.6216 33.0379 26.3542 33.333 25 33.333ZM8.33337 27.083C6.59726 27.083 5.12157 26.4754 3.90629 25.2601C2.69101 24.0448 2.08337 22.5691 2.08337 20.833C2.08337 19.0622 2.69101 17.5778 3.90629 16.3799C5.12157 15.182 6.59726 14.583 8.33337 14.583C10.1042 14.583 11.5886 15.182 12.7865 16.3799C13.9844 17.5778 14.5834 19.0622 14.5834 20.833C14.5834 22.5691 13.9844 24.0448 12.7865 25.2601C11.5886 26.4754 10.1042 27.083 8.33337 27.083ZM41.6667 27.083C39.9306 27.083 38.4549 26.4754 37.2396 25.2601C36.0243 24.0448 35.4167 22.5691 35.4167 20.833C35.4167 19.0622 36.0243 17.5778 37.2396 16.3799C38.4549 15.182 39.9306 14.583 41.6667 14.583C43.4375 14.583 44.9219 15.182 46.1198 16.3799C47.3177 17.5778 47.9167 19.0622 47.9167 20.833C47.9167 22.5691 47.3177 24.0448 46.1198 25.2601C44.9219 26.4754 43.4375 27.083 41.6667 27.083ZM25 20.833C23.2639 20.833 21.7882 20.2254 20.573 19.0101C19.3577 17.7948 18.75 16.3191 18.75 14.583C18.75 12.8122 19.3577 11.3278 20.573 10.1299C21.7882 8.93197 23.2639 8.33301 25 8.33301C26.7709 8.33301 28.2552 8.93197 29.4532 10.1299C30.6511 11.3278 31.25 12.8122 31.25 14.583C31.25 16.3191 30.6511 17.7948 29.4532 19.0101C28.2552 20.2254 26.7709 20.833 25 20.833Z" fill="white"/>
</svg>
