<svg width="24" height="24" viewBox="0 0 24 24" fill="none" xmlns="http://www.w3.org/2000/svg">
<path d="M12 21.0004L10.55 19.7004C8.86667 18.1837 7.475 16.8754 6.375 15.7754C5.275 14.6754 4.4 13.6879 3.75 12.8129C3.1 11.9379 2.64583 11.1337 2.3875 10.4004C2.12917 9.66706 2 8.91706 2 8.15039C2 6.58372 2.525 5.27539 3.575 4.22539C4.625 3.17539 5.93333 2.65039 7.5 2.65039C8.36667 2.65039 9.19167 2.83372 9.975 3.20039C10.7583 3.56706 11.4333 4.08372 12 4.75039C12.5667 4.08372 13.2417 3.56706 14.025 3.20039C14.8083 2.83372 15.6333 2.65039 16.5 2.65039C18.0667 2.65039 19.375 3.17539 20.425 4.22539C21.475 5.27539 22 6.58372 22 8.15039C22 8.91706 21.8708 9.66706 21.6125 10.4004C21.3542 11.1337 20.9 11.9379 20.25 12.8129C19.6 13.6879 18.725 14.6754 17.625 15.7754C16.525 16.8754 15.1333 18.1837 13.45 19.7004L12 21.0004ZM12 18.3004C13.6 16.8671 14.9167 15.6379 15.95 14.6129C16.9833 13.5879 17.8 12.6962 18.4 11.9379C19 11.1796 19.4167 10.5046 19.65 9.91289C19.8833 9.32122 20 8.73372 20 8.15039C20 7.15039 19.6667 6.31706 19 5.65039C18.3333 4.98372 17.5 4.65039 16.5 4.65039C15.7167 4.65039 14.9917 4.87122 14.325 5.31289C13.6583 5.75456 13.2 6.31706 12.95 7.00039H11.05C10.8 6.31706 10.3417 5.75456 9.675 5.31289C9.00833 4.87122 8.28333 4.65039 7.5 4.65039C6.5 4.65039 5.66667 4.98372 5 5.65039C4.33333 6.31706 4 7.15039 4 8.15039C4 8.73372 4.11667 9.32122 4.35 9.91289C4.58333 10.5046 5 11.1796 5.6 11.9379C6.2 12.6962 7.01667 13.5879 8.05 14.6129C9.08333 15.6379 10.4 16.8671 12 18.3004Z" fill="white"/>
<path d="M12.0003 18.6247L10.792 17.5956C9.38921 16.3949 8.22949 15.3591 7.31283 14.4883C6.39616 13.6174 5.66699 12.8357 5.12533 12.143C4.58366 11.4503 4.20519 10.8136 3.98991 10.2331C3.77463 9.65252 3.66699 9.05877 3.66699 8.45182C3.66699 7.21155 4.10449 6.17578 4.97949 5.34453C5.85449 4.51328 6.94477 4.09766 8.25033 4.09766C8.97255 4.09766 9.66005 4.2428 10.3128 4.53307C10.9656 4.82335 11.5281 5.23238 12.0003 5.76016C12.4725 5.23238 13.035 4.82335 13.6878 4.53307C14.3406 4.2428 15.0281 4.09766 15.7503 4.09766C17.0559 4.09766 18.1462 4.51328 19.0212 5.34453C19.8962 6.17578 20.3337 7.21155 20.3337 8.45182C20.3337 9.05877 20.226 9.65252 20.0107 10.2331C19.7955 10.8136 19.417 11.4503 18.8753 12.143C18.3337 12.8357 17.6045 13.6174 16.6878 14.4883C15.7712 15.3591 14.6114 16.3949 13.2087 17.5956L12.0003 18.6247ZM12.0003 16.4872C13.3337 15.3525 14.4309 14.3794 15.292 13.568C16.1531 12.7565 16.8337 12.0506 17.3337 11.4503C17.8337 10.8499 18.1809 10.3155 18.3753 9.84714C18.5698 9.37873 18.667 8.91363 18.667 8.45182C18.667 7.66016 18.3892 7.00043 17.8337 6.47266C17.2781 5.94488 16.5837 5.68099 15.7503 5.68099C15.0975 5.68099 14.4934 5.85582 13.9378 6.20547C13.3823 6.55512 13.0003 7.00043 12.792 7.54141H11.2087C11.0003 7.00043 10.6184 6.55512 10.0628 6.20547C9.50727 5.85582 8.9031 5.68099 8.25033 5.68099C7.41699 5.68099 6.72255 5.94488 6.16699 6.47266C5.61144 7.00043 5.33366 7.66016 5.33366 8.45182C5.33366 8.91363 5.43088 9.37873 5.62533 9.84714C5.81977 10.3155 6.16699 10.8499 6.66699 11.4503C7.16699 12.0506 7.84755 12.7565 8.70866 13.568C9.56977 14.3794 10.667 15.3525 12.0003 16.4872Z" fill="white"/>
<path d="M11.9997 18.6247L11.033 17.5956C9.91079 16.3949 8.98301 15.3591 8.24967 14.4883C7.51634 13.6174 6.93301 12.8357 6.49967 12.143C6.06634 11.4503 5.76356 10.8136 5.59134 10.2331C5.41912 9.65252 5.33301 9.05877 5.33301 8.45182C5.33301 7.21155 5.68301 6.17578 6.38301 5.34453C7.08301 4.51328 7.95523 4.09766 8.99967 4.09766C9.57745 4.09766 10.1275 4.2428 10.6497 4.53307C11.1719 4.82335 11.6219 5.23238 11.9997 5.76016C12.3775 5.23238 12.8275 4.82335 13.3497 4.53307C13.8719 4.2428 14.4219 4.09766 14.9997 4.09766C16.0441 4.09766 16.9163 4.51328 17.6163 5.34453C18.3163 6.17578 18.6663 7.21155 18.6663 8.45182C18.6663 9.05877 18.5802 9.65252 18.408 10.2331C18.2358 10.8136 17.933 11.4503 17.4997 12.143C17.0663 12.8357 16.483 13.6174 15.7497 14.4883C15.0163 15.3591 14.0886 16.3949 12.9663 17.5956L11.9997 18.6247ZM11.9997 16.4872C13.0663 15.3525 13.9441 14.3794 14.633 13.568C15.3219 12.7565 15.8663 12.0506 16.2663 11.4503C16.6663 10.8499 16.9441 10.3155 17.0997 9.84714C17.2552 9.37873 17.333 8.91363 17.333 8.45182C17.333 7.66016 17.1108 7.00043 16.6663 6.47266C16.2219 5.94488 15.6663 5.68099 14.9997 5.68099C14.4775 5.68099 13.9941 5.85582 13.5497 6.20547C13.1052 6.55512 12.7997 7.00043 12.633 7.54141H11.3663C11.1997 7.00043 10.8941 6.55512 10.4497 6.20547C10.0052 5.85582 9.5219 5.68099 8.99967 5.68099C8.33301 5.68099 7.77745 5.94488 7.33301 6.47266C6.88856 7.00043 6.66634 7.66016 6.66634 8.45182C6.66634 8.91363 6.74412 9.37873 6.89967 9.84714C7.05523 10.3155 7.33301 10.8499 7.73301 11.4503C8.13301 12.0506 8.67745 12.7565 9.36634 13.568C10.0552 14.3794 10.933 15.3525 11.9997 16.4872Z" fill="white"/>
<path d="M11.9997 19.6247L11.033 18.5956C9.91079 17.3949 8.98301 16.3591 8.24967 15.4883C7.51634 14.6174 6.93301 13.8357 6.49967 13.143C6.06634 12.4503 5.76356 11.8136 5.59134 11.2331C5.41912 10.6525 5.33301 10.0588 5.33301 9.45182C5.33301 8.21155 5.68301 7.17578 6.38301 6.34453C7.08301 5.51328 7.95523 5.09766 8.99967 5.09766C9.57745 5.09766 10.1275 5.2428 10.6497 5.53307C11.1719 5.82335 11.6219 6.23238 11.9997 6.76016C12.3775 6.23238 12.8275 5.82335 13.3497 5.53307C13.8719 5.2428 14.4219 5.09766 14.9997 5.09766C16.0441 5.09766 16.9163 5.51328 17.6163 6.34453C18.3163 7.17578 18.6663 8.21155 18.6663 9.45182C18.6663 10.0588 18.5802 10.6525 18.408 11.2331C18.2358 11.8136 17.933 12.4503 17.4997 13.143C17.0663 13.8357 16.483 14.6174 15.7497 15.4883C15.0163 16.3591 14.0886 17.3949 12.9663 18.5956L11.9997 19.6247ZM11.9997 17.4872C13.0663 16.3525 13.9441 15.3794 14.633 14.568C15.3219 13.7565 15.8663 13.0506 16.2663 12.4503C16.6663 11.8499 16.9441 11.3155 17.0997 10.8471C17.2552 10.3787 17.333 9.91363 17.333 9.45182C17.333 8.66016 17.1108 8.00043 16.6663 7.47266C16.2219 6.94488 15.6663 6.68099 14.9997 6.68099C14.4775 6.68099 13.9941 6.85582 13.5497 7.20547C13.1052 7.55512 12.7997 8.00043 12.633 8.54141H11.3663C11.1997 8.00043 10.8941 7.55512 10.4497 7.20547C10.0052 6.85582 9.5219 6.68099 8.99967 6.68099C8.33301 6.68099 7.77745 6.94488 7.33301 7.47266C6.88856 8.00043 6.66634 8.66016 6.66634 9.45182C6.66634 9.91363 6.74412 10.3787 6.89967 10.8471C7.05523 11.3155 7.33301 11.8499 7.73301 12.4503C8.13301 13.0506 8.67745 13.7565 9.36634 14.568C10.0552 15.3794 10.933 16.3525 11.9997 17.4872Z" fill="white"/>
<g clip-path="url(#clip0_1041_27)">
<path d="M11.9997 17.6247L11.033 16.5956C9.91079 15.3949 8.98301 14.3591 8.24967 13.4883C7.51634 12.6174 6.93301 11.8357 6.49967 11.143C6.06634 10.4503 5.76356 9.81363 5.59134 9.23307C5.41912 8.65252 5.33301 8.05877 5.33301 7.45182C5.33301 6.21155 5.68301 5.17578 6.38301 4.34453C7.08301 3.51328 7.95523 3.09766 8.99967 3.09766C9.57745 3.09766 10.1275 3.2428 10.6497 3.53307C11.1719 3.82335 11.6219 4.23238 11.9997 4.76016C12.3775 4.23238 12.8275 3.82335 13.3497 3.53307C13.8719 3.2428 14.4219 3.09766 14.9997 3.09766C16.0441 3.09766 16.9163 3.51328 17.6163 4.34453C18.3163 5.17578 18.6663 6.21155 18.6663 7.45182C18.6663 8.05877 18.5802 8.65252 18.408 9.23307C18.2358 9.81363 17.933 10.4503 17.4997 11.143C17.0663 11.8357 16.483 12.6174 15.7497 13.4883C15.0163 14.3591 14.0886 15.3949 12.9663 16.5956L11.9997 17.6247ZM11.9997 15.4872C13.0663 14.3525 13.9441 13.3794 14.633 12.568C15.3219 11.7565 15.8663 11.0506 16.2663 10.4503C16.6663 9.84991 16.9441 9.31554 17.0997 8.84714C17.2552 8.37873 17.333 7.91363 17.333 7.45182C17.333 6.66016 17.1108 6.00043 16.6663 5.47266C16.2219 4.94488 15.6663 4.68099 14.9997 4.68099C14.4775 4.68099 13.9941 4.85582 13.5497 5.20547C13.1052 5.55512 12.7997 6.00043 12.633 6.54141H11.3663C11.1997 6.00043 10.8941 5.55512 10.4497 5.20547C10.0052 4.85582 9.5219 4.68099 8.99967 4.68099C8.33301 4.68099 7.77745 4.94488 7.33301 5.47266C6.88856 6.00043 6.66634 6.66016 6.66634 7.45182C6.66634 7.91363 6.74412 8.37873 6.89967 8.84714C7.05523 9.31554 7.33301 9.84991 7.73301 10.4503C8.13301 11.0506 8.67745 11.7565 9.36634 12.568C10.0552 13.3794 10.933 14.3525 11.9997 15.4872Z" fill="white"/>
</g>
<g clip-path="url(#clip1_1041_27)">
<path d="M11.9997 15.6247L11.033 14.5956C9.91079 13.3949 8.98301 12.3591 8.24967 11.4883C7.51634 10.6174 6.93301 9.83568 6.49967 9.14297C6.06634 8.45026 5.76356 7.81363 5.59134 7.23307C5.41912 6.65252 5.33301 6.05877 5.33301 5.45182C5.33301 4.21155 5.68301 3.17578 6.38301 2.34453C7.08301 1.51328 7.95523 1.09766 8.99967 1.09766C9.57745 1.09766 10.1275 1.2428 10.6497 1.53307C11.1719 1.82335 11.6219 2.23238 11.9997 2.76016C12.3775 2.23238 12.8275 1.82335 13.3497 1.53307C13.8719 1.2428 14.4219 1.09766 14.9997 1.09766C16.0441 1.09766 16.9163 1.51328 17.6163 2.34453C18.3163 3.17578 18.6663 4.21155 18.6663 5.45182C18.6663 6.05877 18.5802 6.65252 18.408 7.23307C18.2358 7.81363 17.933 8.45026 17.4997 9.14297C17.0663 9.83568 16.483 10.6174 15.7497 11.4883C15.0163 12.3591 14.0886 13.3949 12.9663 14.5956L11.9997 15.6247ZM11.9997 13.4872C13.0663 12.3525 13.9441 11.3794 14.633 10.568C15.3219 9.75651 15.8663 9.05061 16.2663 8.45026C16.6663 7.84991 16.9441 7.31554 17.0997 6.84714C17.2552 6.37873 17.333 5.91363 17.333 5.45182C17.333 4.66016 17.1108 4.00043 16.6663 3.47266C16.2219 2.94488 15.6663 2.68099 14.9997 2.68099C14.4775 2.68099 13.9941 2.85582 13.5497 3.20547C13.1052 3.55512 12.7997 4.00043 12.633 4.54141H11.3663C11.1997 4.00043 10.8941 3.55512 10.4497 3.20547C10.0052 2.85582 9.5219 2.68099 8.99967 2.68099C8.33301 2.68099 7.77745 2.94488 7.33301 3.47266C6.88856 4.00043 6.66634 4.66016 6.66634 5.45182C6.66634 5.91363 6.74412 6.37873 6.89967 6.84714C7.05523 7.31554 7.33301 7.84991 7.73301 8.45026C8.13301 9.05061 8.67745 9.75651 9.36634 10.568C10.0552 11.3794 10.933 12.3525 11.9997 13.4872Z" fill="white"/>
</g>
<g clip-path="url(#clip2_1041_27)">
<path d="M11.9997 13.9904L11.033 13.1196C9.91079 12.1036 8.98301 11.2272 8.24967 10.4903C7.51634 9.75345 6.93301 9.09195 6.49967 8.50581C6.06634 7.91968 5.76356 7.38099 5.59134 6.88975C5.41912 6.39851 5.33301 5.89611 5.33301 5.38254C5.33301 4.33307 5.68301 3.45666 6.38301 2.75329C7.08301 2.04992 7.95523 1.69824 8.99967 1.69824C9.57745 1.69824 10.1275 1.82105 10.6497 2.06667C11.1719 2.31229 11.6219 2.65839 11.9997 3.10497C12.3775 2.65839 12.8275 2.31229 13.3497 2.06667C13.8719 1.82105 14.4219 1.69824 14.9997 1.69824C16.0441 1.69824 16.9163 2.04992 17.6163 2.75329C18.3163 3.45666 18.6663 4.33307 18.6663 5.38254C18.6663 5.89611 18.5802 6.39851 18.408 6.88975C18.2358 7.38099 17.933 7.91968 17.4997 8.50581C17.0663 9.09195 16.483 9.75345 15.7497 10.4903C15.0163 11.2272 14.0886 12.1036 12.9663 13.1196L11.9997 13.9904ZM11.9997 12.1817C13.0663 11.2216 13.9441 10.3982 14.633 9.71158C15.3219 9.02496 15.8663 8.42766 16.2663 7.91968C16.6663 7.41169 16.9441 6.95953 17.0997 6.56319C17.2552 6.16685 17.333 5.7733 17.333 5.38254C17.333 4.71267 17.1108 4.15444 16.6663 3.70786C16.2219 3.26128 15.6663 3.03799 14.9997 3.03799C14.4775 3.03799 13.9941 3.18592 13.5497 3.48178C13.1052 3.77764 12.7997 4.15444 12.633 4.61218H11.3663C11.1997 4.15444 10.8941 3.77764 10.4497 3.48178C10.0052 3.18592 9.5219 3.03799 8.99967 3.03799C8.33301 3.03799 7.77745 3.26128 7.33301 3.70786C6.88856 4.15444 6.66634 4.71267 6.66634 5.38254C6.66634 5.7733 6.74412 6.16685 6.89967 6.56319C7.05523 6.95953 7.33301 7.41169 7.73301 7.91968C8.13301 8.42766 8.67745 9.02496 9.36634 9.71158C10.0552 10.3982 10.933 11.2216 11.9997 12.1817Z" fill="white"/>
</g>
<g clip-path="url(#clip3_1041_27)">
<path d="M11.9997 12.356L11.033 11.6435C9.91079 10.8123 8.98301 10.0952 8.24967 9.49234C7.51634 8.88945 6.93301 8.34823 6.49967 7.86866C6.06634 7.38909 5.76356 6.94835 5.59134 6.54642C5.41912 6.1445 5.33301 5.73344 5.33301 5.31325C5.33301 4.4546 5.68301 3.73753 6.38301 3.16205C7.08301 2.58657 7.95523 2.29883 8.99967 2.29883C9.57745 2.29883 10.1275 2.39931 10.6497 2.60027C11.1719 2.80123 11.6219 3.08441 11.9997 3.44979C12.3775 3.08441 12.8275 2.80123 13.3497 2.60027C13.8719 2.39931 14.4219 2.29883 14.9997 2.29883C16.0441 2.29883 16.9163 2.58657 17.6163 3.16205C18.3163 3.73753 18.6663 4.4546 18.6663 5.31325C18.6663 5.73344 18.5802 6.1445 18.408 6.54642C18.2358 6.94835 17.933 7.38909 17.4997 7.86866C17.0663 8.34823 16.483 8.88945 15.7497 9.49234C15.0163 10.0952 14.0886 10.8123 12.9663 11.6435L11.9997 12.356ZM11.9997 10.8762C13.0663 10.0907 13.9441 9.41698 14.633 8.8552C15.3219 8.29342 15.8663 7.80472 16.2663 7.38909C16.6663 6.97347 16.9441 6.60352 17.0997 6.27924C17.2552 5.95496 17.333 5.63296 17.333 5.31325C17.333 4.76517 17.1108 4.30844 16.6663 3.94306C16.2219 3.57767 15.6663 3.39498 14.9997 3.39498C14.4775 3.39498 13.9941 3.51602 13.5497 3.75808C13.1052 4.00015 12.7997 4.30844 12.633 4.68296H11.3663C11.1997 4.30844 10.8941 4.00015 10.4497 3.75808C10.0052 3.51602 9.5219 3.39498 8.99967 3.39498C8.33301 3.39498 7.77745 3.57767 7.33301 3.94306C6.88856 4.30844 6.66634 4.76517 6.66634 5.31325C6.66634 5.63296 6.74412 5.95496 6.89967 6.27924C7.05523 6.60352 7.33301 6.97347 7.73301 7.38909C8.13301 7.80472 8.67745 8.29342 9.36634 8.8552C10.0552 9.41698 10.933 10.0907 11.9997 10.8762Z" fill="white"/>
</g>
<g clip-path="url(#clip4_1041_27)">
<path d="M11.9997 11.356L11.033 10.6435C9.91079 9.81229 8.98301 9.09522 8.24967 8.49234C7.51634 7.88945 6.93301 7.34823 6.49967 6.86866C6.06634 6.38909 5.76356 5.94835 5.59134 5.54642C5.41912 5.1445 5.33301 4.73344 5.33301 4.31325C5.33301 3.4546 5.68301 2.73753 6.38301 2.16205C7.08301 1.58657 7.95523 1.29883 8.99967 1.29883C9.57745 1.29883 10.1275 1.39931 10.6497 1.60027C11.1719 1.80123 11.6219 2.08441 11.9997 2.44979C12.3775 2.08441 12.8275 1.80123 13.3497 1.60027C13.8719 1.39931 14.4219 1.29883 14.9997 1.29883C16.0441 1.29883 16.9163 1.58657 17.6163 2.16205C18.3163 2.73753 18.6663 3.4546 18.6663 4.31325C18.6663 4.73344 18.5802 5.1445 18.408 5.54642C18.2358 5.94835 17.933 6.38909 17.4997 6.86866C17.0663 7.34823 16.483 7.88945 15.7497 8.49234C15.0163 9.09522 14.0886 9.81229 12.9663 10.6435L11.9997 11.356ZM11.9997 9.87623C13.0663 9.09066 13.9441 8.41698 14.633 7.8552C15.3219 7.29342 15.8663 6.80472 16.2663 6.38909C16.6663 5.97347 16.9441 5.60352 17.0997 5.27924C17.2552 4.95496 17.333 4.63296 17.333 4.31325C17.333 3.76517 17.1108 3.30844 16.6663 2.94306C16.2219 2.57767 15.6663 2.39498 14.9997 2.39498C14.4775 2.39498 13.9941 2.51602 13.5497 2.75808C13.1052 3.00015 12.7997 3.30844 12.633 3.68296H11.3663C11.1997 3.30844 10.8941 3.00015 10.4497 2.75808C10.0052 2.51602 9.5219 2.39498 8.99967 2.39498C8.33301 2.39498 7.77745 2.57767 7.33301 2.94306C6.88856 3.30844 6.66634 3.76517 6.66634 4.31325C6.66634 4.63296 6.74412 4.95496 6.89967 5.27924C7.05523 5.60352 7.33301 5.97347 7.73301 6.38909C8.13301 6.80472 8.67745 7.29342 9.36634 7.8552C10.0552 8.41698 10.933 9.09066 11.9997 9.87623Z" fill="white"/>
<path d="M11.6667 9.05721L10.7 8.34471C9.57778 7.51346 8.65 6.79639 7.91667 6.19351C7.18333 5.59063 6.6 5.0494 6.16667 4.56983C5.73333 4.09026 5.43056 3.64952 5.25833 3.2476C5.08611 2.84567 5 2.43462 5 2.01442C5 1.15577 5.35 0.438702 6.05 -0.136779C6.75 -0.71226 7.62222 -1 8.66667 -1C9.24444 -1 9.79444 -0.899519 10.3167 -0.698558C10.8389 -0.497596 11.2889 -0.214423 11.6667 0.150962C12.0444 -0.214423 12.4944 -0.497596 13.0167 -0.698558C13.5389 -0.899519 14.0889 -1 14.6667 -1C15.7111 -1 16.5833 -0.71226 17.2833 -0.136779C17.9833 0.438702 18.3333 1.15577 18.3333 2.01442C18.3333 2.43462 18.2472 2.84567 18.075 3.2476C17.9028 3.64952 17.6 4.09026 17.1667 4.56983C16.7333 5.0494 16.15 5.59063 15.4167 6.19351C14.6833 6.79639 13.7556 7.51346 12.6333 8.34471L11.6667 9.05721ZM11.6667 7.5774C12.7333 6.79183 13.6111 6.11815 14.3 5.55637C14.9889 4.99459 15.5333 4.50589 15.9333 4.09026C16.3333 3.67464 16.6111 3.30469 16.7667 2.98041C16.9222 2.65613 17 2.33413 17 2.01442C17 1.46635 16.7778 1.00962 16.3333 0.644231C15.8889 0.278846 15.3333 0.0961539 14.6667 0.0961539C14.1444 0.0961539 13.6611 0.217188 13.2167 0.459255C12.7722 0.701322 12.4667 1.00962 12.3 1.38413H11.0333C10.8667 1.00962 10.5611 0.701322 10.1167 0.459255C9.67222 0.217188 9.18889 0.0961539 8.66667 0.0961539C8 0.0961539 7.44444 0.278846 7 0.644231C6.55556 1.00962 6.33333 1.46635 6.33333 2.01442C6.33333 2.33413 6.41111 2.65613 6.56667 2.98041C6.72222 3.30469 7 3.67464 7.4 4.09026C7.8 4.50589 8.34444 4.99459 9.03333 5.55637C9.72222 6.11815 10.6 6.79183 11.6667 7.5774Z" fill="white"/>
<path d="M13.6667 11.0572L12.7 10.3447C11.5778 9.51346 10.65 8.79639 9.91667 8.19351C9.18333 7.59063 8.6 7.0494 8.16667 6.56983C7.73333 6.09026 7.43056 5.64952 7.25833 5.2476C7.08611 4.84567 7 4.43462 7 4.01442C7 3.15577 7.35 2.4387 8.05 1.86322C8.75 1.28774 9.62222 1 10.6667 1C11.2444 1 11.7944 1.10048 12.3167 1.30144C12.8389 1.5024 13.2889 1.78558 13.6667 2.15096C14.0444 1.78558 14.4944 1.5024 15.0167 1.30144C15.5389 1.10048 16.0889 1 16.6667 1C17.7111 1 18.5833 1.28774 19.2833 1.86322C19.9833 2.4387 20.3333 3.15577 20.3333 4.01442C20.3333 4.43462 20.2472 4.84567 20.075 5.2476C19.9028 5.64952 19.6 6.09026 19.1667 6.56983C18.7333 7.0494 18.15 7.59063 17.4167 8.19351C16.6833 8.79639 15.7556 9.51346 14.6333 10.3447L13.6667 11.0572ZM13.6667 9.5774C14.7333 8.79183 15.6111 8.11815 16.3 7.55637C16.9889 6.99459 17.5333 6.50589 17.9333 6.09026C18.3333 5.67464 18.6111 5.30469 18.7667 4.98041C18.9222 4.65613 19 4.33413 19 4.01442C19 3.46635 18.7778 3.00962 18.3333 2.64423C17.8889 2.27885 17.3333 2.09615 16.6667 2.09615C16.1444 2.09615 15.6611 2.21719 15.2167 2.45925C14.7722 2.70132 14.4667 3.00962 14.3 3.38413H13.0333C12.8667 3.00962 12.5611 2.70132 12.1167 2.45925C11.6722 2.21719 11.1889 2.09615 10.6667 2.09615C10 2.09615 9.44444 2.27885 9 2.64423C8.55556 3.00962 8.33333 3.46635 8.33333 4.01442C8.33333 4.33413 8.41111 4.65613 8.56667 4.98041C8.72222 5.30469 9 5.67464 9.4 6.09026C9.8 6.50589 10.3444 6.99459 11.0333 7.55637C11.7222 8.11815 12.6 8.79183 13.6667 9.5774Z" fill="white"/>
<path d="M13.6667 16.0572L12.7 15.3447C11.5778 14.5135 10.65 13.7964 9.91667 13.1935C9.18333 12.5906 8.6 12.0494 8.16667 11.5698C7.73333 11.0903 7.43056 10.6495 7.25833 10.2476C7.08611 9.84567 7 9.43462 7 9.01442C7 8.15577 7.35 7.4387 8.05 6.86322C8.75 6.28774 9.62222 6 10.6667 6C11.2444 6 11.7944 6.10048 12.3167 6.30144C12.8389 6.5024 13.2889 6.78558 13.6667 7.15096C14.0444 6.78558 14.4944 6.5024 15.0167 6.30144C15.5389 6.10048 16.0889 6 16.6667 6C17.7111 6 18.5833 6.28774 19.2833 6.86322C19.9833 7.4387 20.3333 8.15577 20.3333 9.01442C20.3333 9.43462 20.2472 9.84567 20.075 10.2476C19.9028 10.6495 19.6 11.0903 19.1667 11.5698C18.7333 12.0494 18.15 12.5906 17.4167 13.1935C16.6833 13.7964 15.7556 14.5135 14.6333 15.3447L13.6667 16.0572ZM13.6667 14.5774C14.7333 13.7918 15.6111 13.1181 16.3 12.5564C16.9889 11.9946 17.5333 11.5059 17.9333 11.0903C18.3333 10.6746 18.6111 10.3047 18.7667 9.98041C18.9222 9.65613 19 9.33413 19 9.01442C19 8.46635 18.7778 8.00962 18.3333 7.64423C17.8889 7.27885 17.3333 7.09615 16.6667 7.09615C16.1444 7.09615 15.6611 7.21719 15.2167 7.45925C14.7722 7.70132 14.4667 8.00962 14.3 8.38413H13.0333C12.8667 8.00962 12.5611 7.70132 12.1167 7.45925C11.6722 7.21719 11.1889 7.09615 10.6667 7.09615C10 7.09615 9.44444 7.27885 9 7.64423C8.55556 8.00962 8.33333 8.46635 8.33333 9.01442C8.33333 9.33413 8.41111 9.65613 8.56667 9.98041C8.72222 10.3047 9 10.6746 9.4 11.0903C9.8 11.5059 10.3444 11.9946 11.0333 12.5564C11.7222 13.1181 12.6 13.7918 13.6667 14.5774Z" fill="white"/>
</g>
<path d="M9 15L8.275 14.2916C7.43333 13.465 6.7375 12.752 6.1875 12.1526C5.6375 11.5531 5.2 11.015 4.875 10.5381C4.55 10.0613 4.32292 9.62307 4.19375 9.22343C4.06458 8.8238 4 8.41508 4 7.99728C4 7.14351 4.2625 6.43052 4.7875 5.85831C5.3125 5.2861 5.96667 5 6.75 5C7.18333 5 7.59583 5.09991 7.9875 5.29973C8.37917 5.49955 8.71667 5.78111 9 6.14441C9.28333 5.78111 9.62083 5.49955 10.0125 5.29973C10.4042 5.09991 10.8167 5 11.25 5C12.0333 5 12.6875 5.2861 13.2125 5.85831C13.7375 6.43052 14 7.14351 14 7.99728C14 8.41508 13.9354 8.8238 13.8063 9.22343C13.6771 9.62307 13.45 10.0613 13.125 10.5381C12.8 11.015 12.3625 11.5531 11.8125 12.1526C11.2625 12.752 10.5667 13.465 9.725 14.2916L9 15ZM9 13.5286C9.8 12.7475 10.4583 12.0777 10.975 11.5191C11.4917 10.9605 11.9 10.4746 12.2 10.0613C12.5 9.64805 12.7083 9.2802 12.825 8.95777C12.9417 8.63533 13 8.31517 13 7.99728C13 7.45232 12.8333 6.99818 12.5 6.63488C12.1667 6.27157 11.75 6.08992 11.25 6.08992C10.8583 6.08992 10.4958 6.21026 10.1625 6.45095C9.82917 6.69164 9.6 6.99818 9.475 7.37057H8.525C8.4 6.99818 8.17083 6.69164 7.8375 6.45095C7.50417 6.21026 7.14167 6.08992 6.75 6.08992C6.25 6.08992 5.83333 6.27157 5.5 6.63488C5.16667 6.99818 5 7.45232 5 7.99728C5 8.31517 5.05833 8.63533 5.175 8.95777C5.29167 9.2802 5.5 9.64805 5.8 10.0613C6.1 10.4746 6.50833 10.9605 7.025 11.5191C7.54167 12.0777 8.2 12.7475 9 13.5286Z" fill="white"/>
<path d="M14 16L13.275 15.2916C12.4333 14.465 11.7375 13.752 11.1875 13.1526C10.6375 12.5531 10.2 12.015 9.875 11.5381C9.55 11.0613 9.32292 10.6231 9.19375 10.2234C9.06458 9.8238 9 9.41508 9 8.99728C9 8.14351 9.2625 7.43052 9.7875 6.85831C10.3125 6.2861 10.9667 6 11.75 6C12.1833 6 12.5958 6.09991 12.9875 6.29973C13.3792 6.49955 13.7167 6.78111 14 7.14441C14.2833 6.78111 14.6208 6.49955 15.0125 6.29973C15.4042 6.09991 15.8167 6 16.25 6C17.0333 6 17.6875 6.2861 18.2125 6.85831C18.7375 7.43052 19 8.14351 19 8.99728C19 9.41508 18.9354 9.8238 18.8063 10.2234C18.6771 10.6231 18.45 11.0613 18.125 11.5381C17.8 12.015 17.3625 12.5531 16.8125 13.1526C16.2625 13.752 15.5667 14.465 14.725 15.2916L14 16ZM14 14.5286C14.8 13.7475 15.4583 13.0777 15.975 12.5191C16.4917 11.9605 16.9 11.4746 17.2 11.0613C17.5 10.648 17.7083 10.2802 17.825 9.95777C17.9417 9.63533 18 9.31517 18 8.99728C18 8.45232 17.8333 7.99818 17.5 7.63488C17.1667 7.27157 16.75 7.08992 16.25 7.08992C15.8583 7.08992 15.4958 7.21026 15.1625 7.45095C14.8292 7.69164 14.6 7.99818 14.475 8.37057H13.525C13.4 7.99818 13.1708 7.69164 12.8375 7.45095C12.5042 7.21026 12.1417 7.08992 11.75 7.08992C11.25 7.08992 10.8333 7.27157 10.5 7.63488C10.1667 7.99818 10 8.45232 10 8.99728C10 9.31517 10.0583 9.63533 10.175 9.95777C10.2917 10.2802 10.5 10.648 10.8 11.0613C11.1 11.4746 11.5083 11.9605 12.025 12.5191C12.5417 13.0777 13.2 13.7475 14 14.5286Z" fill="white"/>
<path d="M9 17L8.275 16.2916C7.43333 15.465 6.7375 14.752 6.1875 14.1526C5.6375 13.5531 5.2 13.015 4.875 12.5381C4.55 12.0613 4.32292 11.6231 4.19375 11.2234C4.06458 10.8238 4 10.4151 4 9.99728C4 9.14351 4.2625 8.43052 4.7875 7.85831C5.3125 7.2861 5.96667 7 6.75 7C7.18333 7 7.59583 7.09991 7.9875 7.29973C8.37917 7.49955 8.71667 7.78111 9 8.14441C9.28333 7.78111 9.62083 7.49955 10.0125 7.29973C10.4042 7.09991 10.8167 7 11.25 7C12.0333 7 12.6875 7.2861 13.2125 7.85831C13.7375 8.43052 14 9.14351 14 9.99728C14 10.4151 13.9354 10.8238 13.8063 11.2234C13.6771 11.6231 13.45 12.0613 13.125 12.5381C12.8 13.015 12.3625 13.5531 11.8125 14.1526C11.2625 14.752 10.5667 15.465 9.725 16.2916L9 17ZM9 15.5286C9.8 14.7475 10.4583 14.0777 10.975 13.5191C11.4917 12.9605 11.9 12.4746 12.2 12.0613C12.5 11.648 12.7083 11.2802 12.825 10.9578C12.9417 10.6353 13 10.3152 13 9.99728C13 9.45232 12.8333 8.99818 12.5 8.63488C12.1667 8.27157 11.75 8.08992 11.25 8.08992C10.8583 8.08992 10.4958 8.21026 10.1625 8.45095C9.82917 8.69164 9.6 8.99818 9.475 9.37057H8.525C8.4 8.99818 8.17083 8.69164 7.8375 8.45095C7.50417 8.21026 7.14167 8.08992 6.75 8.08992C6.25 8.08992 5.83333 8.27157 5.5 8.63488C5.16667 8.99818 5 9.45232 5 9.99728C5 10.3152 5.05833 10.6353 5.175 10.9578C5.29167 11.2802 5.5 11.648 5.8 12.0613C6.1 12.4746 6.50833 12.9605 7.025 13.5191C7.54167 14.0777 8.2 14.7475 9 15.5286Z" fill="white"/>
<path d="M12 16L11.275 15.2916C10.4333 14.465 9.7375 13.752 9.1875 13.1526C8.6375 12.5531 8.2 12.015 7.875 11.5381C7.55 11.0613 7.32292 10.6231 7.19375 10.2234C7.06458 9.8238 7 9.41508 7 8.99728C7 8.14351 7.2625 7.43052 7.7875 6.85831C8.3125 6.2861 8.96667 6 9.75 6C10.1833 6 10.5958 6.09991 10.9875 6.29973C11.3792 6.49955 11.7167 6.78111 12 7.14441C12.2833 6.78111 12.6208 6.49955 13.0125 6.29973C13.4042 6.09991 13.8167 6 14.25 6C15.0333 6 15.6875 6.2861 16.2125 6.85831C16.7375 7.43052 17 8.14351 17 8.99728C17 9.41508 16.9354 9.8238 16.8063 10.2234C16.6771 10.6231 16.45 11.0613 16.125 11.5381C15.8 12.015 15.3625 12.5531 14.8125 13.1526C14.2625 13.752 13.5667 14.465 12.725 15.2916L12 16ZM12 14.5286C12.8 13.7475 13.4583 13.0777 13.975 12.5191C14.4917 11.9605 14.9 11.4746 15.2 11.0613C15.5 10.648 15.7083 10.2802 15.825 9.95777C15.9417 9.63533 16 9.31517 16 8.99728C16 8.45232 15.8333 7.99818 15.5 7.63488C15.1667 7.27157 14.75 7.08992 14.25 7.08992C13.8583 7.08992 13.4958 7.21026 13.1625 7.45095C12.8292 7.69164 12.6 7.99818 12.475 8.37057H11.525C11.4 7.99818 11.1708 7.69164 10.8375 7.45095C10.5042 7.21026 10.1417 7.08992 9.75 7.08992C9.25 7.08992 8.83333 7.27157 8.5 7.63488C8.16667 7.99818 8 8.45232 8 8.99728C8 9.31517 8.05833 9.63533 8.175 9.95777C8.29167 10.2802 8.5 10.648 8.8 11.0613C9.1 11.4746 9.50833 11.9605 10.025 12.5191C10.5417 13.0777 11.2 13.7475 12 14.5286Z" fill="white"/>
<path d="M11 15L10.855 14.5041C10.6867 13.9255 10.5475 13.4264 10.4375 13.0068C10.3275 12.5872 10.24 12.2105 10.175 11.8767C10.11 11.5429 10.0646 11.2361 10.0387 10.9564C10.0129 10.6767 10 10.3906 10 10.0981C10 9.50045 10.0525 9.00136 10.1575 8.60082C10.2625 8.20027 10.3933 8 10.55 8C10.6367 8 10.7192 8.06994 10.7975 8.20981C10.8758 8.34968 10.9433 8.54678 11 8.80109C11.0567 8.54678 11.1242 8.34968 11.2025 8.20981C11.2808 8.06994 11.3633 8 11.45 8C11.6067 8 11.7375 8.20027 11.8425 8.60082C11.9475 9.00136 12 9.50045 12 10.0981C12 10.3906 11.9871 10.6767 11.9612 10.9564C11.9354 11.2361 11.89 11.5429 11.825 11.8767C11.76 12.2105 11.6725 12.5872 11.5625 13.0068C11.4525 13.4264 11.3133 13.9255 11.145 14.5041L11 15ZM11 13.97C11.16 13.4233 11.2917 12.9544 11.395 12.5634C11.4983 12.1723 11.58 11.8322 11.64 11.5429C11.7 11.2536 11.7417 10.9961 11.765 10.7704C11.7883 10.5447 11.8 10.3206 11.8 10.0981C11.8 9.71662 11.7667 9.39873 11.7 9.14441C11.6333 8.8901 11.55 8.76294 11.45 8.76294C11.3717 8.76294 11.2992 8.84718 11.2325 9.01567C11.1658 9.18415 11.12 9.39873 11.095 9.6594H10.905C10.88 9.39873 10.8342 9.18415 10.7675 9.01567C10.7008 8.84718 10.6283 8.76294 10.55 8.76294C10.45 8.76294 10.3667 8.8901 10.3 9.14441C10.2333 9.39873 10.2 9.71662 10.2 10.0981C10.2 10.3206 10.2117 10.5447 10.235 10.7704C10.2583 10.9961 10.3 11.2536 10.36 11.5429C10.42 11.8322 10.5017 12.1723 10.605 12.5634C10.7083 12.9544 10.84 13.4233 11 13.97Z" fill="white"/>
<defs>
<clipPath id="clip0_1041_27">
<rect width="16" height="13" fill="white" transform="translate(4 7)"/>
</clipPath>
<clipPath id="clip1_1041_27">
<rect width="16" height="13" fill="white" transform="translate(4 5)"/>
</clipPath>
<clipPath id="clip2_1041_27">
<rect width="16" height="11" fill="white" transform="translate(4 5)"/>
</clipPath>
<clipPath id="clip3_1041_27">
<rect width="16" height="9" fill="white" transform="translate(4 5)"/>
</clipPath>
<clipPath id="clip4_1041_27">
<rect width="16" height="9" fill="white" transform="translate(4 4)"/>
</clipPath>
</defs>
</svg>
