<svg width="1440" height="2101" viewBox="0 0 1440 2101" fill="none" xmlns="http://www.w3.org/2000/svg">
<path d="M576.48 30.2876L566.468 23.672L581.446 1.00549L591.458 7.62103L576.48 30.2876Z" fill="#8D23DE" fill-opacity="0.5"/>
<path d="M673.315 137.815L674.62 125.886L701.627 128.839L700.322 140.768L673.315 137.815Z" fill="#D92378" fill-opacity="0.5"/>
<path d="M638.24 119.135L634.075 130.389L608.596 120.959L612.761 109.705L638.24 119.135Z" fill="#8D23DE" fill-opacity="0.5"/>
<path d="M565.812 57.1015L577.071 52.9507L586.468 78.4418L575.209 82.5925L565.812 57.1015Z" fill="#D92378" fill-opacity="0.5"/>
<path d="M638.24 119.135L634.075 130.389L608.596 120.959L612.761 109.705L638.24 119.135Z" fill="#8D23DE" fill-opacity="0.5"/>
<path d="M565.812 57.1015L577.071 52.9507L586.468 78.4418L575.209 82.5925L565.812 57.1015Z" fill="#D92378" fill-opacity="0.5"/>
<path d="M911.577 179.324L923.28 181.979L917.267 208.474L905.564 205.818L911.577 179.324Z" fill="#8D23DE" fill-opacity="0.5"/>
<path d="M783.02 112.898L786.01 124.52L759.699 131.289L756.709 119.668L783.02 112.898Z" fill="#D92378" fill-opacity="0.5"/>
<path d="M822.431 117.994L822.355 105.994L849.523 105.824L849.598 117.824L822.431 117.994Z" fill="#8D23DE" fill-opacity="0.5"/>
<path d="M912.094 150.47L903.024 158.328L885.234 137.794L894.304 129.937L912.094 150.47Z" fill="#D92378" fill-opacity="0.5"/>
<path d="M822.431 117.994L822.355 105.994L849.523 105.824L849.598 117.824L822.431 117.994Z" fill="#8D23DE" fill-opacity="0.5"/>
<path d="M912.094 150.47L903.024 158.328L885.234 137.794L894.304 129.937L912.094 150.47Z" fill="#D92378" fill-opacity="0.5"/>
<path d="M835.369 357.174L825.797 349.937L842.181 328.266L851.753 335.503L835.369 357.174Z" fill="#8D23DE" fill-opacity="0.5"/>
<path d="M925.195 470.623L927.253 458.801L954.018 463.46L951.96 475.282L925.195 470.623Z" fill="#D92378" fill-opacity="0.5"/>
<path d="M891.374 449.759L886.504 460.726L861.674 449.7L866.544 438.733L891.374 449.759Z" fill="#8D23DE" fill-opacity="0.5"/>
<path d="M823.023 383.258L834.523 379.829L842.286 405.864L830.786 409.293L823.023 383.258Z" fill="#D92378" fill-opacity="0.5"/>
<path d="M891.374 449.759L886.504 460.726L861.674 449.7L866.544 438.733L891.374 449.759Z" fill="#8D23DE" fill-opacity="0.5"/>
<path d="M823.023 383.258L834.523 379.829L842.286 405.864L830.786 409.293L823.023 383.258Z" fill="#D92378" fill-opacity="0.5"/>
<path d="M1169.25 795.094L1171.31 783.272L1198.07 787.931L1196.02 799.753L1169.25 795.094Z" fill="#D92378" fill-opacity="0.5"/>
<path d="M1135.43 774.229L1130.56 785.197L1105.73 774.171L1110.6 763.203L1135.43 774.229Z" fill="#8D23DE" fill-opacity="0.5"/>
<path d="M1135.43 774.229L1130.56 785.197L1105.73 774.171L1110.6 763.203L1135.43 774.229Z" fill="#8D23DE" fill-opacity="0.5"/>
<path d="M1356.1 1011.05L1345.18 1006.08L1356.44 981.353L1367.36 986.326L1356.1 1011.05Z" fill="#8D23DE" fill-opacity="0.5"/>
<path d="M1402.48 1077.66L1397.61 1088.63L1372.78 1077.6L1377.65 1066.63L1402.48 1077.66Z" fill="#8D23DE" fill-opacity="0.5"/>
<path d="M1342.83 1034.86L1353.59 1029.55L1365.61 1053.92L1354.84 1059.22L1342.83 1034.86Z" fill="#D92378" fill-opacity="0.5"/>
<path d="M896.504 242.408L907.851 246.313L899.01 272.002L887.663 268.097L896.504 242.408Z" fill="#D92378" fill-opacity="0.5"/>
<path d="M1154.98 512.991L1166.68 515.646L1160.67 542.141L1148.97 539.485L1154.98 512.991Z" fill="#8D23DE" fill-opacity="0.5"/>
<path d="M1026.42 446.565L1029.41 458.187L1003.1 464.956L1000.11 453.335L1026.42 446.565Z" fill="#D92378" fill-opacity="0.5"/>
<path d="M1065.83 451.662L1065.76 439.662L1092.92 439.492L1093 451.492L1065.83 451.662Z" fill="#8D23DE" fill-opacity="0.5"/>
<path d="M1155.49 484.138L1146.43 491.996L1128.64 471.462L1137.7 463.605L1155.49 484.138Z" fill="#D92378" fill-opacity="0.5"/>
<path d="M1065.83 451.662L1065.76 439.662L1092.92 439.492L1093 451.492L1065.83 451.662Z" fill="#8D23DE" fill-opacity="0.5"/>
<path d="M1155.49 484.138L1146.43 491.996L1128.64 471.462L1137.7 463.605L1155.49 484.138Z" fill="#D92378" fill-opacity="0.5"/>
<path d="M1139.91 576.076L1151.25 579.981L1142.41 605.67L1131.06 601.765L1139.91 576.076Z" fill="#D92378" fill-opacity="0.5"/>
<path d="M1154.98 512.991L1166.68 515.646L1160.67 542.141L1148.97 539.485L1154.98 512.991Z" fill="#8D23DE" fill-opacity="0.5"/>
<path d="M1026.42 446.565L1029.41 458.187L1003.1 464.956L1000.11 453.335L1026.42 446.565Z" fill="#D92378" fill-opacity="0.5"/>
<path d="M1065.83 451.662L1065.76 439.662L1092.92 439.492L1093 451.492L1065.83 451.662Z" fill="#8D23DE" fill-opacity="0.5"/>
<path d="M1155.49 484.138L1146.43 491.996L1128.64 471.462L1137.7 463.605L1155.49 484.138Z" fill="#D92378" fill-opacity="0.5"/>
<path d="M1065.83 451.662L1065.76 439.662L1092.92 439.492L1093 451.492L1065.83 451.662Z" fill="#8D23DE" fill-opacity="0.5"/>
<path d="M1155.49 484.138L1146.43 491.996L1128.64 471.462L1137.7 463.605L1155.49 484.138Z" fill="#D92378" fill-opacity="0.5"/>
<path d="M1139.91 576.076L1151.25 579.981L1142.41 605.67L1131.06 601.765L1139.91 576.076Z" fill="#D92378" fill-opacity="0.5"/>
<path d="M1396.62 839.247L1408.33 841.903L1402.31 868.398L1390.61 865.742L1396.62 839.247Z" fill="#8D23DE" fill-opacity="0.5"/>
<path d="M1268.07 772.822L1271.06 784.444L1244.75 791.213L1241.76 779.592L1268.07 772.822Z" fill="#D92378" fill-opacity="0.5"/>
<path d="M1307.48 777.919L1307.4 765.919L1334.57 765.749L1334.64 777.748L1307.48 777.919Z" fill="#8D23DE" fill-opacity="0.5"/>
<path d="M1397.14 810.395L1388.07 818.252L1370.28 797.719L1379.35 789.861L1397.14 810.395Z" fill="#D92378" fill-opacity="0.5"/>
<path d="M1307.48 777.919L1307.4 765.919L1334.57 765.749L1334.64 777.748L1307.48 777.919Z" fill="#8D23DE" fill-opacity="0.5"/>
<path d="M1397.14 810.395L1388.07 818.252L1370.28 797.719L1379.35 789.861L1397.14 810.395Z" fill="#D92378" fill-opacity="0.5"/>
<path d="M1381.55 902.333L1392.9 906.238L1384.06 931.927L1372.71 928.022L1381.55 902.333Z" fill="#D92378" fill-opacity="0.5"/>
<path d="M1095.32 970.994L1098.19 959.343L1124.57 965.849L1121.7 977.5L1095.32 970.994Z" fill="#D92378" fill-opacity="0.5"/>
<path d="M1026.51 1098.29L1038.18 1095.52L1044.46 1121.95L1032.78 1124.72L1026.51 1098.29Z" fill="#8D23DE" fill-opacity="0.5"/>
<path d="M1032.34 1058.98L1020.34 1058.83L1020.67 1031.67L1032.67 1031.81L1032.34 1058.98Z" fill="#D92378" fill-opacity="0.5"/>
<path d="M1066.48 969.939L1074.17 979.153L1053.31 996.557L1045.62 987.343L1066.48 969.939Z" fill="#8D23DE" fill-opacity="0.5"/>
<path d="M1032.34 1058.98L1020.34 1058.83L1020.67 1031.67L1032.67 1031.81L1032.34 1058.98Z" fill="#D92378" fill-opacity="0.5"/>
<path d="M1066.48 969.939L1074.17 979.153L1053.31 996.557L1045.62 987.343L1066.48 969.939Z" fill="#8D23DE" fill-opacity="0.5"/>
<path d="M1067.33 1336.67L1068.76 1348.58L1041.78 1351.81L1040.36 1339.89L1067.33 1336.67Z" fill="#D92378" fill-opacity="0.5"/>
<path d="M1086.78 1193.28L1076.84 1199.99L1061.63 1177.48L1071.58 1170.76L1086.78 1193.28Z" fill="#8D23DE" fill-opacity="0.5"/>
<path d="M1095.2 1232.12L1106.48 1228.02L1115.76 1253.55L1104.48 1257.65L1095.2 1232.12Z" fill="#D92378" fill-opacity="0.5"/>
<path d="M1094.69 1327.48L1084.24 1321.57L1097.62 1297.92L1108.06 1303.83L1094.69 1327.48Z" fill="#8D23DE" fill-opacity="0.5"/>
<path d="M1095.2 1232.12L1106.48 1228.02L1115.76 1253.55L1104.48 1257.65L1095.2 1232.12Z" fill="#D92378" fill-opacity="0.5"/>
<path d="M1094.69 1327.48L1084.24 1321.57L1097.62 1297.92L1108.06 1303.83L1094.69 1327.48Z" fill="#8D23DE" fill-opacity="0.5"/>
<path d="M874.222 1324.54L877.829 1313.1L903.741 1321.26L900.135 1332.71L874.222 1324.54Z" fill="#D92378" fill-opacity="0.5"/>
<path d="M797.481 1447.22L809.309 1445.19L813.898 1471.97L802.071 1474L797.481 1447.22Z" fill="#8D23DE" fill-opacity="0.5"/>
<path d="M805.791 1408.36L793.825 1407.45L795.883 1380.36L807.848 1381.27L805.791 1408.36Z" fill="#D92378" fill-opacity="0.5"/>
<path d="M845.508 1321.66L852.596 1331.34L830.674 1347.39L823.586 1337.71L845.508 1321.66Z" fill="#8D23DE" fill-opacity="0.5"/>
<path d="M805.791 1408.36L793.825 1407.45L795.883 1380.36L807.848 1381.27L805.791 1408.36Z" fill="#D92378" fill-opacity="0.5"/>
<path d="M845.508 1321.66L852.596 1331.34L830.674 1347.39L823.586 1337.71L845.508 1321.66Z" fill="#8D23DE" fill-opacity="0.5"/>
<path d="M650.426 1663.3L654.033 1651.86L679.945 1660.02L676.339 1671.47L650.426 1663.3Z" fill="#D92378" fill-opacity="0.5"/>
<path d="M573.685 1785.98L585.513 1783.96L590.103 1810.73L578.275 1812.76L573.685 1785.98Z" fill="#8D23DE" fill-opacity="0.5"/>
<path d="M581.995 1747.12L570.029 1746.21L572.087 1719.12L584.052 1720.03L581.995 1747.12Z" fill="#D92378" fill-opacity="0.5"/>
<path d="M621.712 1660.42L628.8 1670.11L606.878 1686.15L599.79 1676.47L621.712 1660.42Z" fill="#8D23DE" fill-opacity="0.5"/>
<path d="M581.995 1747.12L570.029 1746.21L572.087 1719.12L584.052 1720.03L581.995 1747.12Z" fill="#D92378" fill-opacity="0.5"/>
<path d="M621.712 1660.42L628.8 1670.11L606.878 1686.15L599.79 1676.47L621.712 1660.42Z" fill="#8D23DE" fill-opacity="0.5"/>
<path d="M432.925 2034.45L433.946 2022.5L461.015 2024.81L459.994 2036.77L432.925 2034.45Z" fill="#D92378" fill-opacity="0.5"/>
<path d="M385.735 2100.48L373.77 2099.58L375.827 2072.49L387.793 2073.39L385.735 2100.48Z" fill="#D92378" fill-opacity="0.5"/>
<path d="M406.045 2029.93L414.656 2038.29L395.733 2057.78L387.122 2049.43L406.045 2029.93Z" fill="#8D23DE" fill-opacity="0.5"/>
<path d="M1002.85 1343.63L1002.97 1355.63L975.808 1355.92L975.68 1343.92L1002.85 1343.63Z" fill="#8D23DE" fill-opacity="0.5"/>
<path d="M834.653 1677.9L836.077 1689.82L809.101 1693.04L807.677 1681.12L834.653 1677.9Z" fill="#D92378" fill-opacity="0.5"/>
<path d="M854.102 1534.51L844.157 1541.22L828.954 1518.71L838.899 1511.99L854.102 1534.51Z" fill="#8D23DE" fill-opacity="0.5"/>
<path d="M862.523 1573.35L873.802 1569.25L883.076 1594.79L871.797 1598.88L862.523 1573.35Z" fill="#D92378" fill-opacity="0.5"/>
<path d="M862.008 1668.71L851.563 1662.8L864.938 1639.15L875.383 1645.06L862.008 1668.71Z" fill="#8D23DE" fill-opacity="0.5"/>
<path d="M862.523 1573.35L873.802 1569.25L883.076 1594.79L871.797 1598.88L862.523 1573.35Z" fill="#D92378" fill-opacity="0.5"/>
<path d="M862.008 1668.71L851.563 1662.8L864.938 1639.15L875.383 1645.06L862.008 1668.71Z" fill="#8D23DE" fill-opacity="0.5"/>
<path d="M770.168 1684.86L770.296 1696.86L743.129 1697.15L743.001 1685.15L770.168 1684.86Z" fill="#8D23DE" fill-opacity="0.5"/>
<path d="M834.653 1677.9L836.077 1689.82L809.101 1693.04L807.677 1681.12L834.653 1677.9Z" fill="#D92378" fill-opacity="0.5"/>
<path d="M854.102 1534.51L844.157 1541.22L828.954 1518.71L838.899 1511.99L854.102 1534.51Z" fill="#8D23DE" fill-opacity="0.5"/>
<path d="M862.523 1573.35L873.802 1569.25L883.076 1594.79L871.797 1598.88L862.523 1573.35Z" fill="#D92378" fill-opacity="0.5"/>
<path d="M862.008 1668.71L851.563 1662.8L864.938 1639.15L875.383 1645.06L862.008 1668.71Z" fill="#8D23DE" fill-opacity="0.5"/>
<path d="M862.523 1573.35L873.802 1569.25L883.076 1594.79L871.797 1598.88L862.523 1573.35Z" fill="#D92378" fill-opacity="0.5"/>
<path d="M862.008 1668.71L851.563 1662.8L864.938 1639.15L875.383 1645.06L862.008 1668.71Z" fill="#8D23DE" fill-opacity="0.5"/>
<path d="M770.168 1684.86L770.296 1696.86L743.129 1697.15L743.001 1685.15L770.168 1684.86Z" fill="#8D23DE" fill-opacity="0.5"/>
<path d="M608.366 2014.99L609.79 2026.91L582.814 2030.13L581.39 2018.21L608.366 2014.99Z" fill="#D92378" fill-opacity="0.5"/>
<path d="M627.816 1871.6L617.871 1878.32L602.667 1855.8L612.612 1849.08L627.816 1871.6Z" fill="#8D23DE" fill-opacity="0.5"/>
<path d="M636.236 1910.44L647.515 1906.34L656.79 1931.88L645.51 1935.97L636.236 1910.44Z" fill="#D92378" fill-opacity="0.5"/>
<path d="M635.721 2005.8L625.276 1999.89L638.652 1976.24L649.097 1982.15L635.721 2005.8Z" fill="#8D23DE" fill-opacity="0.5"/>
<path d="M636.236 1910.44L647.515 1906.34L656.79 1931.88L645.51 1935.97L636.236 1910.44Z" fill="#D92378" fill-opacity="0.5"/>
<path d="M635.721 2005.8L625.276 1999.89L638.652 1976.24L649.097 1982.15L635.721 2005.8Z" fill="#8D23DE" fill-opacity="0.5"/>
<path d="M543.881 2021.95L544.009 2033.95L516.842 2034.24L516.714 2022.24L543.881 2021.95Z" fill="#8D23DE" fill-opacity="0.5"/>
<circle cx="384" cy="393" r="144" fill="#C486FA"/>
<circle cx="334" cy="1299" r="144" fill="#AD58F4"/>
<circle cx="370" cy="148" r="62" fill="#8D23DE"/>
<circle cx="245" cy="1093" r="62" fill="#C486FA"/>
<circle cx="83.5" cy="389.5" r="259.5" fill="#AD58F4"/>
<circle cx="40.5" cy="1396.5" r="259.5" fill="#8D23DE"/>
<circle cx="1214" cy="705" r="144" fill="#F4409C"/>
<path d="M1440 512C1440 546.242 1412.24 574 1378 574C1343.76 574 1316 546.242 1316 512C1316 477.758 1343.76 450 1378 450C1412.24 450 1440 477.758 1440 512Z" fill="#D92378"/>
<circle cx="1411.5" cy="891.5" r="259.5" fill="#FB6BB8"/>
<path d="M722 2L722 1939" stroke="#8D23DE" stroke-width="4" stroke-linecap="round"/>
<path d="M722 595L722 1144" stroke="#E5247D" stroke-width="4" stroke-linecap="round"/>
</svg>
