<svg width="1440" height="2269" viewBox="0 0 1440 2269" fill="none" xmlns="http://www.w3.org/2000/svg">
<path d="M576.48 29.2876L566.468 22.672L581.446 0.0054901L591.458 6.62103L576.48 29.2876Z" fill="#8D23DE"/>
<path d="M673.315 136.815L674.62 124.886L701.627 127.839L700.322 139.768L673.315 136.815Z" fill="#D92378"/>
<path d="M638.24 118.135L634.075 129.389L608.596 119.959L612.761 108.705L638.24 118.135Z" fill="#8D23DE"/>
<path d="M565.812 56.1015L577.071 51.9507L586.468 77.4418L575.209 81.5925L565.812 56.1015Z" fill="#D92378"/>
<path d="M638.24 118.135L634.075 129.389L608.596 119.959L612.761 108.705L638.24 118.135Z" fill="#8D23DE"/>
<path d="M565.812 56.1015L577.071 51.9507L586.468 77.4418L575.209 81.5925L565.812 56.1015Z" fill="#D92378"/>
<path d="M911.577 178.324L923.28 180.979L917.267 207.474L905.564 204.818L911.577 178.324Z" fill="#8D23DE"/>
<path d="M783.02 111.898L786.01 123.52L759.699 130.289L756.709 118.668L783.02 111.898Z" fill="#D92378"/>
<path d="M822.431 116.994L822.355 104.994L849.523 104.824L849.598 116.824L822.431 116.994Z" fill="#8D23DE"/>
<path d="M912.094 149.47L903.024 157.328L885.234 136.794L894.304 128.937L912.094 149.47Z" fill="#D92378"/>
<path d="M822.431 116.994L822.355 104.994L849.523 104.824L849.598 116.824L822.431 116.994Z" fill="#8D23DE"/>
<path d="M912.094 149.47L903.024 157.328L885.234 136.794L894.304 128.937L912.094 149.47Z" fill="#D92378"/>
<path d="M835.369 356.174L825.797 348.937L842.181 327.266L851.753 334.503L835.369 356.174Z" fill="#8D23DE"/>
<path d="M925.195 469.623L927.253 457.801L954.018 462.46L951.96 474.282L925.195 469.623Z" fill="#D92378"/>
<path d="M891.374 448.759L886.504 459.726L861.674 448.7L866.544 437.733L891.374 448.759Z" fill="#8D23DE"/>
<path d="M823.023 382.258L834.523 378.829L842.285 404.864L830.786 408.293L823.023 382.258Z" fill="#D92378"/>
<path d="M891.374 448.759L886.504 459.726L861.674 448.7L866.544 437.733L891.374 448.759Z" fill="#8D23DE"/>
<path d="M823.023 382.258L834.523 378.829L842.285 404.864L830.786 408.293L823.023 382.258Z" fill="#D92378"/>
<path d="M1079.43 680.645L1069.85 673.408L1086.24 651.737L1095.81 658.973L1079.43 680.645Z" fill="#8D23DE"/>
<path d="M1169.25 794.094L1171.31 782.272L1198.07 786.931L1196.02 798.753L1169.25 794.094Z" fill="#D92378"/>
<path d="M1135.43 773.229L1130.56 784.197L1105.73 773.171L1110.6 762.203L1135.43 773.229Z" fill="#8D23DE"/>
<path d="M1067.08 706.729L1078.58 703.301L1086.34 729.336L1074.84 732.765L1067.08 706.729Z" fill="#D92378"/>
<path d="M1135.43 773.229L1130.56 784.197L1105.73 773.171L1110.6 762.203L1135.43 773.229Z" fill="#8D23DE"/>
<path d="M1067.08 706.729L1078.58 703.301L1086.34 729.336L1074.84 732.765L1067.08 706.729Z" fill="#D92378"/>
<path d="M1356.1 1010.05L1345.18 1005.08L1356.44 980.353L1367.36 985.326L1356.1 1010.05Z" fill="#8D23DE"/>
<path d="M1402.48 1076.66L1397.61 1087.63L1372.78 1076.6L1377.65 1065.63L1402.48 1076.66Z" fill="#8D23DE"/>
<path d="M1342.83 1033.86L1353.59 1028.55L1365.61 1052.92L1354.84 1058.22L1342.83 1033.86Z" fill="#D92378"/>
<path d="M896.504 241.408L907.851 245.313L899.01 271.002L887.663 267.097L896.504 241.408Z" fill="#D92378"/>
<path d="M1154.98 511.991L1166.68 514.646L1160.67 541.141L1148.97 538.485L1154.98 511.991Z" fill="#8D23DE"/>
<path d="M1026.42 445.565L1029.41 457.187L1003.1 463.956L1000.11 452.335L1026.42 445.565Z" fill="#D92378"/>
<path d="M1065.83 450.662L1065.76 438.662L1092.92 438.492L1093 450.492L1065.83 450.662Z" fill="#8D23DE"/>
<path d="M1155.49 483.138L1146.43 490.996L1128.64 470.462L1137.7 462.605L1155.49 483.138Z" fill="#D92378"/>
<path d="M1065.83 450.662L1065.76 438.662L1092.92 438.492L1093 450.492L1065.83 450.662Z" fill="#8D23DE"/>
<path d="M1155.49 483.138L1146.43 490.996L1128.64 470.462L1137.7 462.605L1155.49 483.138Z" fill="#D92378"/>
<path d="M1139.91 575.076L1151.25 578.981L1142.41 604.67L1131.06 600.765L1139.91 575.076Z" fill="#D92378"/>
<path d="M1154.98 511.991L1166.68 514.646L1160.67 541.141L1148.97 538.485L1154.98 511.991Z" fill="#8D23DE"/>
<path d="M1026.42 445.565L1029.41 457.187L1003.1 463.956L1000.11 452.335L1026.42 445.565Z" fill="#D92378"/>
<path d="M1065.83 450.662L1065.76 438.662L1092.92 438.492L1093 450.492L1065.83 450.662Z" fill="#8D23DE"/>
<path d="M1155.49 483.138L1146.43 490.996L1128.64 470.462L1137.7 462.605L1155.49 483.138Z" fill="#D92378"/>
<path d="M1065.83 450.662L1065.76 438.662L1092.92 438.492L1093 450.492L1065.83 450.662Z" fill="#8D23DE"/>
<path d="M1155.49 483.138L1146.43 490.996L1128.64 470.462L1137.7 462.605L1155.49 483.138Z" fill="#D92378"/>
<path d="M1139.91 575.076L1151.25 578.981L1142.41 604.67L1131.06 600.765L1139.91 575.076Z" fill="#D92378"/>
<path d="M1396.62 838.247L1408.33 840.903L1402.31 867.398L1390.61 864.742L1396.62 838.247Z" fill="#8D23DE"/>
<path d="M1268.07 771.822L1271.06 783.444L1244.75 790.213L1241.76 778.592L1268.07 771.822Z" fill="#D92378"/>
<path d="M1307.48 776.919L1307.4 764.919L1334.57 764.749L1334.64 776.748L1307.48 776.919Z" fill="#8D23DE"/>
<path d="M1397.14 809.395L1388.07 817.252L1370.28 796.719L1379.35 788.861L1397.14 809.395Z" fill="#D92378"/>
<path d="M1307.48 776.919L1307.4 764.919L1334.57 764.749L1334.64 776.748L1307.48 776.919Z" fill="#8D23DE"/>
<path d="M1397.14 809.395L1388.07 817.252L1370.28 796.719L1379.35 788.861L1397.14 809.395Z" fill="#D92378"/>
<path d="M1381.55 901.333L1392.9 905.238L1384.06 930.927L1372.71 927.022L1381.55 901.333Z" fill="#D92378"/>
<path d="M1095.32 969.994L1098.19 958.343L1124.57 964.849L1121.7 976.5L1095.32 969.994Z" fill="#8D23DE"/>
<path d="M1026.51 1097.29L1038.18 1094.52L1044.46 1120.95L1032.78 1123.72L1026.51 1097.29Z" fill="#D92378"/>
<path d="M1032.34 1057.98L1020.34 1057.83L1020.67 1030.67L1032.67 1030.81L1032.34 1057.98Z" fill="#8D23DE"/>
<path d="M1066.48 968.939L1074.17 978.153L1053.31 995.557L1045.62 986.343L1066.48 968.939Z" fill="#D92378"/>
<path d="M1032.34 1057.98L1020.34 1057.83L1020.67 1030.67L1032.67 1030.81L1032.34 1057.98Z" fill="#8D23DE"/>
<path d="M1066.48 968.939L1074.17 978.153L1053.31 995.557L1045.62 986.343L1066.48 968.939Z" fill="#D92378"/>
<path d="M1067.33 1335.67L1068.76 1347.58L1041.78 1350.81L1040.36 1338.89L1067.33 1335.67Z" fill="#8D23DE"/>
<path d="M1086.78 1192.28L1076.84 1198.99L1061.63 1176.48L1071.58 1169.76L1086.78 1192.28Z" fill="#D92378"/>
<path d="M1095.2 1231.12L1106.48 1227.02L1115.76 1252.55L1104.48 1256.65L1095.2 1231.12Z" fill="#8D23DE"/>
<path d="M1094.69 1326.48L1084.24 1320.57L1097.62 1296.92L1108.06 1302.83L1094.69 1326.48Z" fill="#D92378"/>
<path d="M1095.2 1231.12L1106.48 1227.02L1115.76 1252.55L1104.48 1256.65L1095.2 1231.12Z" fill="#8D23DE"/>
<path d="M1094.69 1326.48L1084.24 1320.57L1097.62 1296.92L1108.06 1302.83L1094.69 1326.48Z" fill="#D92378"/>
<path d="M874.222 1323.54L877.829 1312.1L903.741 1320.26L900.135 1331.71L874.222 1323.54Z" fill="#8D23DE"/>
<path d="M797.481 1446.22L809.309 1444.19L813.898 1470.97L802.071 1473L797.481 1446.22Z" fill="#D92378"/>
<path d="M805.791 1407.36L793.825 1406.45L795.883 1379.36L807.848 1380.27L805.791 1407.36Z" fill="#8D23DE"/>
<path d="M845.508 1320.66L852.596 1330.34L830.674 1346.39L823.586 1336.71L845.508 1320.66Z" fill="#D92378"/>
<path d="M805.791 1407.36L793.825 1406.45L795.883 1379.36L807.848 1380.27L805.791 1407.36Z" fill="#8D23DE"/>
<path d="M845.508 1320.66L852.596 1330.34L830.674 1346.39L823.586 1336.71L845.508 1320.66Z" fill="#D92378"/>
<path d="M650.427 1662.3L654.033 1650.86L679.945 1659.02L676.339 1670.47L650.427 1662.3Z" fill="#8D23DE"/>
<path d="M573.685 1784.98L585.513 1782.96L590.103 1809.73L578.275 1811.76L573.685 1784.98Z" fill="#D92378"/>
<path d="M581.995 1746.12L570.029 1745.21L572.087 1718.12L584.052 1719.03L581.995 1746.12Z" fill="#8D23DE"/>
<path d="M621.712 1659.42L628.8 1669.11L606.878 1685.15L599.79 1675.47L621.712 1659.42Z" fill="#D92378"/>
<path d="M581.995 1746.12L570.029 1745.21L572.087 1718.12L584.052 1719.03L581.995 1746.12Z" fill="#8D23DE"/>
<path d="M621.712 1659.42L628.8 1669.11L606.878 1685.15L599.79 1675.47L621.712 1659.42Z" fill="#D92378"/>
<path d="M432.925 2033.45L433.946 2021.5L461.015 2023.81L459.994 2035.77L432.925 2033.45Z" fill="#8D23DE"/>
<path d="M385.735 2099.48L373.77 2098.58L375.827 2071.49L387.793 2072.39L385.735 2099.48Z" fill="#8D23DE"/>
<path d="M406.045 2028.93L414.656 2037.29L395.733 2056.78L387.122 2048.43L406.045 2028.93Z" fill="#D92378"/>
<path d="M1002.85 1342.63L1002.97 1354.63L975.808 1354.92L975.68 1342.92L1002.85 1342.63Z" fill="#D92378"/>
<path d="M834.653 1676.9L836.077 1688.82L809.101 1692.04L807.677 1680.12L834.653 1676.9Z" fill="#8D23DE"/>
<path d="M854.102 1533.51L844.157 1540.22L828.954 1517.71L838.899 1510.99L854.102 1533.51Z" fill="#D92378"/>
<path d="M862.523 1572.35L873.802 1568.25L883.076 1593.79L871.797 1597.88L862.523 1572.35Z" fill="#8D23DE"/>
<path d="M862.008 1667.71L851.563 1661.8L864.938 1638.15L875.383 1644.06L862.008 1667.71Z" fill="#D92378"/>
<path d="M862.523 1572.35L873.802 1568.25L883.076 1593.79L871.797 1597.88L862.523 1572.35Z" fill="#8D23DE"/>
<path d="M862.008 1667.71L851.563 1661.8L864.938 1638.15L875.383 1644.06L862.008 1667.71Z" fill="#D92378"/>
<path d="M770.168 1683.86L770.296 1695.86L743.129 1696.15L743.001 1684.15L770.168 1683.86Z" fill="#D92378"/>
<path d="M834.653 1676.9L836.077 1688.82L809.101 1692.04L807.677 1680.12L834.653 1676.9Z" fill="#8D23DE"/>
<path d="M854.102 1533.51L844.157 1540.22L828.954 1517.71L838.899 1510.99L854.102 1533.51Z" fill="#D92378"/>
<path d="M862.523 1572.35L873.802 1568.25L883.076 1593.79L871.797 1597.88L862.523 1572.35Z" fill="#8D23DE"/>
<path d="M862.008 1667.71L851.563 1661.8L864.938 1638.15L875.383 1644.06L862.008 1667.71Z" fill="#D92378"/>
<path d="M862.523 1572.35L873.802 1568.25L883.076 1593.79L871.797 1597.88L862.523 1572.35Z" fill="#8D23DE"/>
<path d="M862.008 1667.71L851.563 1661.8L864.938 1638.15L875.383 1644.06L862.008 1667.71Z" fill="#D92378"/>
<path d="M770.168 1683.86L770.296 1695.86L743.129 1696.15L743.001 1684.15L770.168 1683.86Z" fill="#D92378"/>
<path d="M608.366 2013.99L609.79 2025.91L582.814 2029.13L581.39 2017.21L608.366 2013.99Z" fill="#8D23DE"/>
<path d="M627.816 1870.6L617.871 1877.32L602.667 1854.8L612.612 1848.08L627.816 1870.6Z" fill="#D92378"/>
<path d="M636.236 1909.44L647.515 1905.34L656.79 1930.88L645.51 1934.97L636.236 1909.44Z" fill="#8D23DE"/>
<path d="M635.721 2004.8L625.276 1998.89L638.652 1975.24L649.097 1981.15L635.721 2004.8Z" fill="#D92378"/>
<path d="M636.236 1909.44L647.515 1905.34L656.79 1930.88L645.51 1934.97L636.236 1909.44Z" fill="#8D23DE"/>
<path d="M635.721 2004.8L625.276 1998.89L638.652 1975.24L649.097 1981.15L635.721 2004.8Z" fill="#D92378"/>
<path d="M543.881 2020.95L544.009 2032.95L516.842 2033.24L516.714 2021.24L543.881 2020.95Z" fill="#D92378"/>
<line x1="411" y1="384.5" x2="1144.01" y2="384.5" stroke="#8D23DE" stroke-width="3"/>
<line x1="466.971" y1="1572" x2="1173.03" y2="1572" stroke="#8D23DE" stroke-width="3"/>
<line x1="343" y1="965" x2="1052" y2="965" stroke="#D92378" stroke-width="3"/>
<circle cx="286" cy="383" r="144" fill="#AD58F4"/>
<circle cx="373" cy="1552" r="144" fill="#AD58F4"/>
<circle cx="339" cy="145" r="62" fill="#C486FA"/>
<circle cx="370" cy="1314" r="62" fill="#C486FA"/>
<circle cx="0.5" cy="398.5" r="259.5" fill="#8D23DE"/>
<circle cx="83.5" cy="1555.5" r="259.5" fill="#8D23DE"/>
<circle cx="1177" cy="762" r="144" fill="#F4409C"/>
<path d="M1423 617C1423 651.242 1395.24 679 1361 679C1326.76 679 1299 651.242 1299 617C1299 582.758 1326.76 555 1361 555C1395.24 555 1423 582.758 1423 617Z" fill="#FB6BB8"/>
<circle cx="1296.5" cy="969.5" r="259.5" fill="#D92378"/>
</svg>
