<svg width="1440" height="1921" viewBox="0 0 1440 1921" fill="none" xmlns="http://www.w3.org/2000/svg">
<g clip-path="url(#clip0_522_2)">
<path d="M662.852 37.2114L671.082 28.4784L690.853 47.1114L682.623 55.8444L662.852 37.2114Z" fill="#009CDE" fill-opacity="0.5"/>
<path d="M646.119 1.16651L636.013 7.63684L621.364 -15.2436L631.47 -21.7139L646.119 1.16651Z" fill="#FFDE00" fill-opacity="0.5"/>
<path d="M646.119 1.16651L636.013 7.63684L621.364 -15.2436L631.47 -21.7139L646.119 1.16651Z" fill="#FFDE00" fill-opacity="0.5"/>
<path d="M827.967 213.927L835.705 223.099L814.94 240.618L807.202 231.446L827.967 213.927Z" fill="#FFDE00" fill-opacity="0.5"/>
<path d="M765.412 83.4435L760.794 94.5194L735.718 84.0647L740.336 72.9888L765.412 83.4435Z" fill="#009CDE" fill-opacity="0.5"/>
<path d="M793.79 111.261L800.962 101.64L822.744 117.877L815.572 127.498L793.79 111.261Z" fill="#FFDE00" fill-opacity="0.5"/>
<path d="M845.769 191.213L833.796 192.018L831.974 164.911L843.947 164.106L845.769 191.213Z" fill="#009CDE" fill-opacity="0.5"/>
<path d="M793.79 111.261L800.962 101.64L822.744 117.877L815.572 127.498L793.79 111.261Z" fill="#FFDE00" fill-opacity="0.5"/>
<path d="M845.769 191.213L833.796 192.018L831.974 164.911L843.947 164.106L845.769 191.213Z" fill="#009CDE" fill-opacity="0.5"/>
<path d="M659.97 309.923L656.692 298.379L682.827 290.96L686.105 302.504L659.97 309.923Z" fill="#FFDE00" fill-opacity="0.5"/>
<path d="M663.278 454.589L672.045 446.395L690.596 466.244L681.829 474.438L663.278 454.589Z" fill="#009CDE" fill-opacity="0.5"/>
<path d="M648.864 417.557L638.368 423.374L625.199 399.611L635.695 393.794L648.864 417.557Z" fill="#FFDE00" fill-opacity="0.5"/>
<path d="M634.398 323.297L645.641 327.491L636.145 352.946L624.902 348.751L634.398 323.297Z" fill="#009CDE" fill-opacity="0.5"/>
<path d="M648.864 417.557L638.368 423.374L625.199 399.611L635.695 393.794L648.864 417.557Z" fill="#FFDE00" fill-opacity="0.5"/>
<path d="M634.398 323.297L645.641 327.491L636.145 352.946L624.902 348.751L634.398 323.297Z" fill="#009CDE" fill-opacity="0.5"/>
<path d="M659.178 715.933L655.901 704.389L682.036 696.97L685.313 708.513L659.178 715.933Z" fill="#FFDE00" fill-opacity="0.5"/>
<path d="M662.487 860.599L671.254 852.405L689.805 872.254L681.038 880.448L662.487 860.599Z" fill="#009CDE" fill-opacity="0.5"/>
<path d="M648.072 823.568L637.576 829.385L624.407 805.622L634.903 799.805L648.072 823.568Z" fill="#FFDE00" fill-opacity="0.5"/>
<path d="M633.606 729.308L644.849 733.502L635.353 758.956L624.11 754.762L633.606 729.308Z" fill="#009CDE" fill-opacity="0.5"/>
<path d="M648.072 823.568L637.576 829.385L624.407 805.622L634.903 799.805L648.072 823.568Z" fill="#FFDE00" fill-opacity="0.5"/>
<path d="M633.606 729.308L644.849 733.502L635.353 758.956L624.11 754.762L633.606 729.308Z" fill="#009CDE" fill-opacity="0.5"/>
<path d="M681.444 1145.54L675.726 1134.99L699.611 1122.05L705.329 1132.6L681.444 1145.54Z" fill="#FFDE00" fill-opacity="0.5"/>
<path d="M678.309 1226.64L667.813 1232.46L654.644 1208.7L665.14 1202.88L678.309 1226.64Z" fill="#FFDE00" fill-opacity="0.5"/>
<path d="M656.503 1156.54L668.29 1158.79L663.194 1185.47L651.407 1183.22L656.503 1156.54Z" fill="#009CDE" fill-opacity="0.5"/>
<path d="M777.921 255.184L784.622 265.139L762.085 280.311L755.384 270.356L777.921 255.184Z" fill="#009CDE" fill-opacity="0.5"/>
<path d="M821.111 626.88L828.849 636.052L808.084 653.571L800.346 644.399L821.111 626.88Z" fill="#FFDE00" fill-opacity="0.5"/>
<path d="M758.555 496.397L753.937 507.473L728.861 497.018L733.479 485.942L758.555 496.397Z" fill="#009CDE" fill-opacity="0.5"/>
<path d="M786.933 524.215L794.105 514.594L815.887 530.831L808.715 540.452L786.933 524.215Z" fill="#FFDE00" fill-opacity="0.5"/>
<path d="M838.912 604.168L826.939 604.973L825.117 577.866L837.09 577.061L838.912 604.168Z" fill="#009CDE" fill-opacity="0.5"/>
<path d="M786.933 524.215L794.105 514.594L815.887 530.831L808.715 540.452L786.933 524.215Z" fill="#FFDE00" fill-opacity="0.5"/>
<path d="M838.912 604.168L826.939 604.973L825.117 577.866L837.09 577.061L838.912 604.168Z" fill="#009CDE" fill-opacity="0.5"/>
<path d="M771.063 668.138L777.765 678.093L755.228 693.265L748.526 683.31L771.063 668.138Z" fill="#009CDE" fill-opacity="0.5"/>
<path d="M821.111 626.88L828.849 636.052L808.084 653.571L800.346 644.399L821.111 626.88Z" fill="#FFDE00" fill-opacity="0.5"/>
<path d="M758.555 496.397L753.937 507.473L728.861 497.018L733.479 485.942L758.555 496.397Z" fill="#009CDE" fill-opacity="0.5"/>
<path d="M786.933 524.215L794.105 514.594L815.887 530.831L808.715 540.452L786.933 524.215Z" fill="#FFDE00" fill-opacity="0.5"/>
<path d="M838.912 604.168L826.939 604.973L825.117 577.866L837.09 577.061L838.912 604.168Z" fill="#009CDE" fill-opacity="0.5"/>
<path d="M786.933 524.215L794.105 514.594L815.887 530.831L808.715 540.452L786.933 524.215Z" fill="#FFDE00" fill-opacity="0.5"/>
<path d="M838.912 604.168L826.939 604.973L825.117 577.866L837.09 577.061L838.912 604.168Z" fill="#009CDE" fill-opacity="0.5"/>
<path d="M771.063 668.138L777.765 678.093L755.228 693.265L748.526 683.31L771.063 668.138Z" fill="#009CDE" fill-opacity="0.5"/>
<path d="M817.319 1032.86L825.057 1042.04L804.292 1059.55L796.554 1050.38L817.319 1032.86Z" fill="#FFDE00" fill-opacity="0.5"/>
<path d="M754.763 902.38L750.145 913.456L725.07 903.001L729.687 891.925L754.763 902.38Z" fill="#009CDE" fill-opacity="0.5"/>
<path d="M783.141 930.199L790.313 920.578L812.095 936.814L804.924 946.436L783.141 930.199Z" fill="#FFDE00" fill-opacity="0.5"/>
<path d="M835.12 1010.15L823.147 1010.96L821.326 983.848L833.298 983.044L835.12 1010.15Z" fill="#009CDE" fill-opacity="0.5"/>
<path d="M783.141 930.199L790.313 920.578L812.095 936.814L804.924 946.436L783.141 930.199Z" fill="#FFDE00" fill-opacity="0.5"/>
<path d="M835.12 1010.15L823.147 1010.96L821.326 983.848L833.298 983.044L835.12 1010.15Z" fill="#009CDE" fill-opacity="0.5"/>
<path d="M767.272 1074.12L773.973 1084.08L751.436 1099.25L744.735 1089.29L767.272 1074.12Z" fill="#009CDE" fill-opacity="0.5"/>
<path d="M243.582 231C283.327 231 315.547 197.421 315.547 156C315.547 114.579 283.327 81 243.582 81C203.836 81 171.616 114.579 171.616 156C171.616 197.421 203.836 231 243.582 231Z" fill="#C486FA"/>
<path d="M1264.81 623.186C1265.08 644.912 1283.66 662.295 1306.3 662.011C1328.94 661.728 1347.08 643.886 1346.8 622.16C1346.53 600.435 1327.96 583.052 1305.32 583.335C1282.67 583.618 1264.54 601.46 1264.81 623.186Z" fill="#C486FA"/>
<path d="M143.963 81C159.066 81 171.31 68.2401 171.31 52.5C171.31 36.7599 159.066 24 143.963 24C128.86 24 116.616 36.7599 116.616 52.5C116.616 68.2401 128.86 81 143.963 81Z" fill="#8D23DE"/>
<path d="M1181.3 742.899C1181.73 777.138 1209.83 804.547 1244.07 804.118C1278.31 803.69 1305.72 775.587 1305.29 741.348C1304.86 707.109 1276.76 679.7 1242.52 680.128C1208.28 680.556 1180.87 708.66 1181.3 742.899Z" fill="#AD58F4"/>
<path d="M126.124 346.654C190.985 344.618 241.846 288.17 239.725 220.574C237.604 152.978 183.304 99.8299 118.442 101.865C53.5807 103.901 2.7196 160.348 4.84084 227.945C6.96208 295.541 61.2623 348.689 126.124 346.654Z" fill="#AD58F4"/>
<path d="M1026.42 673.331C1027.2 736.01 1078.65 786.186 1141.33 785.402C1204.01 784.618 1254.19 733.171 1253.4 670.491C1252.62 607.812 1201.17 557.636 1138.49 558.42C1075.81 559.204 1025.64 610.651 1026.42 673.331Z" fill="#8D23DE"/>
<path d="M1393.5 272.921C1419.18 272.921 1440 251.225 1440 224.461C1440 197.697 1419.18 176 1393.5 176C1367.82 176 1347 197.697 1347 224.461C1347 251.225 1367.82 272.921 1393.5 272.921Z" fill="#F4409C"/>
<path d="M220.22 972.826C211.585 948.64 184.979 936.033 160.793 944.668C136.607 953.303 124 979.91 132.635 1004.1C141.27 1028.28 167.877 1040.89 192.063 1032.25C216.249 1023.62 228.855 997.012 220.22 972.826Z" fill="#F4409C"/>
<path d="M1320.98 248C1320.98 282.242 1294.35 310 1261.49 310C1228.64 310 1202 282.242 1202 248C1202 213.758 1228.64 186 1261.49 186C1294.35 186 1320.98 213.758 1320.98 248Z" fill="#FB6BB8"/>
<path d="M271.072 1025.24C303.32 1013.73 338.418 1029.48 349.465 1060.42C360.512 1091.36 343.327 1125.78 311.079 1137.3C278.83 1148.81 243.732 1133.06 232.685 1102.12C221.638 1071.17 238.823 1036.75 271.072 1025.24Z" fill="#FB6BB8"/>
<path d="M1403.07 467C1461.1 467 1508.14 417.975 1508.14 357.5C1508.14 297.025 1461.1 248 1403.07 248C1345.04 248 1298 297.025 1298 357.5C1298 417.975 1345.04 467 1403.07 467Z" fill="#D92378"/>
<path d="M448.23 870.124C427.896 813.17 365.241 783.484 308.287 803.818C251.333 824.153 221.647 886.807 241.981 943.761C262.315 1000.72 324.97 1030.4 381.924 1010.07C438.878 989.733 468.564 927.078 448.23 870.124Z" fill="#D92378"/>
<path d="M720 -81L719.974 1921" stroke="#8D23DE" stroke-width="3"/>
<path d="M719.974 -127.5V1921" stroke="#8D23DE" stroke-width="6"/>
</g>
<defs>
<clipPath id="clip0_522_2">
<rect width="1440" height="1921" fill="white"/>
</clipPath>
</defs>
</svg>
