<svg width="1440" height="239" viewBox="0 0 1440 239" fill="none" xmlns="http://www.w3.org/2000/svg">
<rect y="42" width="1440" height="138" fill="#D92378"/>
<path d="M14 119L21.2225 149.697L41.8834 125.873L34.013 156.41L63.379 144.916L42.2188 168.298L73.5625 171.768L43.96 182.638L70.101 200.276L38.8377 196.144L53.7874 223.911L28.0253 205.723L28.3589 237.257L14 209.18L-0.35894 237.257L-0.0253448 205.723L-25.7874 223.911L-10.8377 196.144L-42.101 200.276L-15.96 182.638L-45.5625 171.768L-14.2188 168.298L-35.379 144.916L-6.01304 156.41L-13.8834 125.873L6.77745 149.697L14 119Z" fill="#FFDE00"/>
<path d="M1423 0L1430.22 30.697L1450.88 6.87264L1443.01 37.4099L1472.38 25.9161L1451.22 49.298L1482.56 52.7678L1452.96 63.6378L1479.1 81.2763L1447.84 77.1442L1462.79 104.911L1437.03 86.7231L1437.36 118.257L1423 90.18L1408.64 118.257L1408.97 86.7231L1383.21 104.911L1398.16 77.1442L1366.9 81.2763L1393.04 63.6378L1363.44 52.7678L1394.78 49.298L1373.62 25.9161L1402.99 37.4099L1395.12 6.87264L1415.78 30.697L1423 0Z" fill="#FFDE00"/>
</svg>
