<svg width="434" height="513" viewBox="0 0 434 513" fill="none" xmlns="http://www.w3.org/2000/svg">
<g clip-path="url(#clip0_661_250)">
<path opacity="0.2" d="M282.26 432.028C257.95 447.443 237.698 459.762 227.182 460.127C218.86 460.395 215.35 455.424 214.814 451.11C214.607 449.403 213.989 447.772 213.013 446.356C212.037 444.94 210.731 443.783 209.209 442.983C201.191 438.34 184.838 440.168 172.909 447.101C160.98 454.035 157.763 463.405 165.781 468.048C168.072 469.352 172.349 471.009 179.867 471.265C187.385 471.521 195.915 473.629 195.525 478.393C194.794 486.387 176.723 496.44 145.565 512.451C139.473 508.905 133.831 505.554 128.896 502.532C110.484 491.395 98.3596 484.071 86.613 484.693C76.5358 485.229 70.8696 491.297 69.0418 496.33C67.751 499.622 65.3444 502.357 62.2425 504.055C54.1271 508.771 39.9069 508.198 30.5607 502.764C21.2146 497.329 20.2154 489.141 28.3308 484.486C30.6217 483.158 34.8012 481.403 41.7346 480.574C50.4471 479.514 60.963 476.236 61.8891 470.436C63.1076 463.539 47.8029 455.083 26.6736 443.373C21.4462 440.497 15.9993 437.512 10.4672 434.295L18.6557 429.421C46.5722 412.909 56.8566 405.781 69.1881 405.452C77.4375 405.184 80.9834 410.156 81.5195 414.469C81.7255 416.17 82.3393 417.797 83.3089 419.21C84.2784 420.623 85.575 421.78 87.0882 422.585C95.1427 427.227 111.459 425.412 123.425 418.478C135.391 411.545 138.583 402.162 130.529 397.519C128.238 396.191 123.985 394.571 116.467 394.278C108.949 393.986 100.419 391.914 100.845 387.15C101.54 378.791 119.123 368.653 147.43 354.006L153.522 357.552C179.185 372.442 194.733 381.423 208.624 380.704C218.665 380.18 224.368 374.112 226.195 369.067C227.47 365.776 229.865 363.04 232.958 361.341C241.086 356.638 255.342 357.235 264.64 362.633C273.937 368.031 275.01 376.268 266.894 380.911C264.603 382.239 260.424 383.994 253.49 384.786C244.802 385.858 234.323 389.173 233.336 394.936C232.117 402.601 248.616 412.605 272.183 426.24L282.26 432.028Z" fill="black"/>
<path opacity="0.2" d="M381.521 377.584C381.058 383.384 390.843 385.846 399.36 386.114C406.123 386.419 409.9 387.844 411.899 388.965C418.954 393.047 415.871 401.431 405.026 407.67C394.181 413.909 379.73 415.688 372.674 411.606C371.337 410.886 370.195 409.853 369.346 408.594C368.497 407.335 367.967 405.889 367.8 404.38C367.24 399.445 363.024 393.803 352.946 394.071C341.37 394.4 326.882 404.745 305.034 418.113C298.807 421.951 291.74 426.264 284.209 430.712L278.97 427.702C254.343 413.519 234.908 402.308 236.102 394.802C236.894 389.989 246.082 387.235 253.673 386.272C261.264 385.31 266.078 383.36 268.698 381.825C277.983 376.488 277.118 367.202 266.736 361.28C256.354 355.358 240.379 354.773 231.094 360.062C227.594 361.971 224.874 365.045 223.405 368.75C221.845 373.161 217.044 378.437 208.722 378.9C196.012 379.595 180.769 370.773 155.569 356.187L150.159 353.031C158.019 349.022 165.586 345.306 172.312 342.064C195.354 330.793 210.574 323.335 211.134 316.707C211.597 310.894 201.825 308.445 193.295 308.116C186.532 307.848 182.755 306.422 180.769 305.301C173.701 301.219 176.784 292.824 187.592 286.597C198.401 280.37 212.926 278.567 219.993 282.649C221.327 283.372 222.467 284.406 223.316 285.664C224.165 286.922 224.697 288.367 224.867 289.875C225.44 294.749 229.68 300.451 239.721 300.196C251.005 299.854 258.06 294.785 278.153 280.992C284.721 276.483 291.557 271.84 298.868 267.003C304.413 270.22 309.835 273.205 315.087 276.081C334.949 287.048 350.631 295.785 349.596 301.975C348.84 306.751 339.652 309.542 332.061 310.504C324.47 311.467 319.595 313.417 317.012 314.915C307.69 320.289 308.592 329.538 318.962 335.533C329.331 341.528 345.355 342.04 354.677 336.666C358.162 334.751 360.869 331.678 362.329 327.978C363.518 325.03 365.547 322.496 368.164 320.691C370.781 318.887 373.871 317.891 377.049 317.828C387.528 317.267 399.397 324.432 417.26 335.277C422.269 338.323 427.947 341.735 434.137 345.318C428.337 348.303 422.707 351.118 417.468 353.774C391.732 366.776 382.118 370.432 381.521 377.584Z" fill="black"/>
<path d="M211.146 282.796C211.61 276.996 201.825 274.546 193.307 274.205C186.544 273.949 182.767 272.524 180.769 271.39C179.66 270.862 178.719 270.037 178.05 269.007C177.381 267.977 177.01 266.782 176.979 265.554V295.822C177.012 297.048 177.382 298.241 178.048 299.271C178.715 300.3 179.652 301.126 180.756 301.659C181.537 302.099 182.352 302.474 183.193 302.78C200.07 294.408 210.671 288.316 211.146 282.796Z" fill="#37474F"/>
<path d="M208.722 345.025V375.305C217.044 374.842 221.857 369.566 223.405 365.155V334.887C221.857 339.298 217.044 344.562 208.722 345.025Z" fill="#455A64"/>
<path d="M155.569 322.325L150.171 319.169V349.449L155.569 352.605C180.769 367.228 196.025 376.013 208.722 375.319V345.026C196.025 345.733 180.769 336.911 155.569 322.325Z" fill="#263238"/>
<path d="M266.748 327.357C256.403 321.362 240.391 320.862 231.106 326.199C227.605 328.11 224.882 331.183 223.405 334.887V365.168C224.882 361.463 227.605 358.39 231.106 356.48C236.139 353.592 243.157 352.422 250.176 352.909C251.394 352.678 252.54 352.495 253.673 352.361C261.374 351.435 266.078 349.437 268.698 347.914C277.983 342.576 277.118 333.328 266.748 327.357Z" fill="#37474F"/>
<path d="M317.061 280.98C319.656 279.481 324.433 277.495 332.122 276.569C339.811 275.643 348.901 272.852 349.657 268.039C349.7 267.847 349.721 267.651 349.717 267.454V297.783C349.736 297.961 349.736 298.141 349.717 298.319C349.072 302.401 342.297 305.009 335.607 306.289C329.819 305.965 324.178 304.35 319.096 301.561C308.653 295.59 307.764 286.353 317.061 280.98Z" fill="#37474F"/>
<path d="M278.97 393.707C255.05 379.925 236.029 368.946 236.065 361.501V391.794C236.065 399.251 255.074 410.218 278.97 423.987L284.185 427.009V396.716L278.97 393.707Z" fill="#263238"/>
<path d="M405.038 373.674C394.23 379.949 379.742 381.704 372.674 377.622L372.187 407.622L372.674 407.902C379.742 411.984 394.23 410.23 405.038 403.966C411.96 399.982 415.701 395.12 415.676 391.062V361.025C415.579 365.034 411.862 369.774 405.038 373.674Z" fill="#455A64"/>
<path d="M367.764 370.432C367.203 365.485 362.999 359.855 352.91 360.123V390.404C362.999 390.136 367.203 395.778 367.764 400.713C367.921 402.131 368.401 403.495 369.168 404.7C369.935 405.904 370.968 406.916 372.187 407.658L372.674 377.658C371.331 376.943 370.181 375.911 369.325 374.652C368.47 373.393 367.934 371.945 367.764 370.432Z" fill="#37474F"/>
<path d="M305.01 384.116C298.759 387.967 291.716 392.28 284.185 396.716V427.008C291.716 422.561 298.807 418.247 305.01 414.409C326.858 401.005 341.346 390.696 352.91 390.367V360.087C341.346 360.416 326.858 370.761 305.01 384.116Z" fill="#455A64"/>
<path d="M434.247 311.382V341.662C428.446 344.648 422.805 347.462 417.565 350.119C414.787 351.508 412.203 352.8 409.779 353.994C406.433 352.815 402.919 352.186 399.372 352.129C390.843 351.825 381.094 349.376 381.533 343.6C382.13 336.471 391.744 332.816 417.565 319.851C422.829 317.182 428.446 314.379 434.247 311.382Z" fill="#455A64"/>
<path d="M381.521 343.624C381.058 349.424 390.843 351.873 399.36 352.154C406.123 352.446 409.9 353.872 411.899 355.005C418.954 359.087 415.871 367.471 405.026 373.709C394.181 379.948 379.73 381.727 372.674 377.645C371.337 376.926 370.195 375.892 369.346 374.634C368.497 373.375 367.967 371.929 367.8 370.419C367.24 365.484 363.024 359.843 352.946 360.111C341.37 360.44 326.882 370.785 305.034 384.152C298.807 387.991 291.74 392.304 284.209 396.752L279.006 393.73C254.38 379.534 234.944 368.336 236.138 360.83C236.93 356.016 246.118 353.263 253.71 352.3C261.301 351.337 266.114 349.388 268.734 347.852C278.019 342.515 277.154 333.23 266.772 327.296C256.39 321.361 240.415 320.801 231.13 326.138C227.631 328.047 224.911 331.121 223.441 334.826C221.882 339.237 217.081 344.513 208.758 344.977C196.049 345.671 180.805 336.849 155.606 322.263L150.196 319.107C158.055 315.098 165.622 311.382 172.349 308.14C195.391 296.869 210.61 289.412 211.171 282.771C211.634 276.971 201.861 274.521 193.332 274.241C186.569 273.973 182.791 272.547 180.805 271.414C173.738 267.344 176.821 258.949 187.629 252.722C198.437 246.495 212.962 244.692 220.03 248.774C221.364 249.497 222.504 250.531 223.353 251.789C224.201 253.047 224.733 254.492 224.904 256C225.476 260.874 229.717 266.576 239.757 266.308C251.041 265.979 258.096 260.91 278.19 247.117C284.758 242.608 291.594 237.965 298.905 233.128C304.449 236.345 309.872 239.33 315.123 242.206C334.985 253.173 350.668 261.91 349.632 268.1C348.877 272.876 339.689 275.667 332.097 276.629C324.506 277.592 319.632 279.542 317.049 281.04C307.727 286.414 308.629 295.663 318.998 301.658C329.368 307.653 345.392 308.165 354.713 302.791C358.199 300.876 360.906 297.803 362.366 294.103C363.55 291.144 365.581 288.6 368.203 286.788C370.825 284.976 373.923 283.978 377.11 283.916C387.589 283.356 399.458 290.521 417.321 301.353C422.329 304.412 428.008 307.824 434.198 311.406C428.398 314.391 422.768 317.206 417.528 319.863C391.732 332.803 382.118 336.447 381.521 343.624Z" fill="#455A64"/>
<path d="M299.015 235.967C303.889 238.746 308.568 241.353 313.162 243.876L314.015 244.339C324.043 249.907 332.695 254.696 338.873 258.961C346.83 264.457 347.402 266.894 347.256 267.71C346.842 270.318 340.055 273.157 331.829 274.156C323.604 275.155 318.645 277.276 315.855 278.884C310.907 281.723 308.19 285.769 308.19 290.253C308.19 295.273 311.687 300.184 317.804 303.718C324.202 307.185 331.377 308.968 338.653 308.896C344.671 309.044 350.627 307.651 355.956 304.851C359.945 302.656 363.033 299.127 364.681 294.883C366.021 291.228 370.128 286.744 377.244 286.354C377.585 286.354 377.926 286.354 378.28 286.354C387.833 286.354 399.689 293.531 416.054 303.413C419.588 305.57 424.072 308.287 429.117 311.248L421.184 315.257L416.432 317.694C412.776 319.51 409.535 321.13 406.537 322.568C387.041 332.243 379.73 335.862 379.06 343.368C378.98 344.356 379.107 345.349 379.432 346.284C379.758 347.22 380.274 348.078 380.948 348.803C385.189 353.568 395.156 354.408 399.226 354.555C405.465 354.823 408.889 356.078 410.656 357.077C411.391 357.399 412.021 357.92 412.475 358.581C412.93 359.242 413.19 360.017 413.227 360.818C413.227 364.047 409.572 368.263 403.783 371.565C397.385 375.237 390.164 377.236 382.788 377.378C379.695 377.521 376.616 376.87 373.844 375.489C372.837 374.967 371.975 374.202 371.337 373.264C370.699 372.326 370.304 371.244 370.189 370.115C369.531 364.352 364.791 357.625 353.58 357.625H352.837C342.467 357.918 330.404 365.448 313.698 375.903C310.517 377.877 307.227 379.924 303.718 382.069C296.407 386.602 290.119 390.391 284.161 393.925L280.188 391.622C268.259 384.75 257.036 378.218 249.262 372.784C239.416 365.826 238.295 362.572 238.502 361.269C238.953 358.612 245.594 355.834 253.966 354.81C262.081 353.823 267.126 351.679 269.916 350.058C274.851 347.219 277.568 343.186 277.568 338.702C277.568 333.681 274.059 328.783 267.966 325.298C261.566 321.825 254.386 320.043 247.105 320.119C241.113 319.971 235.183 321.355 229.875 324.14C225.879 326.345 222.776 329.874 221.102 334.12C219.81 337.775 215.74 342.247 208.588 342.65H207.308C195.513 342.65 180.939 334.205 156.8 320.229L155.253 319.327C161.76 316.049 167.986 312.991 173.384 310.371C198.011 298.32 212.889 291.045 213.596 283.003C213.67 282.018 213.541 281.028 213.216 280.095C212.891 279.162 212.378 278.306 211.707 277.58C207.491 272.828 197.511 271.951 193.429 271.792C187.202 271.548 183.778 270.293 182.024 269.355C181.287 269.035 180.654 268.515 180.197 267.854C179.741 267.193 179.479 266.417 179.44 265.614C179.44 262.385 183.096 258.181 188.847 254.879C195.26 251.209 202.492 249.21 209.879 249.067C212.971 248.925 216.049 249.57 218.823 250.943C219.828 251.471 220.687 252.239 221.325 253.179C221.963 254.118 222.359 255.2 222.479 256.329C223.137 262.081 227.877 268.807 239.075 268.807H239.818C251.48 268.466 258.657 263.543 277.837 250.37L279.555 249.152C284.721 245.606 291.521 240.963 299.051 236.016M298.966 233.153C291.655 238.027 284.782 242.633 278.251 247.141C258.084 260.886 251.017 265.955 239.745 266.284H239.075C229.51 266.284 225.452 260.765 224.892 255.964C224.721 254.456 224.189 253.011 223.341 251.753C222.492 250.495 221.352 249.46 220.017 248.738C216.875 247.157 213.382 246.402 209.867 246.544C202.057 246.679 194.406 248.774 187.617 252.637C176.808 258.864 173.726 267.259 180.793 271.329C182.779 272.462 186.557 273.888 193.319 274.156C201.849 274.485 211.597 276.934 211.159 282.686C210.598 289.327 195.318 296.784 172.336 308.056C165.61 311.333 158.043 315.05 150.184 319.022L155.594 322.178C179.867 336.228 194.904 344.928 207.333 344.928H208.746C217.069 344.465 221.87 339.189 223.429 334.778C224.899 331.072 227.619 327.999 231.118 326.09C236.059 323.533 241.569 322.275 247.13 322.434C253.982 322.36 260.739 324.038 266.76 327.308C277.142 333.279 278.007 342.528 268.722 347.865C266.102 349.4 261.411 351.386 253.698 352.312C245.984 353.239 236.918 355.968 236.126 360.842C234.908 368.3 254.404 379.498 278.994 393.742L284.197 396.764C291.728 392.317 298.82 388.003 305.022 384.165C326.87 370.761 341.358 360.452 352.934 360.123H353.617C363.207 360.123 367.24 365.619 367.788 370.444C367.954 371.953 368.485 373.4 369.334 374.658C370.183 375.917 371.325 376.951 372.662 377.67C375.798 379.257 379.288 380.017 382.8 379.876C390.599 379.74 398.238 377.645 405.014 373.783C415.859 367.544 418.942 359.161 411.887 355.079C409.888 353.945 406.111 352.52 399.348 352.227C390.818 351.923 381.07 349.473 381.509 343.697C382.106 336.569 391.72 332.926 417.553 319.961C422.793 317.304 428.422 314.489 434.222 311.504C428.032 307.922 422.354 304.51 417.358 301.451C400.116 290.887 388.479 283.917 378.28 283.917H377.061C373.883 283.98 370.793 284.975 368.176 286.78C365.559 288.585 363.53 291.119 362.341 294.067C360.881 297.766 358.175 300.839 354.689 302.755C349.73 305.341 344.195 306.62 338.604 306.471C331.753 306.546 324.995 304.868 318.974 301.597C308.604 295.602 307.703 286.354 317.024 280.98C319.608 279.481 324.336 277.495 332.073 276.569C339.811 275.643 348.852 272.852 349.608 268.039C350.644 261.849 334.985 253.161 315.099 242.145C309.859 239.27 304.425 236.284 298.88 233.067L298.966 233.153Z" fill="#37474F"/>
<path d="M282.26 398.019C257.95 413.434 237.698 425.753 227.182 426.119C218.86 426.387 215.35 421.415 214.814 417.102C214.609 415.394 213.992 413.761 213.016 412.345C212.039 410.929 210.733 409.772 209.209 408.974C201.191 404.331 184.838 406.159 172.909 413.093C160.98 420.026 157.763 429.396 165.781 434.039C168.072 435.331 172.349 436.988 179.867 437.256C187.385 437.524 195.915 439.608 195.525 444.384C194.794 452.378 176.723 462.419 145.565 478.442C139.473 474.896 133.831 471.545 128.896 468.523C110.484 457.386 98.3596 450.063 86.613 450.684C76.5358 451.22 70.8696 457.289 69.0418 462.321C67.751 465.614 65.3444 468.348 62.2425 470.047C54.1271 474.762 39.9069 474.19 30.5607 468.755C21.2146 463.32 20.2154 455.132 28.3308 450.477C30.6217 449.149 34.8012 447.394 41.7346 446.566C50.4471 445.505 60.963 442.228 61.8891 436.427C63.1076 429.531 47.8029 421.074 26.6736 409.364C21.4462 406.488 15.9993 403.503 10.4672 400.286L18.6557 395.412C46.5722 378.901 56.8566 371.772 69.1881 371.431C77.4375 371.175 80.9834 376.147 81.5195 380.46C81.7255 382.162 82.3393 383.788 83.3089 385.201C84.2784 386.614 85.575 387.772 87.0882 388.576C95.1427 393.218 111.459 391.403 123.425 384.469C135.391 377.536 138.583 368.153 130.529 363.511C128.238 362.183 123.985 360.562 116.467 360.269C108.949 359.977 100.419 357.905 100.845 353.141C101.54 344.782 119.123 334.644 147.43 319.997L153.522 323.543C179.185 338.433 194.733 347.414 208.624 346.695C218.665 346.171 224.368 340.103 226.195 335.058C227.47 331.767 229.865 329.031 232.958 327.333C241.086 322.629 255.342 323.226 264.64 328.624C273.937 334.022 275.01 342.26 266.894 346.963C264.603 348.291 260.424 350.046 253.49 350.838C244.802 351.898 234.323 355.225 233.336 360.988C232.117 368.653 248.616 378.657 272.183 392.292L282.26 398.019Z" fill="#FAFAFA"/>
<path d="M147.283 322.752L152.255 325.628C177.503 340.25 192.735 349.109 206.93 349.109C207.527 349.109 208.149 349.109 208.709 349.109C219.956 348.512 226.366 341.603 228.45 335.863C229.529 333.112 231.544 330.83 234.14 329.417C238.023 327.407 242.357 326.425 246.727 326.566C252.559 326.506 258.309 327.936 263.433 330.721C267.576 333.158 269.953 336.107 269.965 338.946C269.977 341.785 267.637 343.625 265.639 344.844C263.641 346.062 259.668 347.671 253.137 348.414C248.263 348.999 232.422 351.619 230.862 360.599C229.339 369.86 245.082 379.474 270.915 394.401L277.495 398.191C255.367 412.167 236.492 423.427 227.06 423.78H226.5C220.261 423.78 217.592 420.222 217.19 416.907C216.944 414.823 216.197 412.829 215.013 411.095C213.829 409.361 212.243 407.94 210.391 406.952C206.387 404.867 201.914 403.843 197.401 403.979C188.376 404.117 179.531 406.522 171.678 410.973C163.563 415.652 158.908 421.574 158.908 427.228C158.908 430.884 160.907 434.052 164.574 436.16C168.242 438.268 173.433 439.475 179.757 439.694C185.85 439.938 191.065 441.327 192.674 443.142C192.813 443.273 192.922 443.432 192.993 443.609C193.065 443.785 193.097 443.976 193.088 444.166C192.466 450.978 172.215 461.981 145.565 475.665C140.374 472.655 135.183 469.572 130.078 466.441C111.946 455.474 99.968 448.163 87.9533 448.163C87.4416 448.163 86.9298 448.163 86.418 448.163C75.171 448.748 68.7615 455.657 66.69 461.384C65.5889 464.14 63.5587 466.425 60.9508 467.842C57.065 469.859 52.7269 470.844 48.3512 470.705C42.5448 470.803 36.8087 469.424 31.6818 466.697C27.5509 464.259 25.1748 461.323 25.1748 458.484C25.1748 455.644 27.5144 453.744 29.4762 452.61C31.4381 451.477 35.4226 449.796 41.9052 449.016C46.7793 448.419 62.742 445.799 64.1677 436.83C65.6177 428.228 51.361 420.332 27.7337 407.232L26.8929 406.769C23.079 404.673 19.1553 402.517 15.1829 400.25L16.9741 399.178L19.7767 397.509L29.4153 391.781C49.7038 379.669 58.9646 374.149 69.1393 373.869H69.6876C75.9143 373.869 78.5707 377.427 78.9728 380.729C79.2116 382.813 79.9529 384.808 81.1331 386.542C82.3132 388.276 83.8968 389.698 85.7478 390.685C89.7875 392.763 94.2955 393.762 98.8348 393.585C107.862 393.452 116.71 391.042 124.558 386.578C132.673 381.899 137.328 375.989 137.328 370.335C137.328 366.68 135.305 363.512 131.662 361.404C128.019 359.296 122.901 358.089 116.467 357.833C110.374 357.614 105.208 356.237 103.587 354.397C103.441 354.265 103.33 354.099 103.262 353.915C103.194 353.73 103.172 353.532 103.197 353.337C103.806 346.026 124.253 334.706 147.283 322.776M147.283 319.998C118.965 334.62 101.394 344.783 100.699 353.142C100.273 357.906 108.827 360.002 116.321 360.27C123.815 360.538 128.092 362.183 130.37 363.512C138.437 368.154 135.244 377.573 123.278 384.47C115.819 388.71 107.414 391.006 98.8348 391.148C94.7362 391.313 90.6633 390.428 87.0029 388.577C85.4897 387.773 84.1931 386.615 83.2236 385.202C82.254 383.789 81.6401 382.163 81.4342 380.461C80.9103 376.257 77.5349 371.432 69.7242 371.432H69.1027C56.7712 371.773 46.4869 378.902 18.5704 395.413L10.3819 400.287C15.914 403.504 21.3486 406.489 26.5883 409.365C47.7176 421.075 62.9613 429.531 61.8037 436.428C60.8777 442.228 50.3618 445.506 41.6493 446.566C34.7524 447.395 30.5729 449.15 28.2455 450.478C20.1301 455.157 21.0928 463.382 30.4754 468.756C35.9605 471.757 42.1236 473.301 48.3756 473.24C53.1791 473.378 57.9375 472.279 62.1937 470.047C65.2956 468.349 67.7022 465.615 68.9931 462.322C70.8209 457.289 76.487 451.221 86.5642 450.685C87.0394 450.685 87.5025 450.685 87.9777 450.685C99.2856 450.685 111.13 457.862 128.847 468.561C133.721 471.583 139.387 474.934 145.517 478.48C176.686 462.456 194.757 452.415 195.476 444.422C195.866 439.645 187.312 437.598 179.818 437.293C172.324 436.989 168.023 435.368 165.732 434.077C157.714 429.434 160.858 420.027 172.86 413.13C180.331 408.875 188.756 406.578 197.353 406.453C201.442 406.288 205.506 407.168 209.16 409.011C210.684 409.81 211.99 410.967 212.967 412.383C213.943 413.799 214.561 415.431 214.765 417.139C215.289 421.343 218.628 426.168 226.5 426.168H227.134C237.649 425.803 257.901 413.483 282.211 398.069L272.122 392.269C248.555 378.634 232.008 368.629 233.275 360.965C234.262 355.201 244.741 351.875 253.429 350.815C260.387 350.023 264.567 348.268 266.833 346.94C274.949 342.236 273.962 334.011 264.579 328.601C259.102 325.626 252.96 324.088 246.727 324.129C241.929 323.992 237.176 325.087 232.922 327.309C229.828 329.008 227.433 331.744 226.159 335.035C224.331 340.079 218.628 346.148 208.588 346.672C208.039 346.672 207.491 346.672 206.93 346.672C193.453 346.672 178.137 337.813 153.486 323.52L147.393 319.974L147.283 319.998Z" fill="#D92378"/>
<path d="M26.6005 439.62C21.3608 436.744 15.914 433.759 10.3819 430.542V400.262C15.914 403.479 21.3486 406.452 26.6005 409.34C47.7176 421.05 62.9614 429.494 61.8038 436.391C60.8777 442.203 50.3618 445.481 41.6493 446.541C40.8938 446.627 40.1749 446.736 39.4925 446.846C35.5445 444.58 31.2065 442.179 26.6005 439.62Z" fill="#D92378"/>
<path opacity="0.2" d="M26.6005 439.62C21.3608 436.744 15.914 433.759 10.3819 430.542V400.262C15.914 403.479 21.3486 406.452 26.6005 409.34C47.7176 421.05 62.9614 429.494 61.8038 436.391C60.8777 442.203 50.3618 445.481 41.6493 446.541C40.8938 446.627 40.1749 446.736 39.4925 446.846C35.5445 444.58 31.2065 442.179 26.6005 439.62Z" fill="black"/>
<path d="M109.667 389.77C104.586 388.77 100.443 386.748 100.748 383.397V353.445C100.748 357.978 109.07 359.989 116.382 360.233C123.912 360.537 128.153 362.158 130.443 363.486C138.498 368.129 135.317 377.548 123.339 384.445C119.087 386.868 114.507 388.666 109.741 389.782L109.667 389.77Z" fill="#D92378"/>
<path opacity="0.1" d="M109.667 389.77C104.586 388.77 100.443 386.748 100.748 383.397V353.445C100.748 357.978 109.07 359.989 116.382 360.233C123.912 360.537 128.153 362.158 130.443 363.486C138.498 368.129 135.317 377.548 123.339 384.445C119.087 386.868 114.507 388.666 109.741 389.782L109.667 389.77Z" fill="black"/>
<path d="M30.4632 468.755C25.3332 465.806 22.7256 462.017 22.7378 458.422V488.629C22.7378 492.285 25.2967 496.038 30.451 498.999C39.8337 504.446 54.0539 505.006 62.1328 500.303V470.047C54.1148 474.762 39.8946 474.19 30.4632 468.755Z" fill="#D92378"/>
<path opacity="0.1" d="M30.4632 468.755C25.3332 465.806 22.7256 462.017 22.7378 458.422V488.629C22.7378 492.285 25.2967 496.038 30.451 498.999C39.8337 504.446 54.0539 505.006 62.1328 500.303V470.047C54.1148 474.762 39.8946 474.19 30.4632 468.755Z" fill="black"/>
<path d="M62.2424 470.046V500.338C65.3346 498.631 67.7347 495.899 69.0296 492.613V462.32C67.7392 465.609 65.3378 468.343 62.2424 470.046Z" fill="#D92378"/>
<path d="M62.2424 470.046V500.338C65.3346 498.631 67.7347 495.899 69.0296 492.613V462.32C67.7392 465.609 65.3378 468.343 62.2424 470.046Z" fill="#D92378"/>
<path d="M128.884 468.524C110.484 457.386 98.3474 450.051 86.6008 450.685C76.5236 451.221 70.8574 457.289 69.0296 462.321V492.614C70.8574 487.569 76.5236 481.501 86.6008 480.965C98.3474 480.343 110.484 487.667 128.884 498.804C133.758 501.826 139.424 505.177 145.553 508.723V478.443C139.424 474.885 133.819 471.57 128.884 468.524Z" fill="#D92378"/>
<path opacity="0.2" d="M128.884 468.524C110.484 457.386 98.3474 450.051 86.6008 450.685C76.5236 451.221 70.8574 457.289 69.0296 462.321V492.614C70.8574 487.569 76.5236 481.501 86.6008 480.965C98.3474 480.343 110.484 487.667 128.884 498.804C133.758 501.826 139.424 505.177 145.553 508.723V478.443C139.424 474.885 133.819 471.57 128.884 468.524Z" fill="black"/>
<path d="M145.553 478.443V508.723C176.723 492.712 194.794 482.659 195.513 474.665V444.385C194.794 452.378 176.686 462.419 145.553 478.443Z" fill="#D92378"/>
<path d="M233.324 360.915C234.323 355.139 244.802 351.825 253.478 350.765C260.448 349.973 264.628 348.218 266.882 346.89C270.537 344.745 272.377 341.894 272.377 338.896V369.079C272.377 372.101 270.635 375.014 266.906 377.17C264.628 378.499 260.448 380.253 253.502 381.045C240.391 372.869 232.434 366.313 233.324 360.915Z" fill="#D92378"/>
<path opacity="0.2" d="M233.324 360.915C234.323 355.139 244.802 351.825 253.478 350.765C260.448 349.973 264.628 348.218 266.882 346.89C270.537 344.745 272.377 341.894 272.377 338.896V369.079C272.377 372.101 270.635 375.014 266.906 377.17C264.628 378.499 260.448 380.253 253.502 381.045C240.391 372.869 232.434 366.313 233.324 360.915Z" fill="black"/>
<path d="M209.221 408.974C201.191 404.332 184.851 406.16 172.909 413.093C160.968 420.026 157.763 429.397 165.781 434.04C168.072 435.331 172.349 436.988 179.867 437.256C182.129 437.339 184.382 437.596 186.605 438.024C195.33 435.977 204.018 436.257 209.221 439.243C210.742 440.041 212.045 441.196 213.02 442.61C213.994 444.024 214.61 445.653 214.814 447.358V417.102C214.612 415.395 213.997 413.763 213.022 412.347C212.048 410.931 210.743 409.773 209.221 408.974Z" fill="#D92378"/>
<path opacity="0.2" d="M209.221 408.974C201.191 404.332 184.851 406.16 172.909 413.093C160.968 420.026 157.763 429.397 165.781 434.04C168.072 435.331 172.349 436.988 179.867 437.256C182.129 437.339 184.382 437.596 186.605 438.024C195.33 435.977 204.018 436.257 209.221 439.243C210.742 440.041 212.045 441.196 213.02 442.61C213.994 444.024 214.61 445.653 214.814 447.358V417.102C214.612 415.395 213.997 413.763 213.022 412.347C212.048 410.931 210.743 409.773 209.221 408.974Z" fill="black"/>
<path d="M227.182 426.119V456.4C237.698 456.034 257.95 443.715 282.26 428.3V398.008C257.95 413.434 237.698 425.754 227.182 426.119Z" fill="#D92378"/>
<path d="M214.814 417.102V447.382C215.35 451.696 218.86 456.667 227.182 456.399V426.119C218.86 426.387 215.35 421.415 214.814 417.102Z" fill="#D92378"/>
<path opacity="0.1" d="M214.814 417.102V447.382C215.35 451.696 218.86 456.667 227.182 456.399V426.119C218.86 426.387 215.35 421.415 214.814 417.102Z" fill="black"/>
<path d="M284.185 396.716V427.009L282.26 425.888V398.008L272.182 392.208C255.026 382.289 241.597 374.283 236.053 367.715V361.501C236.053 368.946 255.038 379.925 278.957 393.707L284.185 396.716Z" fill="#263238"/>
<path d="M417.565 319.839C422.805 317.182 428.434 314.368 434.234 311.382C428.044 307.8 422.366 304.388 417.358 301.329C399.458 290.497 387.589 283.332 377.147 283.892C373.968 283.955 370.879 284.951 368.262 286.756C365.644 288.56 363.615 291.094 362.427 294.042C360.967 297.742 358.26 300.815 354.774 302.731C345.453 308.104 329.441 307.605 319.059 301.597C308.677 295.59 307.788 286.354 317.11 280.98C319.693 279.481 324.421 277.495 332.158 276.569C339.896 275.643 348.938 272.852 349.693 268.039C350.729 261.849 335.071 253.161 315.184 242.145C309.945 239.27 304.51 236.284 298.966 233.067C291.655 237.941 284.782 242.548 278.251 247.056C258.084 260.886 251.017 265.955 239.745 266.284C229.705 266.553 225.464 260.886 224.892 255.976C224.721 254.468 224.189 253.023 223.341 251.765C222.492 250.507 221.352 249.473 220.017 248.75C212.95 244.668 198.462 246.435 187.617 252.698C176.772 258.961 173.726 267.32 180.793 271.39C182.779 272.523 186.557 273.949 193.319 274.217C201.849 274.546 211.597 276.995 211.159 282.747C210.598 289.388 195.318 296.845 172.336 308.116C165.61 311.394 158.043 315.111 150.184 319.083L155.594 322.239C180.793 336.862 196.037 345.647 208.746 344.953C217.069 344.49 221.87 339.213 223.429 334.802C224.899 331.097 227.619 328.023 231.118 326.114C240.403 320.777 256.415 321.24 266.76 327.272C277.105 333.303 278.007 342.491 268.722 347.828C266.102 349.364 261.411 351.35 253.698 352.276C245.984 353.202 236.918 355.931 236.126 360.806C234.908 368.263 254.404 379.461 278.994 393.706L284.197 396.728C291.728 392.28 298.82 387.967 305.022 384.128C326.87 370.724 341.358 360.416 352.934 360.087C363.012 359.819 367.228 365.46 367.788 370.395C367.954 371.905 368.485 373.351 369.334 374.61C370.183 375.868 371.325 376.902 372.662 377.621C379.718 381.703 394.206 379.949 405.014 373.685C415.823 367.422 418.942 359.063 411.887 354.981C409.888 353.848 406.111 352.422 399.348 352.13C390.818 351.825 381.07 349.376 381.509 343.6C382.118 336.447 391.732 332.804 417.565 319.839Z" fill="#FAFAFA"/>
<path d="M299.015 235.967C303.889 238.746 308.568 241.353 313.162 243.876L314.015 244.339C324.043 249.907 332.695 254.696 338.873 258.961C346.83 264.457 347.402 266.894 347.256 267.71C346.842 270.318 340.055 273.157 331.829 274.156C323.604 275.155 318.645 277.276 315.855 278.884C310.907 281.723 308.19 285.769 308.19 290.253C308.19 295.273 311.687 300.184 317.804 303.718C324.202 307.185 331.377 308.968 338.653 308.896C344.671 309.044 350.627 307.651 355.956 304.851C359.945 302.656 363.033 299.127 364.681 294.883C366.021 291.228 370.128 286.744 377.244 286.354C377.585 286.354 377.926 286.354 378.28 286.354C387.833 286.354 399.689 293.531 416.054 303.413C419.588 305.57 424.072 308.287 429.117 311.248L421.196 315.257L416.432 317.694C412.776 319.51 409.535 321.13 406.537 322.568C387.041 332.243 379.73 335.862 379.06 343.368C378.98 344.356 379.107 345.349 379.432 346.284C379.758 347.22 380.274 348.078 380.948 348.803C385.189 353.568 395.156 354.408 399.226 354.555C405.465 354.823 408.889 356.078 410.656 357.077C411.391 357.399 412.021 357.92 412.475 358.581C412.93 359.242 413.19 360.017 413.227 360.818C413.227 364.047 409.572 368.263 403.783 371.565C397.385 375.237 390.164 377.236 382.788 377.378C379.695 377.521 376.616 376.87 373.844 375.489C372.837 374.967 371.975 374.202 371.337 373.264C370.699 372.326 370.304 371.244 370.189 370.115C369.531 364.352 364.791 357.625 353.592 357.625H352.837C342.467 357.918 330.404 365.448 313.698 375.903C310.517 377.877 307.227 379.924 303.718 382.069C296.407 386.614 290.119 390.404 284.161 393.925L280.188 391.622C268.259 384.75 257.036 378.218 249.262 372.784C239.416 365.826 238.295 362.572 238.502 361.269C238.953 358.612 245.594 355.834 253.966 354.81C262.081 353.823 267.126 351.679 269.916 350.058C274.851 347.219 277.568 343.186 277.568 338.702C277.568 333.681 274.059 328.783 267.966 325.298C261.566 321.825 254.386 320.043 247.105 320.119C241.113 319.971 235.183 321.355 229.875 324.14C225.879 326.345 222.776 329.874 221.102 334.12C219.81 337.775 215.74 342.247 208.588 342.65C208.161 342.65 207.735 342.65 207.296 342.65C195.513 342.65 180.939 334.205 156.8 320.229L155.253 319.339C161.76 316.049 167.986 312.991 173.384 310.371C198.011 298.32 212.889 291.045 213.596 283.003C213.67 282.018 213.541 281.028 213.216 280.095C212.891 279.162 212.378 278.306 211.707 277.58C207.491 272.84 197.511 271.951 193.429 271.792C187.202 271.548 183.778 270.293 182.024 269.355C181.287 269.035 180.654 268.515 180.197 267.854C179.741 267.193 179.479 266.417 179.44 265.614C179.44 262.385 183.096 258.181 188.847 254.879C195.26 251.209 202.492 249.21 209.879 249.067C212.971 248.925 216.049 249.57 218.823 250.943C219.828 251.471 220.687 252.239 221.325 253.179C221.963 254.118 222.359 255.2 222.479 256.329C223.137 262.081 227.877 268.807 239.075 268.807H239.818C251.48 268.466 258.657 263.543 277.837 250.37L279.555 249.152C284.721 245.606 291.521 240.963 299.051 236.016M298.966 233.153C291.655 238.027 284.782 242.633 278.251 247.141C258.084 260.886 251.017 265.955 239.745 266.284H239.075C229.51 266.284 225.452 260.765 224.892 255.964C224.721 254.456 224.189 253.011 223.341 251.753C222.492 250.495 221.352 249.46 220.017 248.738C216.875 247.157 213.382 246.402 209.867 246.544C202.057 246.679 194.406 248.774 187.617 252.637C176.808 258.864 173.726 267.259 180.793 271.329C182.779 272.462 186.557 273.888 193.319 274.156C201.849 274.485 211.597 276.934 211.159 282.686C210.598 289.327 195.318 296.784 172.336 308.056C165.61 311.333 158.043 315.05 150.184 319.022L155.594 322.178C179.867 336.228 194.904 344.928 207.32 344.928C207.808 344.928 208.271 344.928 208.746 344.928C217.069 344.465 221.87 339.189 223.429 334.778C224.899 331.072 227.619 327.999 231.118 326.09C236.059 323.533 241.569 322.275 247.13 322.434C253.982 322.36 260.739 324.038 266.76 327.308C277.142 333.279 278.007 342.528 268.722 347.865C266.102 349.4 261.411 351.386 253.698 352.312C245.984 353.239 236.918 355.968 236.126 360.842C234.908 368.3 254.404 379.498 278.994 393.742L284.197 396.764C291.728 392.317 298.82 388.003 305.022 384.165C326.87 370.761 341.358 360.452 352.934 360.123H353.617C363.207 360.123 367.24 365.619 367.788 370.444C367.954 371.953 368.485 373.4 369.334 374.658C370.183 375.917 371.325 376.951 372.662 377.67C375.798 379.257 379.288 380.017 382.8 379.876C390.599 379.74 398.238 377.645 405.014 373.783C415.859 367.544 418.942 359.161 411.887 355.079C409.888 353.945 406.111 352.52 399.348 352.227C390.818 351.923 381.07 349.473 381.509 343.697C382.106 336.569 391.72 332.926 417.553 319.961C422.793 317.304 428.422 314.489 434.222 311.504C428.032 307.922 422.354 304.51 417.346 301.451C400.116 290.899 388.467 283.917 378.28 283.917H377.061C373.883 283.98 370.793 284.975 368.176 286.78C365.559 288.585 363.53 291.119 362.341 294.067C360.881 297.766 358.175 300.839 354.689 302.755C349.73 305.341 344.195 306.62 338.604 306.471C331.753 306.546 324.995 304.868 318.974 301.597C308.604 295.602 307.703 286.354 317.024 280.98C319.608 279.481 324.336 277.495 332.073 276.569C339.811 275.643 348.852 272.852 349.608 268.039C350.644 261.849 334.985 253.161 315.099 242.145C309.859 239.27 304.425 236.284 298.88 233.067L298.966 233.153Z" fill="#455A64"/>
<path opacity="0.15" d="M134.44 411.289C145.407 406.11 156.179 400.322 167.499 396.142C176.76 392.694 186.483 390.245 195.062 385.334C198.285 383.642 201.1 381.268 203.311 378.376C204.402 376.921 205.151 375.238 205.501 373.453C205.851 371.668 205.794 369.827 205.334 368.068C203.957 363.644 199.973 362.182 195.756 361.975C185.362 361.548 175.041 364.241 165.452 368.36C155.862 372.479 146.991 377.974 138.132 383.445C129.91 388.715 121.005 392.836 111.666 395.692C101.808 398.64 91.6333 401.065 82.5796 406.122C80.2037 407.26 78.1912 409.036 76.7672 411.252C73.9159 416.407 78.6925 421.744 83.6276 422.816C89.5762 423.943 95.6859 423.919 101.625 422.743C113.116 420.757 123.851 416.297 134.44 411.289Z" fill="black"/>
<path opacity="0.15" d="M320.814 297.991C318.255 294.896 313.856 293.544 309.274 294.214C304.693 294.884 300.477 297.236 296.407 299.539C289.668 303.365 282.93 307.179 276.533 311.578C273.243 313.856 269.221 316.025 266.516 319.035C264.725 321.058 262.861 323.3 262.568 325.993C262.02 330.672 266.017 333.304 269.965 334.291C273.167 335.009 276.481 335.084 279.713 334.51C287.901 333.292 295.554 329.709 302.694 325.725C309.408 321.996 316.342 318.316 320.643 311.675C322.122 309.614 322.969 307.167 323.08 304.632C323.124 302.222 322.322 299.872 320.814 297.991Z" fill="black"/>
<path d="M321.959 265.835C324.775 266.238 327.362 267.613 329.27 269.722C331.89 273.061 337.703 283.041 338.848 284.149C338.208 285.249 337.319 286.184 336.253 286.879L333.145 283.37C332.378 282.736 332.049 282.029 332.085 284.101C332.122 286.172 332.414 288.305 332.366 291.412C332.366 293.849 332.829 298.479 328.637 303.158C324.725 307.533 320.521 309.641 317.597 310.043C315.855 310.287 312.796 309.885 312.991 306.388C313.088 304.548 313.917 298.491 314.209 295.141C314.502 291.79 321.959 265.835 321.959 265.835Z" fill="#263238"/>
<path d="M322.788 266.603C321.403 265.374 320.277 263.883 319.473 262.216C318.718 260.681 314.867 252.187 310.261 240.404C304.315 225.258 294.42 214.072 291.362 208.381C287.926 202.191 285.047 195.707 282.759 189.007L270.513 197.195L254.307 196.903C254.148 199.34 255.135 202.508 256.939 206.237V206.334C257.097 206.663 257.28 207.017 257.463 207.358C261.118 214.45 267.211 223.028 274.095 231.728L274.254 231.936L274.498 232.24C281.126 240.624 288.401 249.153 294.762 256.538V256.355C299.875 262.194 304.573 268.383 308.823 274.876C314.575 284.296 314.185 292.545 314.222 297.578C314.222 300.721 316.659 301.318 319.985 298.577C322.067 296.942 323.733 294.838 324.847 292.436C325.961 290.035 326.491 287.404 326.395 284.759C327.114 273.999 326.175 270.904 322.788 266.603Z" fill="#B16668"/>
<path d="M282.394 197.403L254.246 196.879C254.246 197.184 254.246 197.513 254.246 197.842C254.246 197.963 254.246 198.097 254.246 198.219C254.246 198.341 254.246 198.658 254.307 198.889C254.367 199.121 254.307 199.218 254.404 199.389L254.514 199.998C254.514 200.193 254.623 200.4 254.672 200.608L254.818 201.156C254.818 201.217 254.818 201.278 254.879 201.327C254.94 201.375 261.995 206.201 275.168 208.443C275.168 208.443 275.57 229.45 279.055 237.931L282.966 242.671C283.588 230.12 282.394 197.403 282.394 197.403Z" fill="#9A4A4D"/>
<path d="M302.122 288.134C304.207 290.29 305.548 293.057 305.948 296.03C306.338 300.575 305.801 313.004 306.155 314.686C305.031 315.291 303.776 315.613 302.499 315.624L301.793 310.628C301.488 309.604 301.598 308.788 300.501 310.628C299.404 312.468 298.49 314.625 296.784 317.378C295.42 319.56 293.336 324.044 287.268 325.823C281.614 327.492 276.935 326.932 274.266 325.591C272.67 324.799 270.318 322.63 272.365 319.608C273.45 318 277.434 313.016 279.506 310.153C281.577 307.289 302.122 288.134 302.122 288.134Z" fill="#263238"/>
<path d="M286.719 287.987C287.012 276.094 275.826 221.748 278.835 196.22L310.749 195.83C309.026 203.244 307.921 210.788 307.447 218.385C306.923 225.331 309.152 241.22 305.911 258.401C304.266 266.418 303.045 274.517 302.256 282.662C302.256 284.502 302.061 288.402 302.146 289.413C302.658 295.286 301.768 298.625 295.322 307.935C294.104 309.726 291.082 315.538 282.43 316.671C278.177 317.22 276.447 315.246 278.129 312.394C280.883 307.825 286.439 299.868 286.719 287.987Z" fill="#B16668"/>
<path d="M307.447 218.386C307.386 221.091 307.544 223.772 307.69 226.465C307.837 229.158 307.934 231.863 308.019 234.556C308.16 239.969 307.964 245.385 307.434 250.774C307.154 253.467 306.716 256.136 306.216 258.792L304.754 266.713C304.274 269.361 303.828 272.013 303.413 274.67C302.987 277.326 302.56 279.982 302.304 282.663C302.633 277.277 303.243 271.913 304.132 266.591C304.912 261.254 306.131 256.014 306.569 250.665C306.886 248.008 307.045 245.315 307.191 242.634C307.337 239.954 307.313 237.261 307.337 234.568C307.361 231.875 307.337 229.182 307.24 226.489C307.142 223.796 307.191 221.079 307.447 218.386Z" fill="#9A4A4D"/>
<path d="M278.372 210.428C278.19 205.687 278.344 200.939 278.835 196.22L310.749 195.83C309.874 199.369 309.191 202.953 308.702 206.565C308.702 206.565 296.443 212.743 278.372 210.428Z" fill="#9A4A4D"/>
<path d="M254.818 144.299C255.541 136.967 256.697 129.683 258.279 122.487C259.498 116.98 260.716 112.203 261.581 107.987C270.854 114.165 293.909 114.725 304.522 107.768C308.921 113.895 312.681 120.456 315.745 127.349C319.4 135.976 320.899 141.362 320.729 152.073C320.57 161.821 316.196 190.676 312.199 202.983C301.415 208.966 263.604 207.589 252.905 196.891C252.917 196.878 253.539 154.449 254.818 144.299Z" fill="#455A64"/>
<path d="M264.81 11.3332C264.618 10.1006 264.832 8.83901 265.42 7.73857C266.76 5.30151 269.721 4.1561 272.499 3.87584C274.021 3.88143 275.53 3.60033 276.947 3.04724C278.19 2.43798 279.043 1.21945 280.261 0.439593C281.671 -0.388545 283.329 -0.690723 284.94 -0.413377C286.861 -0.179468 288.66 0.651676 290.083 1.96275C291.146 3.0455 292.46 3.84911 293.909 4.30232C297.382 5.30151 299.867 4.05862 303.121 6.8856C304.095 7.81904 304.842 8.96352 305.305 10.231C305.768 11.4985 305.933 12.8552 305.789 14.1968C308.227 15.525 311.724 23.945 307.374 33.6932C305.144 38.6648 302.292 41.0044 298.783 45.257L295.213 45.4276C293.897 42.4544 290.887 43.1612 288.072 42.6006C286.342 41.9183 285.343 40.1636 283.698 39.3959C282.138 38.821 280.485 38.544 278.823 38.5795C276.946 38.623 275.099 38.1008 273.523 37.0807C272.49 36.0688 271.731 34.8109 271.317 33.4251C270.952 32.56 270.294 29.6599 271.317 28.9409C269.721 30.1595 266.553 30.7931 264.847 29.538C264.323 29.1417 263.92 28.606 263.685 27.992C263.45 27.378 263.393 26.7104 263.519 26.0652C263.6 25.8128 263.645 25.5503 263.653 25.2854C263.619 25.0176 263.522 24.7618 263.369 24.5393C263.217 24.3167 263.013 24.1339 262.775 24.0059C262.312 23.7135 261.801 23.5429 261.35 23.2382C260.728 22.7288 260.278 22.0408 260.06 21.2671C259.842 20.4934 259.867 19.6715 260.131 18.9125C260.705 17.4103 261.742 16.1299 263.092 15.2569C263.921 14.6598 264.896 14.0384 265.054 13.0148C265.072 12.4443 264.989 11.8752 264.81 11.3332Z" fill="#263238"/>
<path d="M278.421 56.7474L280.273 56.4306C281.858 56.1625 281.638 54.3591 281.711 52.775V50.338C280.292 50.5317 278.848 50.4419 277.463 50.0738C276.078 49.7057 274.781 49.0665 273.645 48.1934C270.233 45.4761 268.21 39.8465 268.247 33.7051C268.247 29.623 269.246 27.6124 269.148 26.7595C268.551 21.3127 268.929 20.3257 270.074 17.4499C272.158 12.8561 277.836 10.9552 280.542 15.6709C287.402 9.79758 295.59 16.731 295.676 25.1632C295.03 32.1576 297.174 32.4013 298.539 32.3891C300.343 27.9658 304.827 27.8318 306.837 30.5369C308.665 32.974 308.799 36.8976 305.619 40.602C302.438 44.3063 298.893 42.1495 298.819 41.4427C298.819 41.4427 298.71 50.8376 298.722 52.7019C298.734 54.5663 298.99 55.6629 301.342 56.3575L304.729 57.308C304.729 57.308 304.559 57.5517 304.205 57.966C303.413 58.9895 301.671 61.2194 298.734 65.0334C290.963 68.2639 283.454 72.0935 276.277 76.4876C274.65 72.5592 273.266 68.5345 272.134 64.4363C273.937 61.6473 276.046 59.0683 278.421 56.7474Z" fill="#B16668"/>
<path d="M285.611 38.3604L280.371 40.0175C280.463 40.369 280.626 40.6981 280.849 40.9851C281.071 41.2721 281.35 41.511 281.668 41.6874C281.985 41.8639 282.335 41.9742 282.697 42.0119C283.058 42.0495 283.424 42.0135 283.771 41.9063C284.475 41.6662 285.06 41.1634 285.403 40.5028C285.745 39.8421 285.82 39.0746 285.611 38.3604Z" fill="#9A4A4D"/>
<path d="M285.269 39.5664C284.572 39.549 283.889 39.7738 283.338 40.2025C282.788 40.6312 282.402 41.2374 282.248 41.9181C282.744 42.0705 283.274 42.0705 283.771 41.9181C284.268 41.7512 284.71 41.4502 285.048 41.0481C285.386 40.646 285.606 40.1586 285.684 39.6395L285.269 39.5664Z" fill="#F28F8F"/>
<path d="M270.793 23.8719L274.827 22.5924C274.756 22.3265 274.631 22.0777 274.461 21.8612C274.291 21.6447 274.079 21.4649 273.838 21.3328C273.596 21.2006 273.33 21.1189 273.056 21.0924C272.782 21.066 272.506 21.0954 272.243 21.1789C271.702 21.3558 271.25 21.7341 270.98 22.2354C270.71 22.7367 270.643 23.3227 270.793 23.8719Z" fill="#263238"/>
<path d="M290.095 24.8959L286.11 23.3484C286.204 23.089 286.348 22.851 286.535 22.6485C286.722 22.446 286.948 22.2831 287.199 22.1695C287.45 22.0558 287.722 21.9938 287.997 21.987C288.273 21.9801 288.547 22.0287 288.803 22.1298C289.328 22.3426 289.753 22.746 289.993 23.2591C290.232 23.7722 290.269 24.3569 290.095 24.8959Z" fill="#263238"/>
<path d="M275.631 27.8678C275.658 28.3261 275.508 28.7773 275.21 29.1271C274.913 29.4768 274.491 29.698 274.035 29.7443C273.812 29.7696 273.587 29.7499 273.373 29.6864C273.158 29.623 272.959 29.5171 272.786 29.375C272.613 29.2329 272.471 29.0576 272.367 28.8593C272.263 28.6611 272.201 28.4441 272.183 28.2212C272.152 27.7621 272.302 27.3092 272.6 26.9588C272.898 26.6084 273.321 26.388 273.779 26.3446C274.001 26.3194 274.226 26.3391 274.441 26.4026C274.655 26.466 274.855 26.5719 275.027 26.714C275.2 26.8561 275.343 27.0314 275.446 27.2296C275.55 27.4278 275.613 27.6449 275.631 27.8678Z" fill="#263238"/>
<path d="M288.157 28.6248C288.185 29.0922 288.033 29.5525 287.731 29.9108C287.43 30.269 287.002 30.4979 286.537 30.5501C286.309 30.5753 286.078 30.5542 285.858 30.4882C285.639 30.4221 285.435 30.3124 285.258 30.1657C285.082 30.0189 284.937 29.8381 284.832 29.6341C284.727 29.4301 284.665 29.207 284.648 28.9782C284.62 28.5121 284.773 28.0532 285.075 27.697C285.377 27.3407 285.804 27.1144 286.269 27.0651C286.496 27.0399 286.726 27.0606 286.945 27.1259C287.163 27.1912 287.367 27.2998 287.543 27.4452C287.719 27.5907 287.864 27.7701 287.97 27.9727C288.076 28.1753 288.139 28.3971 288.157 28.6248Z" fill="#263238"/>
<path d="M281.748 50.3501C288.45 49.6921 294.884 47.913 296.529 43.7822C296.445 44.9857 296.046 46.1461 295.372 47.1469C294.698 48.1478 293.774 48.954 292.69 49.4849C289.31 51.2839 285.552 52.2569 281.724 52.3241L281.748 50.3501Z" fill="#9A4A4D"/>
<path d="M274.778 33.6201L280.944 35.8987L281.748 24.3105L274.778 33.6201Z" fill="#9A4A4D"/>
<path d="M252.686 79.2049C245.436 99.5909 242.097 108.121 242.097 108.121C242.097 108.121 218.872 128.921 215.046 131.675C211.22 134.429 204.079 138.742 204.079 138.742C199.729 141.752 198.181 143.616 197.072 146.419C195.964 149.222 197.657 154.266 199.509 156.472C201.362 158.677 202.946 160.261 205.31 160.542C206.837 160.733 208.384 160.705 209.904 160.456C210.452 160.188 210.951 159.798 211.524 159.579C212.097 159.36 213.011 159.299 213.681 158.97C214.765 158.446 215.326 157.215 216.313 156.533C216.8 156.204 217.361 156.021 217.836 155.692C218.23 155.422 218.579 155.093 218.872 154.717C219.149 154.423 219.364 154.076 219.504 153.697C219.645 153.318 219.707 152.915 219.688 152.512C219.615 152.18 219.496 151.86 219.335 151.561L218.713 150.245C218.653 149.361 218.857 148.479 219.298 147.711C220.042 146.748 222.564 143.616 222.564 143.616L222.771 143.47C224.27 142.252 225.354 141.033 226.5 140.058C228.44 138.484 230.501 137.066 232.666 135.818C244.144 128.86 251.236 123.547 255.574 120.866C259.912 118.186 260.533 115.541 263.738 110.046C269.185 100.7 275.217 86.8938 275.217 86.8938L275.692 55.6143C262.422 56.455 257.426 65.8621 252.686 79.2049Z" fill="#B16668"/>
<path d="M228.827 119.6L223.502 124.035C225.831 125.378 227.816 127.242 229.303 129.482C230.695 131.653 231.624 134.088 232.032 136.635L237.954 132.979C237.954 132.979 237.954 129.774 234.956 125.278C233.375 122.941 231.278 120.998 228.827 119.6Z" fill="#D92378"/>
<path opacity="0.7" d="M228.827 119.6L223.502 124.035C225.831 125.378 227.816 127.242 229.303 129.482C230.695 131.653 231.624 134.088 232.032 136.635L237.954 132.979C237.954 132.979 237.954 129.774 234.956 125.278C233.375 122.941 231.278 120.998 228.827 119.6Z" fill="white"/>
<path d="M275.631 55.2119C268.039 56.2355 262.446 57.8196 257.914 66.5686C253.381 75.3176 242 107.048 242 107.048L226.293 121.28C228.7 122.635 230.757 124.534 232.3 126.825C233.88 129.302 234.922 132.083 235.359 134.989C235.359 134.989 250.639 125.082 255.696 121.914C260.753 118.746 262.288 115.492 267.43 106.207C272.572 96.9221 276.508 89.4525 276.508 89.4525L275.631 55.2119Z" fill="#263238"/>
<path d="M280.176 56.4561C280.176 56.4561 277.191 62.6705 279.226 66.4236C289.266 65.2782 297.747 60.6112 301.159 57.4674L309.603 58.7956C309.603 58.7956 315.123 69.3359 313.405 78.2921C311.687 87.2482 304.51 107.756 304.51 107.756C294.957 121.635 262.434 114.3 261.569 107.975C261.569 107.975 260.606 100.104 259.802 93.6211C259.802 93.6211 255.245 89.2466 255.026 83.3977C254.782 77.3051 257.316 72.9549 263.555 66.6186C267.125 62.9088 271.061 59.5693 275.302 56.651L280.176 56.4561Z" fill="#D92378"/>
<path opacity="0.7" d="M280.176 56.4561C280.176 56.4561 277.191 62.6705 279.226 66.4236C289.266 65.2782 297.747 60.6112 301.159 57.4674L309.603 58.7956C309.603 58.7956 315.123 69.3359 313.405 78.2921C311.687 87.2482 304.51 107.756 304.51 107.756C294.957 121.635 262.434 114.3 261.569 107.975C261.569 107.975 260.606 100.104 259.802 93.6211C259.802 93.6211 255.245 89.2466 255.026 83.3977C254.782 77.3051 257.316 72.9549 263.555 66.6186C267.125 62.9088 271.061 59.5693 275.302 56.651L280.176 56.4561Z" fill="white"/>
<path opacity="0.3" d="M298.344 92.3545C297.506 94.6973 296.009 96.7483 294.033 98.2613C292.057 99.7743 289.687 100.685 287.207 100.884C284.823 101.158 282.409 100.797 280.21 99.8388C278.01 98.8802 276.103 97.3576 274.68 95.4252C274.68 95.4252 276.435 104.783 287.548 103.138C298.661 101.493 298.344 92.3545 298.344 92.3545Z" fill="#D92378"/>
<path d="M298.88 53.8848C298.88 53.8848 290.594 73.1741 287.804 82.4836C285.014 91.7932 286.464 99.2262 287.512 116.078C288.328 129.044 289.741 148.613 289.741 148.613C289.741 148.613 314.343 148.26 321.898 137.293C319.888 130.847 313.576 115.81 311.955 111.704C310.335 107.597 311.127 103.954 313.746 94.4495C316.366 84.945 320.607 79.7297 320.485 72.6866C320.351 70.0238 319.677 67.416 318.504 65.0217C317.331 62.6274 315.683 60.4966 313.661 58.7589L298.88 53.8848Z" fill="#37474F"/>
<path d="M281.48 55.4688C281.398 55.7023 281.261 55.9127 281.081 56.0823C280.9 56.2519 280.682 56.3758 280.444 56.4437C280.444 56.4437 263.75 72.4917 262.593 89.1124C261.435 105.733 260.387 142.143 260.387 142.143C260.387 142.143 258.571 141.302 255.038 137.451C255.793 129.897 258.401 100.079 257.694 96.6673C256.987 93.2554 248.848 85.469 256.305 74.3682C263.762 63.2674 275.631 55.213 275.631 55.213L281.723 53.8848C281.751 54.4239 281.668 54.9629 281.48 55.4688Z" fill="#37474F"/>
<path d="M273.243 59.5268C272.182 60.4894 271.122 61.452 270.111 62.4512C268.064 64.4374 266.029 66.4358 264.018 68.5439C263.043 69.5918 262.069 70.6397 261.13 71.712C260.655 72.2482 260.192 72.7965 259.741 73.3692C259.203 73.9357 258.788 74.6079 258.523 75.3432C258.34 76.0925 258.294 76.8686 258.389 77.6341C258.463 78.3678 258.602 79.0935 258.803 79.803C259.159 81.1194 259.616 82.4067 260.168 83.6536C258.997 85.034 258.047 86.5878 257.353 88.2596C257.263 88.5029 257.206 88.7569 257.182 89.0151C257.158 89.2704 257.158 89.5275 257.182 89.7828C257.182 90.258 257.304 90.7211 257.377 91.1841C257.536 92.098 257.719 93.0119 257.913 93.9136C258.693 97.5692 259.619 101.115 260.631 104.685C259.912 101.03 259.193 97.3742 258.535 93.8039C258.377 92.89 258.23 91.9883 258.108 91.0744C258.108 90.6236 257.987 90.1727 257.974 89.734C257.922 89.322 257.972 88.9035 258.121 88.5155C258.848 86.8705 259.822 85.346 261.009 83.9948L261.179 83.7754L261.069 83.5196C260.511 82.2373 260.055 80.9132 259.705 79.5593C259.53 78.8957 259.408 78.2194 259.339 77.5366C259.287 76.8674 259.357 76.1944 259.546 75.5504C259.769 74.9411 260.103 74.3789 260.533 73.8932C260.972 73.3327 261.423 72.7965 261.886 72.2604C262.8 71.1759 263.762 70.1279 264.713 69.08C266.626 66.972 268.563 64.8761 270.537 62.829C272.511 60.7818 274.461 58.6982 276.557 56.7363C275.387 57.6259 274.303 58.5763 273.243 59.5268Z" fill="#263238"/>
<path d="M302.56 81.6429V74.807C302.499 68.7144 302.426 62.7314 302.219 56.6875C301.963 62.7801 301.841 68.7753 301.732 74.8314V79.3643V81.6308V82.1913C301.757 82.3323 301.757 82.4767 301.732 82.6178C301.63 82.913 301.473 83.186 301.269 83.422C300.242 84.432 299.018 85.2201 297.674 85.7372C296.314 86.3297 294.913 86.8225 293.482 87.2116L292.983 87.3457L293.165 87.8087C293.904 89.6356 294.539 91.5029 295.066 93.4017C295.188 93.877 295.298 94.3522 295.371 94.8274C295.474 95.2542 295.495 95.6967 295.432 96.1312V96.2531L295.347 96.4237L294.189 98.7633C293.312 100.542 292.41 102.309 291.557 104.113L288.791 109.486L291.715 104.283C292.69 102.553 293.628 100.798 294.579 99.0435L295.286 97.7397L295.639 97.0817L295.907 96.5821L295.98 96.3506C296.089 95.8076 296.089 95.2485 295.98 94.7056C295.914 94.2003 295.817 93.6997 295.688 93.2068C295.217 91.4233 294.652 89.6661 293.994 87.9427C295.316 87.5824 296.615 87.1388 297.881 86.6145C299.37 86.0598 300.712 85.1721 301.805 84.0191C302.103 83.6646 302.32 83.2485 302.438 82.8005C302.497 82.5737 302.525 82.3402 302.524 82.106L302.56 81.6429Z" fill="#263238"/>
<path d="M334.01 104.795C335.071 112.764 335.29 114.117 334.778 119.417C334.4 123.39 333.986 124.06 332.487 131.298C330.989 138.536 327.211 151.745 327.272 153.67C327.43 155.507 327.43 157.354 327.272 159.19C327.067 161.376 326.554 163.521 325.749 165.563C325.201 166.964 324.847 168.512 324.201 169.877C323.628 170.803 322.967 171.672 322.227 172.472C321.496 173.423 321.24 174.641 320.339 175.494C318.779 176.981 317.134 177.2 315.647 177.931C315.001 178.869 313.929 180.868 313.21 181.757C311.37 184.012 310.956 180.319 311.017 179.064C311.129 177.718 311.383 176.386 311.772 175.092C312.71 171.838 313.467 168.535 314.039 165.198C314.136 164.6 314.855 162.151 313.88 162.163C313.722 162.186 313.569 162.239 313.431 162.321C313.293 162.402 313.172 162.51 313.076 162.639C312.406 163.394 311.967 164.332 311.37 165.149C310.892 165.781 310.367 166.376 309.798 166.928C309.352 167.43 308.814 167.844 308.214 168.146C307.581 168.414 305.265 168.597 305.168 167.513C305.167 167.335 305.209 167.159 305.29 167.001C305.765 165.892 306.338 164.808 306.825 163.699C307.336 162.588 307.783 161.449 308.166 160.287C308.923 156.837 310.329 153.562 312.309 150.636C316.232 145.226 317.049 113.288 317.049 113.288L311.785 91.2817C309.576 85.3646 308.545 79.0727 308.75 72.76C309.092 62.3051 313.003 59.5146 313.003 59.5146C321.106 62.7681 325.517 65.3148 327.625 72.7722C329.733 80.2296 333.292 99.4336 334.01 104.795Z" fill="#B16668"/>
<path d="M315.599 133.637L314.989 139.9C314.989 139.9 317.731 139.144 323.421 140.741C327.918 142.02 329.514 144.238 329.514 144.238L330.989 138.145C330.989 138.145 326.224 133.052 315.599 133.637Z" fill="#D92378"/>
<path opacity="0.7" d="M315.599 133.637L314.989 139.9C314.989 139.9 317.731 139.144 323.421 140.741C327.918 142.02 329.514 144.238 329.514 144.238L330.989 138.145C330.989 138.145 326.224 133.052 315.599 133.637Z" fill="white"/>
<path d="M335.095 110.485C334.864 108.597 333.682 98.6899 330.745 84.2016C327.967 70.4323 327.297 68.8969 324.908 65.7288C322.898 63.0724 320.814 61.0984 313.722 58.7588C313.722 58.7588 307.946 62.2072 307.812 71.2852C307.678 79.9368 311.395 92.0002 311.395 92.0002L316.403 114.311L315.184 136.525C319.047 135.173 328.478 137.329 330.489 141.156C330.489 141.156 332.926 132.041 334.425 124.986C335.464 120.225 335.691 115.322 335.095 110.485Z" fill="#263238"/>
<path d="M88.0386 191.602L95.4351 164.173C98.847 150.087 94.4115 132.284 94.4115 132.284C88.0873 133.027 82.4821 135.94 79.4114 143.921C76.3407 151.902 71.8687 179.258 70.7964 185.217C69.8336 190.359 69.6283 195.613 70.1872 200.814C70.7355 207.455 74.0743 219.372 75.4025 225.879C76.0117 228.889 76.3895 231.801 76.7916 234.872C77.4204 238.026 78.2673 241.133 79.3261 244.169C79.7782 245.641 80.6204 246.964 81.7632 247.996C82.4699 248.666 83.4691 248.788 84.2003 249.421C84.9314 250.055 84.9923 251.091 85.9549 251.627C86.9176 252.163 88.2701 251.931 89.1962 252.541C90.1038 253.285 91.0561 253.972 92.0476 254.6C92.9745 254.908 93.8114 255.44 94.4846 256.148C95.0695 256.854 95.6057 258.414 96.7267 258.353C97.8478 258.292 98.2499 257.134 98.3595 256.038C98.4144 253.985 97.8077 251.968 96.6292 250.286C95.6123 248.429 94.4852 246.635 93.2539 244.913C92.0399 243.309 91.2065 241.451 90.8168 239.478C90.4878 238.174 90.6828 236.517 92.3156 237.346C94.2531 238.333 96.2515 240.319 98.6276 240.014C100.285 239.819 100.431 238.528 99.5293 237.407C98.0406 235.56 96.6923 233.605 95.496 231.558C94.2775 229.474 93.2783 227.268 91.9988 225.221C91.3032 224.156 90.538 223.139 89.708 222.175C87.4537 219.445 87.7096 215.887 87.5878 212.573C87.3441 207.93 87.8315 197.536 88.0386 191.602Z" fill="#FFA8A7"/>
<path d="M71.954 212.743L73.4163 219.433C73.4163 219.433 75.963 221.017 81.2514 220.286C86.5398 219.555 88.1848 217.849 88.1848 217.849L87.8802 210.806L71.954 212.743Z" fill="#F0F0F0"/>
<path d="M92.474 128.665C83.2864 129.786 80.0573 135.489 77.2668 144.823C74.3911 154.4 71.296 176.163 70.5162 180.696C69.317 186.179 68.8621 191.798 69.1636 197.402C69.8163 203.324 70.8131 209.204 72.149 215.01C72.149 215.01 74.5861 216.375 79.7404 216.119C86.9054 215.753 88.2701 213.535 88.2701 213.535L88.7332 191.724L98.9566 157.532L92.474 128.665Z" fill="#455A64"/>
<path d="M200.594 362.781C201.264 362.476 201.813 364.243 201.654 365.218C201.179 368.082 198.559 371.871 193.904 374.735C189.25 377.598 179.002 379.548 175.992 380.437C172.982 381.327 168.34 384.653 165.537 386.164C160.419 388.906 156.24 388.602 153.912 387.383C153.5 387.104 153.149 386.744 152.881 386.325C152.613 385.906 152.433 385.437 152.353 384.946C151.743 382.777 151.792 382.277 152.023 382.216L200.594 362.781Z" fill="#263238"/>
<path d="M150.671 375.759C150.942 378.479 151.59 381.149 152.596 383.691C153.178 384.295 153.886 384.762 154.67 385.06C155.453 385.357 156.293 385.476 157.129 385.409C161.016 385.409 164.44 383.984 168.023 381.754C170.304 380.242 172.785 379.056 175.395 378.232C178.526 377.367 185.521 375.795 188.616 374.784C191.522 373.843 194.196 372.299 196.463 370.251C198.193 368.569 200.606 365.316 200.777 363.427C200.253 359.333 199.168 357.152 196.646 356.555C194.124 355.958 190.675 356.75 186.142 357.907C184.777 358.248 183.072 358.736 182.34 358.894C179.562 359.491 176.991 360.113 174.907 360.698C173.188 361.297 171.351 361.485 169.546 361.246C168.712 361.143 167.943 360.745 167.377 360.125C166.646 359.272 166.158 357.822 165.354 358.017C165.354 358.017 151.012 365.889 149.818 366.437C148.624 366.985 150.037 368.923 150.671 375.759Z" fill="#37474F"/>
<path d="M183.474 358.382C184.057 358.608 184.585 358.957 185.021 359.405C185.492 359.889 185.901 360.43 186.24 361.014C186.691 361.757 185.789 362.232 185.119 361.44C184.608 360.753 184.014 360.131 183.352 359.588C182.894 359.22 182.318 359.03 181.731 359.052L180.939 359.235C181.012 358.552 182.779 358.175 183.474 358.382Z" fill="#FAFAFA"/>
<path d="M176.358 359.868C176.604 359.754 176.872 359.694 177.143 359.694C177.415 359.694 177.683 359.754 177.929 359.868C178.573 360.151 179.125 360.606 179.526 361.184C180.032 361.884 180.484 362.621 180.878 363.39C181.098 363.889 179.916 364.267 179.66 363.743C179.291 363.059 178.884 362.396 178.441 361.757C178.197 361.44 177.162 360.27 176.309 360.404L175.943 360.502C175.882 360.331 176.077 360.124 176.223 360.026L176.358 359.868Z" fill="#FAFAFA"/>
<path d="M172.312 361.111C172.679 361.06 173.052 361.147 173.36 361.354C173.754 361.647 174.1 362.001 174.383 362.402C174.885 363.153 175.271 363.974 175.529 364.839C175.748 365.497 174.53 365.717 174.31 365.278C173.992 364.098 173.371 363.023 172.507 362.158C172.129 361.791 171.664 361.526 171.154 361.391C171.154 361.257 171.313 361.184 171.435 361.159C171.556 361.135 172.117 361.111 172.312 361.111Z" fill="#FAFAFA"/>
<path d="M144.14 349.718C144.14 349.718 148.648 364.084 150.025 367.362C150.464 368.41 152.535 368.178 153.681 368.3C155.088 368.369 156.472 368.678 157.775 369.214C161.15 371.018 163.258 370.981 163.368 365.802C163.346 365.566 163.374 365.327 163.449 365.102C163.525 364.877 163.648 364.671 163.809 364.496C163.969 364.322 164.165 364.183 164.383 364.089C164.601 363.995 164.837 363.947 165.074 363.95C166.016 363.966 166.952 363.796 167.828 363.45C167.937 363.304 167.828 363.121 167.657 363.012C167.097 362.624 166.625 362.124 166.27 361.542C165.915 360.961 165.686 360.312 165.598 359.637C164.197 353.544 163.465 348.195 161.942 340.64L144.14 349.718Z" fill="#FFA8A7"/>
<path d="M133.295 207.614C133.295 207.614 140.179 216.277 144.335 232.484C148.086 247.561 150.934 262.848 152.864 278.264C153.863 285.161 154.595 290.084 156.374 302.634C157.909 313.163 164.501 352.034 164.501 352.034C164.501 352.034 159.7 356.396 155.667 358.004C151.914 359.491 148.429 360.088 147.052 359.491C147.052 359.491 142.421 347.001 136.694 330.648C133.929 323.104 131.726 315.366 130.102 307.496C129.359 303.451 129.542 296.262 129.615 292.63L98.8347 242.671C96.3383 239.553 94.3969 236.029 93.0954 232.252C89.0499 221.578 94.2165 206.2 94.2165 206.2L133.295 207.614Z" fill="#263238"/>
<path d="M103.014 221.639H140.789C142.2 225.173 143.38 228.796 144.322 232.484C147.823 246.366 150.516 260.439 152.389 274.632C151.463 281.139 150.427 287.805 149.465 292.399C146.918 304.511 145.334 313.114 143.372 318.073C141.427 322.313 139.119 326.378 136.475 330.222C133.781 322.85 131.63 315.292 130.041 307.606C129.298 303.56 129.481 296.371 129.554 292.74L107.23 256.403L105.488 245.168C99.7609 235.384 100.395 228.048 103.014 221.639Z" fill="black"/>
<path d="M85.2969 369.995C87.4537 366.339 89.4034 360.709 94.1678 346.489L111.91 361.112L100.943 379.45C100.598 380.398 100.329 381.372 100.139 382.363C97.7868 385.896 85.2969 369.995 85.2969 369.995Z" fill="#FFA8A7"/>
<path d="M78.7656 377.744C78.7656 377.537 78.6925 375.819 78.7656 375.612C79.2286 373.772 80.3131 373.26 81.7022 372.224C83.114 371.226 84.4061 370.069 85.5528 368.776C86.0158 368.093 86.1011 367.74 86.8322 367.435C87.7741 367.128 88.7735 367.038 89.755 367.173C90.7366 367.309 91.6746 367.665 92.4984 368.215C96.4952 370.421 97.7137 373.089 97.4943 375.965C97.3116 378.171 97.141 381.095 98.9809 382.399C99.7486 382.947 100.967 379.426 100.967 379.426C102.1 381.436 100.504 384.214 99.6755 388.272C99.1903 390.517 99.1488 392.835 99.5537 395.096C99.968 398.654 100.431 398.642 102.234 398.898C103.782 399.105 108.181 398.8 110.862 400.762C111.895 401.42 112.706 402.375 113.188 403.501C113.671 404.627 113.803 405.872 113.567 407.074C113.079 408.439 109.07 415.08 94.4237 412.606C90.171 411.887 81.2392 404.856 81.3732 404.211C81.4524 403.539 81.4524 402.86 81.3732 402.188C81.3732 400.616 81.2636 399.044 81.2026 397.46C81.2518 395.956 81.1661 394.452 80.9467 392.963C80.6773 391.739 80.4941 390.497 80.3984 389.247L79.5576 379.767C79.4236 378.853 78.6559 378.646 78.7656 377.744Z" fill="#37474F"/>
<path d="M76.9256 377.123C75.4756 378.585 76.3651 382.85 78.3026 387.967C79.1555 390.246 80.7396 394.145 80.2888 398.301C79.8379 402.456 79.7404 404.393 80.7518 406.367C82.3481 409.413 90.8656 413.313 95.8859 414.531C92.8322 410.012 91.0671 404.746 90.7803 399.3C90.2807 390.124 89.5618 384.214 85.6259 380.144C80.5812 375.002 76.9256 377.123 76.9256 377.123Z" fill="black"/>
<path d="M113.542 407.074C113.542 407.074 110.594 412.85 99.2613 412.667C94.8015 412.594 92.4131 410.303 92.3035 403.174C92.1694 394.584 91.5114 385.908 88.8672 381.643C86.223 377.378 82.0069 375.307 78.7413 375.611C77.9663 375.867 77.3174 376.407 76.9257 377.122C76.9257 377.122 80.1913 375.989 85.2848 380.425C89.0378 383.702 90.0492 390.538 90.0005 399.044C90.0005 402.699 89.7567 406.842 90.7803 409.62C91.2278 410.82 91.9503 411.898 92.8899 412.768C93.8295 413.638 94.96 414.275 96.1906 414.629C102.356 416.444 110.813 413.41 112.921 410.717C113.281 410.191 113.523 409.592 113.63 408.963C113.738 408.335 113.708 407.69 113.542 407.074Z" fill="#263238"/>
<path d="M99.9193 397.338C100.382 397.686 100.706 398.187 100.833 398.751C100.89 399.474 100.756 400.2 100.443 400.854C100.131 401.509 99.6518 402.069 99.0541 402.48C98.3717 402.931 97.8356 402.773 98.8591 401.262C99.5553 400.071 99.9212 398.717 99.9193 397.338Z" fill="#FAFAFA"/>
<path d="M99.31 392.891C99.31 392.891 99.6634 393.134 99.7609 394.328C99.7609 394.962 98.8592 397.545 97.665 398.155C96.4709 398.764 97.1167 397.326 97.665 396.619C98.4699 395.506 99.0305 394.236 99.31 392.891Z" fill="#FAFAFA"/>
<path d="M99.7121 387.968C99.7121 387.968 100.102 388.09 99.7121 389.735C99.1756 390.744 98.3181 391.546 97.275 392.013C96.5074 392.111 96.1296 391.696 97.0801 390.978C97.7624 390.417 99.5659 388.772 99.7121 387.968Z" fill="#FAFAFA"/>
<path d="M109.424 207.613C107.62 209.551 103.148 216.033 102.429 226.013C102.139 232.526 104.087 238.942 107.949 244.194C109.387 266.31 109.363 308.093 109.363 308.093C104.363 315.228 100.652 323.183 98.3961 331.599C96.4099 338.142 89.0743 360.685 89.0743 360.685C101.089 358.991 105.269 372.98 105.269 372.98C105.269 372.98 117.807 353.142 127.97 337.643C135.427 326.261 140.435 317.781 142.677 311.066C144.737 304.901 146.223 297.431 148.234 283.04C150.244 268.649 152.206 249.677 153.193 235.518C154.18 221.358 153.608 200.875 153.608 200.875L109.424 207.613Z" fill="#263238"/>
<path d="M91.5723 224.965C93.1949 224.389 94.6052 223.336 95.6178 221.943C96.102 220.951 96.4504 219.897 96.6535 218.812C97.0769 216.997 97.6474 215.221 98.3595 213.499L99.3952 213.986C98.7131 215.649 98.1671 217.365 97.7624 219.116C97.5204 220.321 97.1102 221.486 96.5439 222.577C95.3626 224.28 93.6475 225.54 91.6698 226.16C91.6332 225.757 91.5966 225.355 91.5723 224.965Z" fill="black"/>
<path d="M118.611 237.613C118.37 237.618 118.128 237.594 117.893 237.54C116.235 237.15 114.956 235.993 112.385 232.544C110.447 229.924 110.642 228.048 110.971 224.928C111.093 223.783 112.19 217.617 112.312 216.058L113.408 216.691C113.323 218.348 112.19 223.905 112.105 225.063C111.776 228.158 111.629 229.571 113.323 231.813C115.687 234.994 116.82 236.054 118.197 236.37C119.574 236.687 125.277 235.676 126.824 234.555C127.702 233.897 129.201 225.903 130.066 218.872L131.199 219.019C130.76 222.577 129.188 234.287 127.47 235.542C125.874 236.675 120.915 237.699 118.611 237.613Z" fill="black"/>
<path d="M126.105 121.282L124.022 136.514L103.331 135.466L105.561 118.967L126.105 121.282Z" fill="#FFA8A7"/>
<path d="M134.343 92.792C135.927 94.8147 140.789 100.31 141.654 101.748L137.011 104.563L134.343 92.792Z" fill="#F28F8F"/>
<path d="M122.84 77.4751C129.225 76.7927 133.38 81.3256 135.232 94.9244C135.305 95.4606 136.097 96.3013 136.694 98.3363C139.253 107.073 137.828 115.396 136.341 117.601C132.686 120.574 128.518 121.683 122.56 121.184C118.014 120.794 106.414 119.405 100.529 113.275C93.6195 106.013 90.1711 95.1681 95.0452 89.5141C101.954 81.5693 119.306 77.8528 122.84 77.4751Z" fill="#FFA8A7"/>
<path d="M136.341 117.602C135.525 118.82 129.676 121.818 125.996 122.061L126.337 119.198C129.727 119.108 133.091 118.572 136.341 117.602Z" fill="#F28F8F"/>
<path d="M124.095 101.322C124.026 101.534 123.9 101.722 123.73 101.868C123.561 102.013 123.356 102.109 123.136 102.145C122.916 102.182 122.69 102.157 122.483 102.074C122.276 101.991 122.096 101.853 121.962 101.675C121.286 100.688 120.502 99.7811 119.623 98.97C118.518 98.0516 117.11 97.578 115.675 97.6418C110.313 98.0439 111.617 105.111 114.249 107.573C118.563 111.606 120.854 108.121 120.854 108.121C120.854 108.121 123.949 114.969 119.44 118.966C119.44 118.966 111.654 122.329 105.537 120.428C101.176 117.047 97.3444 113.035 94.1678 108.523C86.8566 98.4704 87.5146 88.1495 92.1938 85.3712C91.9257 81.8009 93.8631 76.4394 101.186 73.3444C108.156 70.3955 112.836 70.688 117.88 70.9073C122.925 71.1266 129.127 73.4906 133.819 69.5791C134.392 70.9926 134.62 72.5224 134.485 74.0418C134.349 75.5611 133.853 77.0263 133.039 78.3159C133.797 77.9524 134.668 77.9047 135.461 78.1835C136.254 78.4623 136.904 79.0447 137.267 79.8025C137.631 80.5604 137.678 81.4316 137.399 82.2246C137.121 83.0175 136.538 83.6673 135.78 84.0308C136.289 84.3077 136.682 84.7565 136.89 85.2968C137.097 85.8371 137.106 86.4336 136.914 86.9797C136.71 87.5215 136.354 87.9932 135.89 88.3389C135.425 88.6845 134.871 88.8894 134.294 88.9293C133.233 88.9887 132.169 88.9192 131.126 88.7222C129.651 92.8408 125.033 94.2908 122.23 94.1081C122.316 94.1081 122.669 94.6808 122.718 94.7539C122.767 94.827 123.023 95.2169 123.157 95.4606C123.423 95.9508 123.643 96.4648 123.815 96.996C124.161 98.0643 124.294 99.1907 124.204 100.31C124.23 100.651 124.192 100.994 124.095 101.322Z" fill="#263238"/>
<path d="M92.474 128.665C87.1003 131.663 83.7738 140.059 84.9435 152.207C86.3205 166.696 88.5991 169.827 90.232 181.915C91.167 188.179 91.6151 194.506 91.5723 200.839C91.5723 206.603 90.7925 218.252 90.7925 218.252C90.7925 218.252 97.9818 227.159 117.734 228.317C142.933 229.803 154.107 223.711 154.107 223.711C154.107 223.711 154.253 197.659 153.656 181.391C152.755 157.264 152.694 150.209 148.928 141.996C147.71 139.559 146.382 134.173 142.275 133.101C139.022 132.26 127.958 129.738 124.984 129.287C120.11 130.505 107.474 130.64 104.343 127.971V127.276C99.5293 127.532 92.474 128.665 92.474 128.665Z" fill="#37474F"/>
<path d="M100.273 127.617C103.489 124.742 103.928 124.352 104.891 123.962L104.696 125.412C104.696 125.412 105.342 127.142 111.446 127.752C122.06 128.812 125.399 126.399 125.399 126.399L125.508 125.509C126.533 125.45 127.539 125.796 128.311 126.472C130.041 127.691 133.916 131.188 133.916 131.188L131.15 130.579C131.15 130.579 124.96 135.977 109.826 133.832C99.2978 132.284 100.273 127.617 100.273 127.617Z" fill="#263238"/>
<path d="M223.758 142.568C223.268 142.804 222.753 142.984 222.223 143.105C217.905 144.404 213.323 144.555 208.929 143.543C208.608 143.499 208.301 143.382 208.032 143.2C207.764 143.018 207.541 142.777 207.381 142.495C207.269 142.097 207.269 141.675 207.381 141.277L207.893 138.255C208.156 137.014 208.251 135.743 208.173 134.477C208.133 133.675 207.814 132.913 207.272 132.321C206.699 131.772 206.285 131.614 205.59 132.004C205.146 132.522 204.847 133.148 204.725 133.819C203.884 136.573 202.568 137.743 201.069 140.96C199.57 144.177 198.498 146.224 193.185 150.708C191.309 152.292 173.201 164.392 173.201 164.392C173.201 164.392 171.033 161.882 160.188 147.784C152.791 138.157 150.561 135.891 143.457 134.38C143.457 134.38 135.037 144.274 141.154 160.066C143.384 164.307 156.191 177.37 161.016 181.549C168.973 188.434 173.36 190.92 179.075 185.729C185.253 180.123 190.042 174.262 195.257 168.523C199.753 163.649 201.703 161.858 205.31 160.554C209.276 158.938 212.945 156.673 216.167 153.852C216.849 153.309 217.451 152.673 217.958 151.963C218.409 151.269 218.701 150.477 219.177 149.794C220.074 148.75 221.03 147.757 222.04 146.821C222.966 145.838 223.585 144.605 223.819 143.275C223.77 143.044 223.856 142.727 223.758 142.568Z" fill="#FFA8A7"/>
<path d="M188.786 153.646L193.575 150.088C196.114 150.797 198.314 152.392 199.777 154.584C201.231 156.821 202.191 159.343 202.592 161.981L198.937 165.21L188.786 153.646Z" fill="#F0F0F0"/>
<path d="M142.568 133.198C149.794 134.746 152.316 135.55 155.971 139.973C159.627 144.397 173.153 163.479 173.153 163.479L190.212 152.134C192.728 153.076 194.949 154.67 196.646 156.752C198.516 159.114 199.628 161.985 199.838 164.99C199.838 164.99 188.872 177.175 182.45 183.487C176.028 189.799 173.031 191.017 166.11 186.436C159.188 181.854 143.993 166.537 143.993 166.537C143.993 166.537 130.858 148.247 142.568 133.198Z" fill="#455A64"/>
<path d="M205.249 160.518C206.136 160.256 206.915 159.713 207.466 158.97C208.161 157.654 209.124 156.85 209.428 155.388C209.513 154.837 209.648 154.294 209.83 153.767C210.214 152.957 210.771 152.241 211.463 151.671C212.085 151.087 212.572 150.453 213.242 149.831C213.559 149.551 214.144 149.283 214.522 149.661C214.666 149.101 214.905 148.569 215.228 148.089C215.582 147.602 216.557 146.749 217.166 147.309C217.326 147.468 217.451 147.659 217.531 147.87C218.116 149.088 218.689 150.307 219.274 151.525C219.435 151.824 219.554 152.144 219.627 152.476C219.646 152.879 219.584 153.283 219.443 153.661C219.303 154.04 219.088 154.387 218.811 154.681C218.518 155.058 218.169 155.386 217.775 155.656C217.3 155.985 216.739 156.168 216.252 156.497C215.265 157.167 214.704 158.398 213.62 158.934C212.95 159.263 212.158 159.275 211.463 159.543C210.769 159.811 210.391 160.152 209.843 160.42C208.324 160.673 206.777 160.706 205.249 160.518Z" fill="#B16668"/>
<path d="M205.249 160.518C206.136 160.256 206.915 159.713 207.466 158.97C208.161 157.654 209.124 156.85 209.428 155.388C209.513 154.837 209.648 154.294 209.83 153.767C210.214 152.957 210.771 152.241 211.463 151.671C212.085 151.087 212.572 150.453 213.242 149.831C213.559 149.551 214.144 149.283 214.522 149.661C214.666 149.101 214.905 148.569 215.228 148.089C215.582 147.602 216.557 146.749 217.166 147.309C217.326 147.468 217.451 147.659 217.531 147.87C218.116 149.088 218.689 150.307 219.274 151.525C219.435 151.824 219.554 152.144 219.627 152.476C219.646 152.879 219.584 153.283 219.443 153.661C219.303 154.04 219.088 154.387 218.811 154.681C218.518 155.058 218.169 155.386 217.775 155.656C217.3 155.985 216.739 156.168 216.252 156.497C215.265 157.167 214.704 158.398 213.62 158.934C212.95 159.263 212.158 159.275 211.463 159.543C210.769 159.811 210.391 160.152 209.843 160.42C208.324 160.673 206.777 160.706 205.249 160.518Z" fill="#B16668"/>
<path d="M223.502 134.661C221.065 136.331 218.689 136.209 215.363 136.257C214.295 136.237 213.227 136.302 212.17 136.452C211.782 136.512 211.402 136.614 211.037 136.757C210.603 137.008 210.194 137.302 209.818 137.634C208.064 138.853 205.785 139.547 204.566 141.412C203.86 142.484 203.628 143.849 202.921 144.897C202.595 145.321 202.293 145.765 202.02 146.225C201.893 146.462 201.833 146.728 201.846 146.997C201.859 147.265 201.944 147.525 202.093 147.748C202.263 147.938 202.476 148.085 202.714 148.175C203.57 148.519 204.519 148.549 205.395 148.26C207.174 147.651 208.222 145.823 209.721 144.714C210.882 143.892 212.202 143.319 213.596 143.032C214.227 142.848 214.871 142.706 215.521 142.606C216.04 142.602 216.558 142.647 217.068 142.74C219.335 142.935 223.502 134.661 223.502 134.661Z" fill="#B16668"/>
<path d="M18.1317 106.134C17.3809 106.133 16.6382 105.98 15.9489 105.682C15.2595 105.385 14.6382 104.95 14.1227 104.404L1.70595 91.134C0.712188 90.0675 0.182781 88.6499 0.234198 87.1931C0.285614 85.7363 0.913641 84.3596 1.98011 83.3659C3.04659 82.3721 4.46415 81.8427 5.92095 81.8941C7.37776 81.9455 8.75447 82.5735 9.74823 83.64L17.8149 92.255L36.8605 68.0794C37.7816 67.004 39.0831 66.3266 40.4924 66.189C41.9018 66.0515 43.3097 66.4645 44.4214 67.3416C45.5331 68.2187 46.2624 69.4918 46.4566 70.8944C46.6508 72.2971 46.2948 73.7205 45.4633 74.8666L22.4331 104.111C21.944 104.73 21.3274 105.237 20.6251 105.596C19.9229 105.956 19.1514 106.16 18.3632 106.195L18.1317 106.134Z" fill="#D92378"/>
<path d="M376.525 81.7752C375.777 81.7752 375.037 81.6228 374.35 81.3274C373.663 81.0321 373.043 80.5998 372.528 80.057L360.075 66.8117C359.152 65.7413 358.678 64.356 358.752 62.9447C358.826 61.5335 359.442 60.2053 360.472 59.2371C361.501 58.269 362.865 57.7357 364.278 57.7484C365.691 57.7612 367.044 58.319 368.056 59.3055L376.147 67.8352L395.181 43.6231C395.625 43.0574 396.176 42.5847 396.803 42.2321C397.429 41.8794 398.119 41.6536 398.833 41.5676C399.547 41.4816 400.271 41.5371 400.964 41.7309C401.656 41.9247 402.304 42.2529 402.87 42.697C403.435 43.1411 403.908 43.6922 404.261 44.3189C404.613 44.9456 404.839 45.6357 404.925 46.3497C405.011 47.0636 404.956 47.7876 404.762 48.4801C404.568 49.1726 404.24 49.8202 403.796 50.3859L380.826 79.6306C380.338 80.2513 379.722 80.7597 379.02 81.1214C378.317 81.483 377.546 81.6893 376.757 81.7264L376.525 81.7752Z" fill="#D92378"/>
</g>
<defs>
<clipPath id="clip0_661_250">
<rect width="433.796" height="513" fill="white"/>
</clipPath>
</defs>
</svg>
