<svg width="340" height="300" viewBox="0 0 340 300" fill="none" xmlns="http://www.w3.org/2000/svg">
<path d="M202.84 169.519H195.01V286.897H202.84V169.519Z" fill="#455A64"/>
<path d="M254.878 158.095H63.238V169.519H254.878V158.095Z" fill="#455A64"/>
<path d="M109.834 169.519H102.004V286.897H109.834V169.519Z" fill="#455A64"/>
<path d="M205.81 169.255C205.81 169.345 174.046 169.411 134.872 169.411C95.698 169.411 63.922 169.345 63.922 169.255C63.922 169.165 95.68 169.099 134.872 169.099C174.064 169.099 205.81 169.201 205.81 169.255Z" fill="#263238"/>
<path d="M130.804 129.3C130.162 129.455 129.573 129.776 129.094 130.23C128.616 130.685 128.266 131.257 128.078 131.89C127.891 132.523 127.874 133.194 128.028 133.836C128.182 134.478 128.502 135.067 128.956 135.546H120.784V144.6C121.159 143.832 121.783 143.214 122.555 142.847C123.326 142.479 124.199 142.384 125.032 142.576C125.864 142.769 126.607 143.238 127.139 143.907C127.671 144.575 127.961 145.405 127.961 146.259C127.961 147.114 127.671 147.943 127.139 148.612C126.607 149.281 125.864 149.75 125.032 149.942C124.199 150.135 123.326 150.039 122.555 149.672C121.783 149.304 121.159 148.686 120.784 147.918V158.082H143.332V135.546H134.452C135.012 134.954 135.365 134.197 135.458 133.387C135.552 132.578 135.38 131.76 134.969 131.056C134.558 130.352 133.93 129.801 133.179 129.484C132.428 129.168 131.595 129.103 130.804 129.3Z" fill="#263238"/>
<path d="M127.846 145.344C127.694 144.7 127.372 144.107 126.915 143.628C126.457 143.149 125.879 142.801 125.242 142.62C124.612 142.438 123.946 142.423 123.308 142.576C122.67 142.73 122.084 143.047 121.606 143.496L121.522 135.486H110.722C111.49 135.861 112.108 136.486 112.476 137.257C112.843 138.028 112.938 138.902 112.746 139.734C112.553 140.567 112.085 141.31 111.416 141.841C110.747 142.373 109.918 142.663 109.063 142.663C108.209 142.663 107.379 142.373 106.71 141.841C106.042 141.31 105.573 140.567 105.38 139.734C105.188 138.902 105.283 138.028 105.651 137.257C106.018 136.486 106.636 135.861 107.404 135.486H98.2781V158.034H121.738L121.6 148.992C122.298 149.648 123.222 150.009 124.18 150C124.75 150 125.313 149.87 125.826 149.621C126.339 149.371 126.789 149.009 127.142 148.561C127.495 148.113 127.741 147.591 127.863 147.034C127.985 146.476 127.979 145.899 127.846 145.344Z" fill="white"/>
<g opacity="0.3">
<path d="M98.2001 146.568C98.9234 146.766 99.6842 146.785 100.416 146.621C101.148 146.458 101.829 146.119 102.4 145.632C102.964 145.136 103.421 144.53 103.744 143.851C104.067 143.172 104.249 142.435 104.278 141.684C104.33 140.173 103.893 138.685 103.03 137.442L105.838 135.444H98.2781L98.2001 146.568Z" fill="black"/>
</g>
<path d="M263.992 208.428V287.502H270.34V208.428H263.992Z" fill="#455A64"/>
<path d="M321.7 201.426H244.852V213.714H321.7V201.426Z" fill="#455A64"/>
<path d="M250.294 208.428V287.502H256.642V208.428H250.294Z" fill="#455A64"/>
<path d="M292.24 208.422V287.496H298.588V208.422H292.24Z" fill="#455A64"/>
<path d="M309.112 208.422V287.496H315.46V208.422H309.112Z" fill="#455A64"/>
<path d="M308.2 213.714C308.046 211.67 307.993 209.619 308.044 207.57C307.994 205.52 308.046 203.47 308.2 201.426C308.358 203.47 308.41 205.52 308.356 207.57C308.41 209.619 308.358 211.67 308.2 213.714Z" fill="#263238"/>
<path d="M321.07 213.715C321.07 213.805 304.012 213.871 282.964 213.871C261.916 213.871 244.852 213.805 244.852 213.715C244.852 213.625 261.916 213.559 282.964 213.559C304.012 213.559 321.07 213.631 321.07 213.715Z" fill="#263238"/>
<path d="M310.132 245.022H256.246V250.272H310.132V245.022Z" fill="#455A64"/>
<path d="M187.21 125.004C186.61 125.275 186.091 125.699 185.705 126.232C185.319 126.766 185.08 127.392 185.012 128.047C184.943 128.702 185.047 129.363 185.314 129.965C185.581 130.567 186.001 131.089 186.532 131.478L178.672 133.026L178.798 133.71L180.652 143.67C180.883 142.851 181.384 142.134 182.074 141.635C182.764 141.137 183.603 140.887 184.453 140.927C185.304 140.966 186.116 141.292 186.757 141.852C187.398 142.412 187.831 143.172 187.985 144.01C188.139 144.847 188.005 145.712 187.605 146.463C187.204 147.214 186.561 147.808 185.78 148.147C185 148.486 184.127 148.551 183.305 148.331C182.482 148.11 181.759 147.618 181.252 146.934L182.914 155.874L205.084 151.752L200.968 129.6L200.8 128.7L191.938 130.5C192.38 129.816 192.588 129.007 192.531 128.195C192.474 127.382 192.156 126.61 191.623 125.994C191.091 125.378 190.373 124.951 189.577 124.777C188.782 124.602 187.951 124.691 187.21 125.028V125.004Z" fill="white"/>
<path d="M245.974 109.656C245.668 110.064 234.64 129.744 234.64 129.744L209.902 135.216L211.924 146.49C211.924 146.49 239.2 143.562 243.046 140.538C246.892 137.514 255.868 119.124 255.868 119.124L245.974 109.656Z" fill="#936760"/>
<path d="M209.902 135.216L202.354 136.008C202.018 136.044 195.064 139.836 195.064 139.836C195.064 139.836 194.524 140.574 196.792 140.49C198.688 140.304 200.556 139.902 202.36 139.29L204.592 149.112L212.494 146.4L213.754 137.316L209.902 135.216Z" fill="#936760"/>
<path d="M279.43 166.35C279.43 166.35 231.13 166.146 227.302 166.35C220.492 166.716 215.902 174.318 215.02 178.26C214.138 182.202 193 242.904 193 242.904L209.398 253.512L231.4 203.862L242.476 184.602L302.716 195.126L279.43 166.35Z" fill="#936760"/>
<path d="M242.2 182.82C242.2 182.82 233.284 182.82 228.466 189.954C225.64 194.154 226.63 201.642 226.576 207.294C226.498 214.998 228.502 274.74 228.502 274.74C234.184 278.778 240.532 279.24 247.468 276.54L252.376 210.408L251.11 200.544L284.056 201.27C284.056 201.27 289.924 190.29 281.77 181.578C280.69 180.45 242.2 182.82 242.2 182.82Z" fill="#936760"/>
<path d="M228.478 274.116V275.316C228.478 275.316 207.802 283.38 207.544 287.286L248.44 287.478L247.948 273.87C241.834 276.678 235.474 276.96 228.478 274.116Z" fill="white"/>
<path d="M248.422 287.497L248.302 284.227L209.152 285.235C209.152 285.235 207.352 286.021 207.526 287.305L248.422 287.497Z" fill="#E0E0E0"/>
<path d="M193.792 240.378L193.33 241.5C193.33 241.5 171.13 241.374 169.462 244.908L207.4 260.166L211.96 247.338C205.27 247.68 199.246 245.598 193.792 240.378Z" fill="white"/>
<path d="M207.4 260.167L208.498 257.083L171.73 243.601C171.73 243.601 169.75 243.655 169.462 244.921L207.4 260.167Z" fill="#E0E0E0"/>
<path d="M191.8 246.156C191.848 246.156 192.04 245.94 192.202 245.472C192.405 244.856 192.453 244.198 192.34 243.558C192.237 242.918 191.98 242.313 191.59 241.794C191.278 241.404 191.02 241.242 190.99 241.278C190.96 241.314 191.704 242.244 191.92 243.63C192.136 245.016 191.674 246.108 191.8 246.156Z" fill="#263238"/>
<path d="M193.966 246.528C194.062 246.582 194.566 245.406 194.326 243.9C194.086 242.394 193.192 241.458 193.126 241.542C193.06 241.626 193.678 242.592 193.906 243.978C194.134 245.364 193.834 246.492 193.966 246.528Z" fill="#263238"/>
<path d="M188.494 245.88C188.578 245.964 189.304 245.154 189.454 243.882C189.604 242.61 189.124 241.644 189.022 241.704C188.92 241.764 189.178 242.676 189.022 243.828C188.866 244.98 188.386 245.808 188.494 245.88Z" fill="#263238"/>
<path d="M190.756 241.602C190.756 241.65 191.326 241.362 191.884 240.588C192.203 240.135 192.47 239.648 192.682 239.136C192.802 238.854 192.922 238.536 193.042 238.236C193.113 238.067 193.167 237.893 193.204 237.714C193.227 237.595 193.222 237.473 193.19 237.356C193.157 237.239 193.099 237.132 193.018 237.042C192.923 236.946 192.799 236.885 192.665 236.869C192.531 236.852 192.395 236.882 192.28 236.952C192.105 237.05 191.953 237.185 191.836 237.348C191.635 237.615 191.462 237.903 191.32 238.206C191.077 238.711 190.922 239.255 190.864 239.814C190.765 240.323 190.821 240.849 191.026 241.326C191.098 241.326 191.026 240.726 191.17 239.862C191.268 239.348 191.439 238.85 191.68 238.386C191.82 238.112 191.986 237.852 192.178 237.612C192.352 237.366 192.628 237.222 192.706 237.348C192.784 237.474 192.766 237.774 192.64 238.092C192.514 238.41 192.418 238.692 192.304 238.98C192.121 239.477 191.894 239.957 191.626 240.414C191.164 241.2 190.708 241.548 190.756 241.602Z" fill="#263238"/>
<path d="M190.54 241.386C190.54 241.386 190.57 241.476 190.684 241.602L190.774 241.698V241.554C190.838 240.979 190.803 240.396 190.672 239.832C190.516 239.142 190.248 238.481 189.88 237.876C189.804 237.744 189.704 237.626 189.586 237.528C189.509 237.465 189.42 237.419 189.323 237.395C189.226 237.371 189.125 237.37 189.028 237.39C188.902 237.43 188.792 237.51 188.716 237.619C188.64 237.727 188.602 237.858 188.608 237.99C188.61 238.167 188.636 238.343 188.686 238.512C188.76 238.815 188.86 239.11 188.986 239.394C189.199 239.872 189.48 240.317 189.82 240.714C190.103 241.108 190.489 241.415 190.936 241.602C190.984 241.542 190.558 241.206 190.066 240.522C189.792 240.117 189.569 239.679 189.4 239.22C189.298 238.952 189.214 238.677 189.148 238.398C189.058 238.098 189.076 237.798 189.148 237.798C189.388 237.714 189.682 238.35 189.886 238.716C190.075 239.102 190.23 239.503 190.348 239.916C190.496 240.449 190.598 240.993 190.654 241.542L190.768 241.494C190.63 241.404 190.552 241.368 190.54 241.386Z" fill="#263238"/>
<path d="M228.826 279.99C228.88 279.99 228.922 279.678 228.826 279.198C228.677 278.566 228.374 277.981 227.944 277.494C227.52 277.002 226.982 276.621 226.378 276.384C225.91 276.21 225.598 276.21 225.592 276.264C225.586 276.318 226.702 276.714 227.614 277.782C228.526 278.85 228.7 280.014 228.826 279.99Z" fill="#263238"/>
<path d="M230.872 279.174C230.986 279.174 230.818 277.89 229.804 276.744C228.79 275.598 227.56 275.256 227.542 275.37C227.524 275.484 228.562 275.97 229.474 277.032C230.386 278.094 230.746 279.21 230.872 279.174Z" fill="#263238"/>
<path d="M225.874 281.484C225.988 281.484 226.18 280.44 225.646 279.276C225.112 278.112 224.188 277.542 224.134 277.644C224.08 277.746 224.776 278.394 225.244 279.444C225.712 280.494 225.742 281.478 225.874 281.484Z" fill="#263238"/>
<path d="M225.562 276.654C225.854 276.225 226.003 275.715 225.988 275.196C226.019 274.645 225.993 274.092 225.91 273.546C225.868 273.234 225.808 272.916 225.748 272.592C225.72 272.41 225.674 272.231 225.61 272.058C225.569 271.944 225.501 271.842 225.412 271.76C225.324 271.677 225.217 271.617 225.1 271.584C224.969 271.552 224.831 271.564 224.708 271.62C224.585 271.675 224.484 271.77 224.422 271.89C224.32 272.075 224.263 272.28 224.254 272.49C224.218 272.821 224.218 273.155 224.254 273.486C224.317 274.046 224.471 274.591 224.71 275.1C225.136 275.958 225.604 276.336 225.64 276.3C225.676 276.264 225.322 275.814 224.998 274.974C224.695 274.198 224.584 273.36 224.674 272.532C224.674 272.232 224.86 271.968 224.986 272.034C225.112 272.1 225.262 272.364 225.322 272.7C225.382 273.036 225.442 273.3 225.502 273.63C225.603 274.151 225.661 274.678 225.676 275.208C225.694 276.09 225.496 276.63 225.562 276.654Z" fill="#263238"/>
<path d="M225.262 276.6C225.262 276.6 225.334 276.66 225.502 276.708L225.628 276.744L225.568 276.606C225.322 276.084 224.99 275.607 224.584 275.196C224.27 274.871 223.922 274.579 223.546 274.326C223.333 274.187 223.112 274.059 222.886 273.942C222.75 273.867 222.602 273.819 222.448 273.798C222.351 273.785 222.252 273.793 222.158 273.824C222.065 273.854 221.979 273.904 221.908 273.972C221.823 274.069 221.771 274.191 221.76 274.319C221.749 274.448 221.78 274.576 221.848 274.686C221.945 274.835 222.06 274.972 222.19 275.094C222.412 275.315 222.653 275.515 222.91 275.694C223.339 275.992 223.81 276.225 224.308 276.384C224.755 276.571 225.246 276.629 225.724 276.552C225.724 276.48 225.196 276.42 224.416 276.09C223.965 275.9 223.538 275.656 223.144 275.364C222.914 275.191 222.697 275 222.496 274.794C222.262 274.59 222.124 274.326 222.214 274.29C222.376 274.092 222.958 274.476 223.318 274.686C223.681 274.91 224.023 275.167 224.338 275.454C224.743 275.833 225.116 276.244 225.454 276.684L225.52 276.582C225.352 276.552 225.268 276.558 225.262 276.6Z" fill="#263238"/>
<path d="M260.506 41.3342C261.012 39.7035 261.837 38.1897 262.933 36.8806C264.029 35.5714 265.374 34.4931 266.89 33.7082C270.226 32.0102 274.192 31.8662 277.84 32.7062C281.488 33.5462 284.854 35.2982 288.04 37.2662C289.84 38.3702 291.604 39.5762 292.84 41.2562C295.132 44.3222 297.352 49.3142 297.472 53.1422C297.568 56.2382 296.164 63.9422 294.778 66.7082C294.286 67.6982 293.128 68.5682 291.736 69.3002C290.245 72.0413 288.278 74.4955 285.928 76.5482C285.268 74.4562 284.61 72.3602 283.954 70.2602L260.506 41.3342Z" fill="#263238"/>
<path d="M262.396 37.5723L268.516 36.6543C264.964 44.4903 263.542 62.5983 261.4 70.9323C259.246 67.6143 254.314 57.5403 254.704 53.5983C255.094 49.6563 255.178 36.6903 262.396 37.5723Z" fill="#263238"/>
<path d="M290.902 51.6005C290.856 49.3737 290.097 47.2202 288.738 45.4558C287.379 43.6914 285.49 42.409 283.348 41.7965L269.422 37.8005C263.374 36.9725 259.114 44.3165 258.544 50.4005C257.908 57.1505 257.434 64.2725 258.082 69.3425C259.378 79.5425 267.082 81.0665 267.082 81.0665C267.082 81.0665 266.95 85.8665 266.866 88.8665L269.2 102.133L287.56 86.4605L290.962 51.7205C290.944 51.5465 290.908 51.8285 290.902 51.6005Z" fill="#936760"/>
<path d="M260.308 58.1522C260.295 58.4888 260.412 58.8174 260.636 59.0691C260.86 59.3209 261.172 59.4761 261.508 59.5022C261.673 59.5204 261.839 59.5055 261.998 59.4584C262.157 59.4112 262.305 59.3328 262.433 59.2277C262.561 59.1226 262.666 58.9929 262.744 58.8464C262.821 58.6998 262.868 58.5393 262.882 58.3742C262.897 58.0367 262.78 57.7065 262.556 57.4535C262.332 57.2004 262.019 57.0444 261.682 57.0182C261.517 57 261.35 57.0151 261.191 57.0626C261.032 57.1102 260.884 57.1891 260.755 57.2949C260.627 57.4006 260.522 57.5309 260.445 57.6782C260.368 57.8255 260.321 57.9867 260.308 58.1522Z" fill="#263238"/>
<path d="M259.954 54.4198C260.11 54.5938 261.118 53.8918 262.516 53.9398C263.914 53.9878 264.916 54.7198 265.078 54.5398C265.156 54.4678 265 54.1558 264.562 53.8138C263.969 53.3789 263.257 53.136 262.522 53.1178C261.792 53.0955 261.073 53.3056 260.47 53.7178C260.032 54.0358 259.876 54.3418 259.954 54.4198Z" fill="#263238"/>
<path d="M272.566 58.1998C272.553 58.5363 272.67 58.865 272.894 59.1167C273.118 59.3684 273.43 59.5236 273.766 59.5498C273.932 59.568 274.099 59.5529 274.258 59.5055C274.418 59.458 274.566 59.3791 274.695 59.2735C274.824 59.1678 274.93 59.0375 275.007 58.8902C275.085 58.7429 275.132 58.5816 275.146 58.4158C275.16 58.0792 275.042 57.7506 274.818 57.4988C274.594 57.2471 274.282 57.0919 273.946 57.0658C273.781 57.0467 273.613 57.0612 273.453 57.1083C273.293 57.1554 273.144 57.2342 273.016 57.34C272.887 57.4459 272.781 57.5765 272.703 57.7242C272.626 57.8719 272.579 58.0336 272.566 58.1998Z" fill="#263238"/>
<path d="M273.25 54.7982C273.406 54.9722 274.414 54.2762 275.812 54.3182C277.21 54.3602 278.212 55.0982 278.374 54.9182C278.452 54.8462 278.296 54.5342 277.858 54.1982C277.268 53.7569 276.555 53.5114 275.818 53.4962C275.087 53.4709 274.368 53.6813 273.766 54.0962C273.328 54.4202 273.172 54.7202 273.25 54.7982Z" fill="#263238"/>
<path d="M268.558 65.6705C267.827 65.4163 267.067 65.2551 266.296 65.1905C265.942 65.1425 265.606 65.0585 265.552 64.8125C265.532 64.443 265.626 64.0764 265.822 63.7625L266.962 61.0745C268.552 57.2405 269.71 54.0905 269.56 54.0245C269.41 53.9585 267.988 57.0245 266.404 60.8465L265.306 63.5525C265.067 63.9766 264.986 64.4722 265.078 64.9505C265.128 65.0815 265.209 65.1987 265.313 65.2926C265.418 65.3865 265.543 65.4543 265.678 65.4905C265.873 65.5516 266.074 65.586 266.278 65.5925C267.032 65.7116 267.798 65.7378 268.558 65.6705Z" fill="#263238"/>
<path d="M280.672 77.8438C280.672 77.8438 277.174 84.7137 267.052 83.4537L267.112 81.0537C271.842 81.2587 276.536 80.1475 280.672 77.8438Z" fill="#6F4C47"/>
<path d="M273.832 49.752C273.958 50.136 275.362 49.998 277 50.25C278.638 50.502 279.952 50.982 280.18 50.652C280.282 50.49 280.06 50.124 279.538 49.74C278.837 49.2663 278.037 48.9586 277.199 48.8401C276.361 48.7216 275.507 48.7954 274.702 49.056C274.09 49.278 273.778 49.572 273.832 49.752Z" fill="#263238"/>
<path d="M260.53 50.1483C260.77 50.4723 261.73 50.1483 262.93 50.1963C264.13 50.2443 265.06 50.4723 265.33 50.1483C265.432 49.9923 265.288 49.6683 264.868 49.3503C264.302 48.9729 263.637 48.7715 262.957 48.7715C262.277 48.7715 261.612 48.9729 261.046 49.3503C260.572 49.6683 260.428 49.9923 260.53 50.1483Z" fill="#263238"/>
<path d="M261.562 41.2145C261.945 40.4833 262.522 39.8722 263.231 39.4486C263.939 39.0251 264.751 38.8056 265.576 38.8145C267.235 38.8588 268.846 39.3772 270.22 40.3085C276.16 43.9745 279.022 52.5005 284.89 56.2805C286.336 57.2105 288.268 56.4545 289.486 57.6665C290.704 58.8785 291.454 60.7805 290.722 62.3345C291.606 61.2968 292.336 60.1368 292.888 58.8905C293.161 58.2646 293.298 57.5876 293.288 56.9047C293.279 56.2218 293.124 55.5488 292.834 54.9305C292.342 54.0245 291.454 53.3105 291.232 52.3025C291.034 51.4145 291.412 50.5025 291.4 49.5905C291.32 48.6659 291.026 47.7725 290.542 46.9805C288.322 42.7805 285.214 38.9405 281.134 36.4985C278.475 34.8585 275.42 33.9748 272.296 33.9425C269.161 33.9269 266.124 35.0336 263.734 37.0625C262.36 38.2625 260.92 39.5165 261.562 41.2265" fill="#263238"/>
<path d="M289.3 58.9078C289.414 58.6198 294.76 56.8618 294.7 62.5078C294.616 67.9798 289.132 66.7438 289.126 66.5878C289.12 66.4318 289.3 58.9078 289.3 58.9078Z" fill="#936760"/>
<path d="M290.8 64.5237C290.8 64.5237 290.89 64.5957 291.052 64.6677C291.164 64.7143 291.285 64.7382 291.406 64.7382C291.528 64.7382 291.648 64.7143 291.76 64.6677C292.36 64.4697 292.846 63.5577 292.894 62.5737C292.917 62.1056 292.835 61.6382 292.654 61.2057C292.605 61.0348 292.515 60.878 292.393 60.7486C292.271 60.6192 292.12 60.5208 291.952 60.4617C291.839 60.4221 291.714 60.426 291.604 60.4725C291.493 60.519 291.403 60.605 291.352 60.7137C291.28 60.8637 291.31 60.9717 291.28 60.9837C291.25 60.9957 291.166 60.8877 291.214 60.6657C291.246 60.5293 291.324 60.4083 291.436 60.3237C291.511 60.2687 291.597 60.2293 291.687 60.2077C291.778 60.186 291.872 60.1827 291.964 60.1977C292.187 60.2463 292.394 60.3512 292.566 60.5024C292.737 60.6537 292.866 60.8462 292.942 61.0617C293.167 61.5389 293.271 62.0648 293.242 62.5917C293.188 63.6957 292.606 64.7157 291.808 64.9257C291.661 64.9662 291.507 64.9726 291.357 64.9446C291.208 64.9165 291.066 64.8546 290.944 64.7637C290.83 64.6557 290.8 64.5357 290.8 64.5237Z" fill="#6F4C47"/>
<path d="M291.556 56.1603C291.443 56.1047 291.335 56.0405 291.232 55.9683C291.028 55.8303 290.71 55.6443 290.332 55.3683C289.277 54.5525 288.314 53.6251 287.458 52.6023C286.211 51.0684 285.051 49.4659 283.984 47.8023C282.698 45.7676 281.243 43.8448 279.634 42.0543C278.775 41.1542 277.822 40.3495 276.79 39.6543C275.822 39.0251 274.78 38.5173 273.688 38.1423C271.839 37.4866 269.882 37.1893 267.922 37.2663C266.599 37.3069 265.287 37.5248 264.022 37.9143C263.674 38.0122 263.332 38.1283 262.996 38.2623C262.879 38.3083 262.758 38.3464 262.636 38.3763C262.745 38.3128 262.86 38.2586 262.978 38.2143C263.308 38.0626 263.647 37.9304 263.992 37.8183C265.257 37.392 266.576 37.1456 267.91 37.0863C269.897 36.9883 271.885 37.2714 273.766 37.9203C274.876 38.2998 275.936 38.8136 276.922 39.4503C277.972 40.141 278.942 40.9459 279.814 41.8503C281.442 43.6592 282.91 45.6066 284.2 47.6703C285.254 49.3298 286.396 50.9321 287.62 52.4703C288.457 53.4965 289.393 54.4372 290.416 55.2783C290.782 55.5723 291.088 55.7703 291.28 55.9203C291.38 55.9907 291.472 56.0711 291.556 56.1603Z" fill="#455A64"/>
<path d="M291.4 65.5079C291.603 65.4752 291.81 65.501 291.999 65.5822C292.187 65.6634 292.349 65.7967 292.464 65.9663C292.58 66.136 292.645 66.335 292.651 66.5402C292.658 66.7453 292.605 66.948 292.501 67.1246C292.396 67.3012 292.243 67.4443 292.06 67.5372C291.877 67.6301 291.672 67.6689 291.467 67.6491C291.263 67.6293 291.069 67.5517 290.907 67.4254C290.745 67.2991 290.623 67.1293 290.554 66.9359C290.473 66.6755 290.49 66.3947 290.6 66.1454C290.71 65.8961 290.907 65.6952 291.154 65.5799" fill="white"/>
<path d="M291.16 65.5801C290.919 65.7619 290.739 66.0131 290.644 66.3001C290.6 66.4486 290.595 66.6058 290.628 66.757C290.662 66.9081 290.733 67.0482 290.836 67.1641C290.954 67.3109 291.112 67.4197 291.292 67.4767C291.471 67.5337 291.663 67.5364 291.844 67.4844C292.025 67.4325 292.186 67.3282 292.308 67.1847C292.43 67.0413 292.506 66.865 292.528 66.6781C292.55 66.5257 292.535 66.3702 292.484 66.225C292.432 66.0797 292.347 65.9491 292.234 65.8441C292.002 65.6494 291.714 65.5319 291.412 65.5081C291.412 65.5081 291.502 65.4541 291.67 65.4541C291.919 65.4617 292.157 65.5526 292.348 65.7121C292.497 65.8297 292.613 65.9838 292.684 66.1594C292.756 66.335 292.78 66.5261 292.756 66.7141C292.73 66.9473 292.635 67.1677 292.485 67.3479C292.335 67.5282 292.135 67.6603 291.91 67.7281C291.683 67.7847 291.445 67.7759 291.223 67.7026C291.001 67.6293 290.805 67.4946 290.656 67.3141C290.537 67.1677 290.458 66.993 290.426 66.8068C290.394 66.6207 290.412 66.4296 290.476 66.2521C290.548 66.009 290.7 65.7976 290.908 65.6521C291.058 65.5801 291.154 65.5681 291.16 65.5801Z" fill="#263238"/>
<path d="M290.14 57.6661C290.182 59.1601 290.206 60.7381 289.474 62.0461C288.742 63.3541 286.984 64.2061 285.706 63.4261C284.668 62.7901 284.386 61.4281 284.242 60.2161C283.822 56.7181 283.69 53.1961 283.24 49.7041L290.14 57.6661Z" fill="#263238"/>
<path d="M262.984 38.6517C262.984 38.6517 263.47 38.5737 264.346 38.5737C265.585 38.586 266.809 38.8451 267.946 39.3357C268.729 39.6586 269.477 40.0607 270.178 40.5357C270.976 41.1083 271.739 41.7274 272.464 42.3897C274.139 43.895 275.627 45.595 276.898 47.4537C277.564 48.4497 278.146 49.4637 278.788 50.4117C279.392 51.3343 280.103 52.1822 280.906 52.9377C282.289 54.1803 283.809 55.2613 285.436 56.1597C286.816 56.9397 287.968 57.4917 288.766 57.8697L289.69 58.2957C289.793 58.3546 289.904 58.3971 290.02 58.4217C289.924 58.3513 289.822 58.291 289.714 58.2417L288.82 57.7617C288.04 57.3537 286.9 56.7717 285.544 55.9617C283.95 55.0468 282.461 53.9603 281.104 52.7217C280.32 51.9762 279.627 51.1403 279.04 50.2317C278.44 49.2957 277.84 48.2757 277.15 47.2677C275.868 45.3867 274.357 43.6734 272.65 42.1677C271.911 41.505 271.133 40.8859 270.322 40.3137C269.602 39.8311 268.831 39.4287 268.024 39.1137C266.859 38.6306 265.606 38.3975 264.346 38.4297C264.004 38.4406 263.662 38.4787 263.326 38.5437C263.207 38.5631 263.092 38.5995 262.984 38.6517Z" fill="#455A64"/>
<path d="M290.386 54.2944C290.527 54.4301 290.687 54.5453 290.86 54.6364L292.222 55.4884L292.678 55.7704C292.86 55.8849 293.065 55.9586 293.278 55.9864C293.407 56.0014 293.538 55.974 293.65 55.9084C293.71 55.8693 293.76 55.8171 293.796 55.7557C293.832 55.6944 293.854 55.6255 293.86 55.5544C293.858 55.3016 293.776 55.0559 293.626 54.8524C293.152 54.0544 292.636 53.1724 292.09 52.2364L291.868 52.4344C292.921 53.2474 294.222 53.6713 295.552 53.6344C295.721 53.6362 295.889 53.6119 296.05 53.5624C296.143 53.5364 296.23 53.4909 296.305 53.4288C296.379 53.3668 296.44 53.2896 296.482 53.2024C296.515 53.1109 296.525 53.0129 296.511 52.9168C296.497 52.8206 296.461 52.7292 296.404 52.6504C296.316 52.5224 296.216 52.4038 296.104 52.2964C295.4 51.5802 294.794 50.7731 294.304 49.8964C293.874 49.0789 293.505 48.2306 293.2 47.3584C293.214 47.6123 293.265 47.8628 293.35 48.1024C293.542 48.7643 293.799 49.4055 294.118 50.0164C294.599 50.9264 295.205 51.7645 295.918 52.5064C296.116 52.7044 296.314 52.9324 296.23 53.1064C296.146 53.2804 295.846 53.3524 295.558 53.3464C294.932 53.3586 294.309 53.2633 293.716 53.0644C293.113 52.8776 292.548 52.585 292.048 52.2004L291.4 51.7024L291.814 52.3924L293.38 54.9904C293.502 55.1463 293.577 55.3336 293.596 55.5304C293.596 55.6864 293.452 55.7704 293.278 55.7524C292.93 55.6712 292.6 55.5246 292.306 55.3204L290.902 54.5464C290.737 54.448 290.565 54.3637 290.386 54.2944Z" fill="#455A64"/>
<path d="M273.808 68.4C273.717 67.9817 273.482 67.6086 273.145 67.3455C272.807 67.0824 272.388 66.946 271.96 66.96C271.648 66.9907 271.348 67.0983 271.087 67.2732C270.826 67.448 270.613 67.6846 270.466 67.962C270.326 68.2381 270.241 68.5393 270.217 68.8482C270.194 69.1571 270.231 69.4676 270.328 69.762V69.894C270.607 70.2217 270.98 70.4552 271.397 70.5626C271.814 70.67 272.253 70.646 272.656 70.494C273.053 70.3222 273.382 70.0232 273.59 69.6441C273.799 69.265 273.876 68.8273 273.808 68.4Z" fill="#6F4C47"/>
<path d="M269.338 69.9183C269.338 69.7083 270.754 69.8163 271.852 68.7183C272.95 67.6203 272.914 66.0663 273.112 66.0723C273.202 66.0723 273.364 66.4263 273.328 67.0683C273.276 67.8963 272.932 68.6788 272.356 69.2763C271.806 69.8538 271.053 70.194 270.256 70.2243C269.662 70.2003 269.32 70.0143 269.338 69.9183Z" fill="#263238"/>
<path d="M297.448 85.2486L287.728 84.4326C287.728 84.4326 282.4 91.5006 275.08 90.9546C267.76 90.4086 266.992 85.5126 266.992 85.5126C260.798 87.0385 255.157 90.2709 250.708 94.8426L250.546 95.0466L238.06 119.527L252.43 131.257L253.828 128.989L257.2 145.927L252.796 151.999L258.256 157.399C265.656 164.694 275.627 168.788 286.018 168.799L309.076 168.835L297.448 85.2486Z" fill="white"/>
<path d="M295.912 85.2002C295.912 85.2002 300.238 85.2002 302.788 86.6162C309.724 90.5342 319.066 112.866 319.066 112.866L300.466 123.348C300.466 123.348 293.8 109.074 291.592 102.216C291.076 100.608 292.252 92.5682 292.252 92.6162C292.252 92.6642 295.912 85.3382 295.912 85.2002Z" fill="white"/>
<path d="M251.566 104.809C251.594 104.943 251.606 105.08 251.602 105.217C251.602 105.517 251.632 105.907 251.65 106.387C251.65 107.407 251.746 108.877 251.842 110.695C252.034 114.331 252.442 119.341 253.216 124.837C253.99 130.333 255.016 135.265 255.844 138.811C256.258 140.611 256.606 142.015 256.858 143.011L257.14 144.151C257.18 144.281 257.207 144.416 257.218 144.553C257.161 144.427 257.115 144.296 257.08 144.163L256.744 143.041C256.45 142.063 256.066 140.641 255.628 138.871C254.486 134.262 253.579 129.598 252.91 124.897C252.244 120.195 251.813 115.463 251.62 110.719C251.554 108.919 251.524 107.419 251.53 106.399C251.53 105.919 251.53 105.529 251.53 105.229C251.527 105.088 251.539 104.947 251.566 104.809Z" fill="#263238"/>
<g opacity="0.3">
<path d="M304 142.23C302.699 140.789 301.2 139.541 299.548 138.522L264.922 114.888L263.242 116.292C263.098 119.016 265.276 121.254 267.322 123.066C278.463 132.924 290.666 141.513 303.706 148.674C303.981 148.858 304.305 148.959 304.636 148.962C305.236 148.902 305.968 147.888 306.076 147.282C306.436 145.374 305.254 143.736 304 142.23Z" fill="black"/>
</g>
<path d="M319.066 112.843C318.949 112.93 318.827 113.011 318.7 113.083L317.632 113.719L313.672 116.005L300.514 123.457L300.364 123.547L300.298 123.385L300.196 123.151L294.13 109.117C293.38 107.317 292.762 105.889 292.33 104.845C292.132 104.365 291.976 103.975 291.856 103.681C291.797 103.546 291.746 103.408 291.706 103.267C291.788 103.389 291.856 103.52 291.91 103.657C292.048 103.945 292.222 104.323 292.444 104.797L294.34 109.027C295.924 112.627 298.09 117.577 300.49 123.031L300.586 123.259L300.37 123.187L313.57 115.813L317.578 113.611L318.676 113.011C318.799 112.94 318.93 112.884 319.066 112.843Z" fill="#263238"/>
<path d="M191.884 228.918C191.884 228.918 212.488 162.348 216.082 157.074C219.676 151.8 226.15 145.572 238.846 148.452C251.542 151.332 287.254 163.308 295.402 165.252C303.55 167.196 307.63 167.688 307.63 167.688C307.63 167.688 312.256 173.316 312.256 186.288C312.256 201.792 296.2 201.576 288.772 202.056C281.344 202.536 259.372 202.656 259.372 202.656L251.674 262.524C251.674 262.524 244.15 265.398 239.116 260.37C234.082 255.342 236.002 249.822 228.574 249.102C221.146 248.382 210.604 247.902 207.724 235.206C204.844 222.51 191.884 228.918 191.884 228.918Z" fill="#263238"/>
<path d="M240.058 173.118C240.054 173.181 240.042 173.244 240.022 173.304C239.98 173.436 239.932 173.616 239.872 173.832C239.734 174.318 239.536 175.002 239.272 175.866C238.744 177.666 237.982 180.198 237.046 183.336C235.162 189.654 232.558 198.336 229.69 207.936C226.822 217.536 224.29 226.278 222.49 232.602C221.596 235.752 220.876 238.308 220.366 240.096L219.766 242.136C219.706 242.358 219.652 242.532 219.61 242.664C219.596 242.726 219.576 242.786 219.55 242.844C219.553 242.781 219.563 242.719 219.58 242.658C219.616 242.52 219.658 242.346 219.706 242.124L220.228 240.066C220.678 238.266 221.38 235.716 222.25 232.542C224.008 226.2 226.528 217.47 229.39 207.846C232.252 198.222 234.898 189.528 236.836 183.246C237.814 180.12 238.606 177.582 239.158 175.806L239.806 173.79L239.986 173.268C240.004 173.216 240.028 173.165 240.058 173.118Z" fill="#455A64"/>
<path d="M267.934 166.632C267.836 166.641 267.738 166.641 267.64 166.632L266.788 166.662C266.05 166.662 264.988 166.728 263.674 166.818C260.249 167.066 256.856 167.639 253.54 168.528C250.221 169.4 247.029 170.696 244.042 172.386L243.232 172.86L242.53 173.316C242.092 173.604 241.714 173.85 241.426 174.078L240.736 174.576C240.657 174.636 240.573 174.689 240.484 174.732C240.484 174.732 240.55 174.654 240.694 174.522L241.354 173.982C241.7 173.694 242.06 173.424 242.434 173.172L243.124 172.692L243.928 172.2C246.904 170.436 250.114 169.099 253.462 168.228C256.795 167.327 260.214 166.78 263.662 166.596C264.982 166.536 266.062 166.512 266.794 166.542H267.646C267.746 166.557 267.843 166.587 267.934 166.632Z" fill="#455A64"/>
<path d="M240.484 253.638C240.394 253.638 240.688 239.928 241.126 223.038C241.564 206.148 242.002 192.438 242.086 192.438C242.17 192.438 241.882 206.154 241.444 223.038C241.006 239.922 240.568 253.644 240.484 253.638Z" fill="#455A64"/>
<path d="M238.6 160.116C238.6 160.116 238.732 160.242 238.924 160.506C239.187 160.879 239.425 161.267 239.638 161.67C240.346 163.01 240.842 164.451 241.108 165.942C241.373 167.435 241.401 168.959 241.192 170.46C241.131 170.913 241.04 171.362 240.922 171.804C240.832 172.116 240.778 172.284 240.754 172.278C240.73 172.272 240.862 171.57 240.976 170.436C241.266 167.462 240.735 164.465 239.44 161.772C238.966 160.74 238.6 160.146 238.6 160.116Z" fill="#455A64"/>
<path d="M207.484 213.679C206.893 211.103 206.508 208.485 206.332 205.849C206.68 207.125 206.925 208.427 207.064 209.743C207.307 211.042 207.447 212.358 207.484 213.679Z" fill="white"/>
<path d="M221.518 225.786C221.182 226.045 220.812 226.259 220.42 226.422C219.724 226.776 218.752 227.25 217.672 227.754C216.592 228.258 215.608 228.696 214.888 229.002C214.507 229.195 214.104 229.342 213.688 229.44C214.025 229.181 214.394 228.967 214.786 228.804C215.482 228.444 216.448 227.976 217.528 227.472C218.608 226.968 219.592 226.524 220.312 226.224C220.695 226.03 221.1 225.883 221.518 225.786Z" fill="white"/>
<path d="M222.598 207.906C221.879 206.286 221.356 204.586 221.038 202.842C221.442 203.634 221.754 204.469 221.968 205.332C222.279 206.162 222.491 207.026 222.598 207.906Z" fill="white"/>
<path d="M215.866 185.4C214.901 185.937 213.855 186.316 212.77 186.522C211.708 186.829 210.605 186.966 209.5 186.93C209.5 186.84 210.946 186.642 212.698 186.222C214.45 185.802 215.836 185.334 215.866 185.4Z" fill="white"/>
<path d="M231.628 186.894C231.202 185.965 230.869 184.996 230.632 184.002C230.304 183.027 230.071 182.022 229.936 181.002C230.369 181.93 230.703 182.902 230.932 183.9C231.267 184.871 231.5 185.875 231.628 186.894Z" fill="white"/>
<path d="M223.504 169.8C223.336 168.354 223.376 166.891 223.624 165.456C223.792 166.902 223.752 168.365 223.504 169.8Z" fill="white"/>
<path d="M227.8 154.602C226.918 154.836 226.012 154.97 225.1 155.004C224.199 155.138 223.285 155.168 222.376 155.094C223.258 154.86 224.164 154.725 225.076 154.692C225.978 154.558 226.892 154.528 227.8 154.602Z" fill="white"/>
<path d="M247.072 161.964C246.598 160.56 246.327 159.095 246.268 157.614C246.552 158.301 246.74 159.024 246.826 159.762C247.007 160.482 247.09 161.223 247.072 161.964Z" fill="white"/>
<path d="M265.348 159.601C264.029 160.519 262.6 161.267 261.094 161.827C262.407 160.899 263.838 160.151 265.348 159.601Z" fill="white"/>
<path d="M253.906 182.562C252.695 181.818 251.541 180.984 250.456 180.066C249.305 179.23 248.214 178.314 247.192 177.324C248.405 178.069 249.56 178.903 250.648 179.82C251.797 180.657 252.885 181.573 253.906 182.562Z" fill="white"/>
<path d="M269.35 175.038C268.617 175.791 267.813 176.472 266.95 177.072C266.151 177.755 265.287 178.358 264.37 178.872C265.892 177.43 267.558 176.149 269.344 175.05L269.35 175.038Z" fill="white"/>
<path d="M293.158 173.79C291.635 172.019 290.27 170.118 289.078 168.108C290.605 169.877 291.97 171.778 293.158 173.79Z" fill="white"/>
<path d="M305.032 184.548C304.706 184.93 304.34 185.276 303.94 185.58C303.232 186.18 302.242 186.99 301.12 187.848C299.998 188.706 298.96 189.462 298.192 189.984C297.797 190.293 297.368 190.557 296.914 190.77C297.265 190.412 297.648 190.089 298.06 189.804L300.928 187.602L303.796 185.406C304.178 185.078 304.592 184.791 305.032 184.548Z" fill="white"/>
<path d="M281.386 194.034C281.384 192.714 281.49 191.395 281.704 190.092C281.801 188.779 282.002 187.475 282.304 186.192C282.306 187.511 282.2 188.827 281.986 190.128C281.888 191.444 281.687 192.75 281.386 194.034Z" fill="white"/>
<path d="M268.336 198.732C267.903 198.628 267.488 198.464 267.1 198.246C266.14 197.78 265.206 197.262 264.304 196.692C263.401 196.122 262.531 195.501 261.7 194.832C261.338 194.573 261.012 194.268 260.728 193.926C260.788 193.854 262.372 195.126 264.472 196.428C266.572 197.73 268.378 198.648 268.336 198.732Z" fill="white"/>
<path d="M248.254 203.484C248.188 203.424 249.352 202.158 250.618 200.484C251.884 198.81 252.79 197.346 252.868 197.394C252.356 198.572 251.683 199.675 250.87 200.67C250.133 201.725 249.253 202.672 248.254 203.484Z" fill="white"/>
<path d="M250.522 225.96C249.642 224.989 248.839 223.95 248.122 222.852C247.314 221.817 246.592 220.717 245.962 219.564C246.84 220.537 247.643 221.576 248.362 222.672C249.17 223.708 249.892 224.808 250.522 225.96Z" fill="white"/>
<path d="M237.088 215.148C235.638 213.59 234.35 211.889 233.242 210.072C233.999 210.821 234.684 211.638 235.288 212.514C235.971 213.333 236.574 214.215 237.088 215.148Z" fill="white"/>
<path d="M237.13 228.685C236.146 229.24 235.114 229.706 234.046 230.077C233.014 230.541 231.941 230.911 230.842 231.181C231.826 230.625 232.859 230.159 233.926 229.789C234.958 229.324 236.031 228.954 237.13 228.685Z" fill="white"/>
<path d="M234.004 245.016C233.321 244.14 232.719 243.204 232.204 242.22C231.606 241.283 231.095 240.293 230.68 239.262C231.962 241.073 233.073 242.999 233.998 245.016H234.004Z" fill="white"/>
<path d="M248.758 253.057C247.514 254.798 246.108 256.417 244.558 257.893C245.137 256.989 245.805 256.145 246.55 255.373C247.207 254.529 247.947 253.753 248.758 253.057Z" fill="white"/>
<path d="M302.584 122.119L306.784 131.779L286.828 121.267L280.6 129.955C280.6 129.955 303.334 147.601 311.62 149.533C318.574 151.135 323.77 146.755 324.136 140.605C324.46 135.205 316.534 114.265 316.534 114.265L302.584 122.119Z" fill="#936760"/>
<path d="M313.414 135.648C313.354 135.72 311.89 134.55 309.916 133.362C307.942 132.174 306.226 131.418 306.268 131.328C306.673 131.406 307.065 131.541 307.432 131.73C308.345 132.122 309.229 132.577 310.078 133.092C310.929 133.607 311.745 134.178 312.52 134.802C312.859 135.037 313.16 135.323 313.414 135.648Z" fill="#6F4C47"/>
<path d="M286.306 120.498C286.475 119.062 286.328 117.605 285.874 116.232C285.118 113.832 282.274 110.628 282.61 109.032C282.946 107.436 281.002 107.64 280.3 109.494C279.85 110.694 280.336 114.786 280.336 114.786C280.336 114.786 277.384 113.868 276.274 111.84C275.164 109.812 270.274 104.406 269.122 104.85C267.826 105.354 269.194 106.65 269.638 107.412C269.968 108.012 272.74 112.41 272.74 112.41C272.74 112.41 265 107.298 263.8 107.07C262.468 106.818 262.996 108.45 263.482 108.774C263.788 108.978 262.24 109.188 262.654 110.664C262.936 111.672 265.744 114.354 266.626 114.912L268.426 116.058L262.492 113.244C262.492 113.244 260.986 113.538 262.048 114.816C262.522 115.386 277.948 128.136 279.214 129.018C281.404 130.53 284.614 132.576 284.614 132.576L290.404 123.198L286.306 120.498Z" fill="#936760"/>
<path d="M101.572 144C102.017 143.513 102.326 142.918 102.469 142.274C102.611 141.63 102.582 140.96 102.384 140.331C102.186 139.702 101.826 139.136 101.34 138.69C100.854 138.244 100.26 137.934 99.616 137.79L106.396 133.23L101.332 125.706C101.447 126.549 101.273 127.407 100.838 128.139C100.403 128.871 99.7328 129.434 98.9369 129.736C98.1411 130.039 97.2663 130.063 96.455 129.804C95.6438 129.546 94.9439 129.021 94.4695 128.314C93.9952 127.607 93.7742 126.76 93.8426 125.911C93.911 125.063 94.2648 124.262 94.8464 123.64C95.4279 123.018 96.2029 122.612 97.045 122.487C97.8872 122.362 98.7469 122.526 99.484 122.952L93.808 114.552L75.1 127.152L87.7 145.86L95.068 140.904C94.9507 141.701 95.0922 142.515 95.4717 143.226C95.8512 143.937 96.4487 144.508 97.1764 144.854C97.9041 145.201 98.7237 145.305 99.5149 145.151C100.306 144.997 101.027 144.594 101.572 144Z" fill="#E0E0E0"/>
<path d="M101.572 143.999C101.432 144.165 101.275 144.316 101.104 144.449C100.611 144.851 100.021 145.118 99.394 145.223C98.8856 145.313 98.3643 145.298 97.8619 145.179C97.3595 145.061 96.8866 144.841 96.472 144.533C95.9058 144.118 95.4659 143.554 95.2011 142.903C94.9363 142.253 94.857 141.542 94.972 140.849L95.104 140.933L87.754 145.913L87.592 145.877L74.98 127.199L75.022 126.989L90.352 116.669C91.486 115.907 92.608 115.145 93.724 114.401L93.94 114.443L99.61 122.873L99.406 123.089C98.8434 122.763 98.203 122.595 97.5527 122.604C96.9024 122.612 96.2666 122.797 95.7127 123.138C95.1589 123.479 94.7078 123.963 94.4073 124.54C94.1067 125.117 93.9681 125.764 94.006 126.413C94.045 127.245 94.3741 128.037 94.936 128.651C95.3264 129.095 95.8199 129.436 96.3731 129.643C96.9263 129.851 97.5221 129.919 98.108 129.842C98.6938 129.765 99.2517 129.545 99.7323 129.201C100.213 128.858 100.602 128.401 100.864 127.871C101.196 127.21 101.321 126.463 101.224 125.729L101.458 125.639C103.294 128.387 104.986 130.913 106.504 133.175L106.474 133.325L99.676 137.861V137.723C100.237 137.852 100.762 138.107 101.211 138.467C101.66 138.828 102.021 139.285 102.268 139.805C102.563 140.411 102.689 141.086 102.633 141.757C102.577 142.429 102.341 143.073 101.95 143.621C101.853 143.761 101.74 143.89 101.614 144.005C101.614 144.005 101.728 143.873 101.914 143.597C102.192 143.181 102.386 142.714 102.484 142.223C102.672 141.271 102.479 140.282 101.948 139.469C101.416 138.657 100.588 138.084 99.64 137.873V137.735L106.402 133.151L106.372 133.295L101.296 125.783L101.524 125.693C101.633 126.48 101.501 127.281 101.146 127.991C100.779 128.727 100.186 129.327 99.454 129.701C98.6987 130.091 97.8373 130.223 97 130.079C96.1375 129.937 95.351 129.5 94.774 128.843C94.3147 128.338 93.9956 127.722 93.8484 127.055C93.7011 126.389 93.7309 125.695 93.9347 125.043C94.1386 124.392 94.5094 123.805 95.0103 123.341C95.5112 122.877 96.1247 122.553 96.79 122.399C97.7345 122.202 98.7185 122.358 99.556 122.837L99.358 123.053L93.682 114.653L93.898 114.695L90.526 116.963L75.184 127.271L75.226 127.067L87.784 145.799H87.628L95.008 140.867L95.14 140.951C95.0229 141.686 95.1288 142.439 95.4439 143.113C95.759 143.787 96.2689 144.35 96.9078 144.732C97.5466 145.113 98.2851 145.294 99.0277 145.251C99.7704 145.208 100.483 144.943 101.074 144.491C101.41 144.179 101.56 143.999 101.572 143.999Z" fill="#263238"/>
<path d="M48.202 92.2913C47.3293 87.1062 44.5199 82.446 40.342 79.2533L40.768 79.0133C36.802 77.2133 31.576 79.1933 29.77 83.1473C29.026 84.7673 28.822 86.5733 28.39 88.3013C27.958 90.0293 27.19 91.8053 25.732 92.8073C24.946 93.3473 24.01 93.6173 23.2 94.1093C22.39 94.6013 21.646 95.4233 21.706 96.3713C21.778 97.5713 23.068 98.3513 24.256 98.6033C25.444 98.8553 26.746 98.8553 27.766 99.5093C27.3349 99.7876 26.9644 100.15 26.6768 100.575C26.3892 101 26.1904 101.478 26.0923 101.982C25.9942 102.486 25.9988 103.004 26.1059 103.506C26.213 104.008 26.4203 104.483 26.7155 104.902C27.0107 105.322 27.3876 105.678 27.8236 105.948C28.2596 106.219 28.7458 106.398 29.2529 106.476C29.7601 106.554 30.2778 106.529 30.7749 106.402C31.272 106.275 31.7384 106.049 32.146 105.737C31.264 107.681 32.254 110.153 34.066 111.281C35.0024 111.803 36.0517 112.089 37.1232 112.114C38.1948 112.139 39.2563 111.903 40.216 111.425C42.1316 110.45 43.7484 108.977 44.896 107.159C47.8453 102.803 49.0272 97.4873 48.202 92.2913Z" fill="#263238"/>
<path d="M76.258 83.8678C76.1381 82.4038 74.8661 81.2458 73.4681 80.7898C72.0438 80.4254 70.5622 80.3418 69.106 80.5438C69.7601 78.7018 70.432 76.7938 70.306 74.8438C70.18 72.8938 69.1061 70.8538 67.2341 70.2538C65.6321 69.7378 63.8801 70.3738 62.4341 71.2378C60.9881 72.1018 59.6441 73.1938 58.0421 73.7158C53.8781 75.0778 49.4561 72.1978 45.088 72.5158C40.6 72.8518 36.292 77.4238 36.388 81.9238C43.2221 85.5238 50.1281 89.1598 56.0021 94.1758C59.1821 96.8878 62.548 100.176 66.724 100.032C68.0297 99.9828 69.2978 99.5817 70.3943 98.8711C71.4907 98.1604 72.3746 97.1666 72.9525 95.9948C73.5304 94.823 73.7809 93.5167 73.6773 92.2143C73.5737 90.9118 73.1199 89.6615 72.3641 88.5958C74.2721 87.5638 76.444 86.0278 76.258 83.8678Z" fill="#263238"/>
<path d="M67.918 92.9994C68.176 87.1674 62.56 80.7054 56.716 80.6934L37.6 82.1994L37.33 85.3254L34.33 124.049C34.33 124.049 34.594 136.649 45.172 137.099C54.682 137.477 55.24 127.451 55.24 127.451L55.738 120.137C55.738 120.137 63.394 120.653 65.974 111.137C67.246 106.451 67.6 99.4614 67.918 92.9994Z" fill="#FFBE9D"/>
<path d="M64.468 101.31C64.4375 101.633 64.2816 101.931 64.0338 102.141C63.786 102.351 63.4659 102.455 63.142 102.432C62.9834 102.426 62.8273 102.389 62.683 102.323C62.5387 102.257 62.4089 102.163 62.3012 102.046C62.1935 101.93 62.11 101.793 62.0555 101.644C62.0011 101.495 61.9768 101.336 61.984 101.178C62.016 100.855 62.1723 100.557 62.4198 100.348C62.6673 100.139 62.9866 100.034 63.31 100.056C63.4687 100.061 63.6247 100.098 63.7691 100.164C63.9134 100.23 64.0432 100.324 64.1509 100.441C64.2586 100.557 64.3421 100.694 64.3965 100.843C64.451 100.993 64.4753 101.151 64.468 101.31Z" fill="#263238"/>
<path d="M65.6561 97.9315C65.4881 98.0755 64.6241 97.2835 63.2921 97.1395C61.9601 96.9955 60.8921 97.5595 60.7781 97.3855C60.6641 97.2115 60.9041 97.0315 61.3781 96.7855C61.9962 96.4453 62.7053 96.3069 63.4061 96.3895C64.0936 96.4587 64.7421 96.7421 65.2601 97.1995C65.6321 97.5595 65.7401 97.8715 65.6561 97.9315Z" fill="#263238"/>
<path d="M53.2 100.122C53.1694 100.445 53.0136 100.743 52.7657 100.953C52.5179 101.163 52.1978 101.267 51.874 101.244C51.7153 101.238 51.5593 101.201 51.4149 101.135C51.2706 101.069 51.1408 100.975 51.0331 100.858C50.9254 100.742 50.8419 100.605 50.7875 100.456C50.733 100.307 50.7087 100.148 50.716 99.9895C50.748 99.6658 50.9051 99.3673 51.1539 99.1578C51.4027 98.9482 51.7235 98.844 52.048 98.8675C52.2061 98.8737 52.3615 98.9111 52.5051 98.9775C52.6488 99.044 52.7779 99.1382 52.8849 99.2548C52.992 99.3713 53.075 99.5079 53.129 99.6567C53.1831 99.8054 53.2072 99.9634 53.2 100.122Z" fill="#263238"/>
<path d="M53.368 96.8163C53.2 96.9603 52.336 96.1683 51.004 96.0243C49.672 95.8803 48.604 96.4443 48.49 96.2703C48.43 96.1863 48.616 95.9163 49.09 95.6703C49.7082 95.3301 50.4173 95.1916 51.118 95.2743C51.8126 95.3478 52.466 95.6398 52.984 96.1083C53.344 96.4443 53.452 96.7563 53.368 96.8163Z" fill="#263238"/>
<path d="M56.332 106.932C57.0619 106.816 57.8021 106.778 58.54 106.818C58.882 106.818 59.212 106.818 59.29 106.608C59.368 106.398 59.29 106.086 59.164 105.732C58.924 105 58.672 104.238 58.414 103.434C58.156 102.63 56.788 97.9021 56.818 97.4701C56.968 97.4341 57.934 100.056 58.972 103.32C59.218 104.124 59.458 104.892 59.68 105.63C59.7658 105.808 59.8143 106.001 59.8225 106.198C59.8308 106.395 59.7986 106.592 59.728 106.776C59.6587 106.875 59.5696 106.959 59.4663 107.022C59.3631 107.085 59.2479 107.126 59.128 107.142C58.9286 107.164 58.7274 107.164 58.528 107.142C57.7906 107.152 57.0542 107.082 56.332 106.932Z" fill="#263238"/>
<path d="M55.786 120.216C51.2301 119.794 46.8807 118.116 43.222 115.368C43.222 115.368 45.802 122.466 55.564 122.61L55.786 120.216Z" fill="#EB996E"/>
<path d="M52.324 106.62C52.54 106.62 52.39 108.078 53.524 109.236C54.658 110.394 56.2 110.4 56.2 110.61C56.2 110.7 55.828 110.856 55.174 110.802C54.3258 110.724 53.5329 110.347 52.936 109.74C52.3609 109.155 52.0341 108.37 52.024 107.55C52 106.944 52.228 106.602 52.324 106.62Z" fill="#263238"/>
<path d="M53.41 92.3222C53.212 92.7182 52.096 92.2862 50.698 92.2322C49.3 92.1782 48.1 92.4482 47.998 92.0402C47.95 91.8422 48.22 91.4882 48.748 91.1702C49.3933 90.7963 50.1331 90.617 50.878 90.6542C51.6017 90.6864 52.2976 90.9422 52.87 91.3862C53.314 91.7582 53.494 92.1362 53.41 92.3222Z" fill="#263238"/>
<path d="M66.196 93.3594C65.938 93.7074 64.996 93.2994 63.796 93.2454C62.596 93.1914 61.636 93.4134 61.396 93.0294C61.306 92.8434 61.474 92.4834 61.918 92.1594C62.4898 91.764 63.1812 91.5795 63.874 91.6374C64.5855 91.6578 65.2672 91.9275 65.8 92.3994C66.19 92.8074 66.31 93.1854 66.196 93.3594Z" fill="#263238"/>
<path d="M67.672 87.4138C66.292 83.9218 63.226 81.2578 59.746 79.8418C56.266 78.4258 52.402 78.1798 48.664 78.5518C44.9374 79.025 41.2553 79.7995 37.654 80.8678C36.778 81.1018 35.812 81.3958 35.326 82.1638C35.0371 82.7188 34.8946 83.3383 34.912 83.9638C34.6 89.1638 34.286 94.3638 33.97 99.5638L34.996 102.9C36.67 103.11 38.23 102.048 39.466 100.908C43.8225 96.8521 46.4556 91.2786 46.822 85.3378C47.165 86.0798 47.3878 86.8717 47.482 87.6838C47.5316 88.091 47.6779 88.4804 47.9085 88.8196C48.1392 89.1588 48.4476 89.4379 48.808 89.6338C50.074 90.1378 51.346 88.7818 51.706 87.4618C52.066 86.1418 52.006 84.6598 52.798 83.5498C53.9157 85.625 55.4891 87.4199 57.4 88.7998C58.3 89.4538 59.524 89.9998 60.466 89.3998C60.7812 89.1663 61.0247 88.8492 61.1689 88.4844C61.3131 88.1196 61.3523 87.7217 61.282 87.3358C61.1246 86.5747 60.8254 85.8501 60.4 85.1998C61.7963 87.1293 63.7251 88.6097 65.95 89.4598C66.1805 89.5799 66.4353 89.6462 66.6951 89.6534C66.955 89.6607 67.2131 89.6089 67.45 89.5018C68.086 89.0758 67.954 88.1158 67.672 87.4138Z" fill="#263238"/>
<path d="M38.2 96.4322C38.062 96.3542 32.446 94.0802 32.038 99.9962C31.63 105.912 37.66 105.108 37.684 104.94C37.708 104.772 38.2 96.4322 38.2 96.4322Z" fill="#FFBE9D"/>
<path d="M35.9981 102.6C35.9981 102.6 35.8901 102.666 35.7101 102.732C35.4593 102.821 35.1834 102.808 34.9421 102.696C34.3421 102.426 33.8741 101.394 33.9161 100.296C33.9363 99.787 34.0695 99.289 34.306 98.8379C34.3745 98.6574 34.4855 98.496 34.6297 98.3675C34.7738 98.2391 34.9468 98.1473 35.1341 98.0999C35.2562 98.0743 35.3835 98.0928 35.4934 98.1521C35.6032 98.2114 35.6885 98.3077 35.7341 98.4239C35.8001 98.5919 35.7341 98.7119 35.7821 98.7239C35.8301 98.7359 35.92 98.6339 35.89 98.3819C35.8653 98.2339 35.7913 98.0986 35.6801 97.9979C35.5264 97.8633 35.326 97.7944 35.122 97.8059C34.8755 97.8376 34.6412 97.932 34.4416 98.0801C34.242 98.2282 34.0838 98.4251 33.9821 98.6519C33.6921 99.1464 33.5292 99.7051 33.508 100.278C33.466 101.478 34 102.63 34.84 102.936C34.9957 102.993 35.1622 103.015 35.3273 102.999C35.4924 102.984 35.6519 102.931 35.7941 102.846C35.9801 102.714 36.0221 102.6 35.9981 102.6Z" fill="#EB996E"/>
<path d="M45.682 84.4615C45.6457 84.5802 45.5932 84.6932 45.526 84.7975C45.412 85.0075 45.238 85.3195 44.992 85.7035C44.2974 86.7964 43.4933 87.8157 42.592 88.7455C41.9692 89.3896 41.3037 89.9909 40.6 90.5455C40.21 90.8395 39.82 91.1455 39.4 91.4215C38.948 91.7476 38.4091 91.9314 37.852 91.9495C37.5513 91.9345 37.2591 91.8442 37.0023 91.6869C36.7455 91.5297 36.5322 91.3105 36.382 91.0495C36.0751 90.5223 35.9233 89.9192 35.944 89.3095C36.004 88.0615 36.658 86.9755 36.904 85.7875C36.9378 85.637 36.9638 85.4848 36.982 85.3315L37.246 85.4575L34.576 87.8215L33.31 88.9435C32.9097 89.3433 32.4141 89.6344 31.87 89.7895C31.5765 89.8454 31.2727 89.7898 31.018 89.6335C30.785 89.473 30.6069 89.2447 30.508 88.9795C30.3364 88.5075 30.2669 88.0044 30.304 87.5035C30.3557 85.3403 31.0721 83.2454 32.356 81.5035C32.5611 81.2312 32.7814 80.9708 33.016 80.7235C33.0935 80.633 33.1799 80.5506 33.274 80.4775C33.274 80.4775 32.956 80.8555 32.452 81.5755C31.7462 82.5993 31.2244 83.7384 30.91 84.9415C30.6888 85.7697 30.5719 86.6223 30.562 87.4795C30.5292 87.944 30.5946 88.4101 30.754 88.8475C30.8311 89.0573 30.9803 89.2327 31.1748 89.3426C31.3693 89.4525 31.5966 89.4897 31.816 89.4475C32.311 89.3 32.7594 89.0272 33.118 88.6555L34.378 87.5335C35.236 86.7715 36.118 85.9795 37.03 85.1755L37.342 84.8995L37.294 85.3015C37.294 85.4575 37.246 85.6255 37.21 85.7935C36.94 87.0415 36.298 88.1275 36.25 89.2615C36.2316 89.8108 36.3645 90.3546 36.634 90.8335C36.7539 91.0517 36.9265 91.2363 37.1361 91.3705C37.3458 91.5047 37.5857 91.5841 37.834 91.6015C38.3338 91.5847 38.8176 91.422 39.226 91.1335C39.652 90.8635 40.054 90.5635 40.426 90.2815C41.1274 89.7414 41.7947 89.1582 42.424 88.5355C43.3341 87.6286 44.1596 86.6405 44.89 85.5835C45.148 85.2115 45.34 84.9115 45.49 84.7135C45.5496 84.6263 45.6137 84.5422 45.682 84.4615Z" fill="#455A64"/>
<path d="M23.6801 192.252C23.6801 192.252 25.666 201.18 28.858 202.062C30.874 202.62 59.3801 206.412 59.3801 206.412L67.1381 212.85L93.2381 198.03L75.6941 187.26L62.0801 179.346L38.5481 180.33L23.6801 192.252Z" fill="#263238"/>
<path d="M56.3079 124.104C51.6879 125.736 42.2079 122.64 34.9959 118.974C34.5699 119.118 22.8999 122.352 20.7819 137.616C18.6639 152.88 21.1419 189.498 21.1419 189.498L22.2459 194.466C22.2459 194.466 39.8319 184.47 47.0379 182.916C54.2439 181.362 62.0799 179.346 62.0799 179.346L56.3079 124.104Z" fill="white"/>
<g opacity="0.3">
<path d="M26.4041 145.2C26.4041 145.2 29.4821 160.854 34.1741 164.904C38.8661 168.954 43.3901 169.338 47.0621 168.246C50.7341 167.154 59.9861 161.4 59.9861 161.4L59.6801 157.644C59.6801 157.644 38.5781 152.244 38.5481 152.07C38.5181 151.896 26.4041 145.2 26.4041 145.2Z" fill="black"/>
</g>
<path d="M36.772 157.835C36.772 157.835 39.736 166.037 47.524 164.213C55.312 162.389 79.768 148.883 79.768 148.883L74.902 140.483L50.542 148.025L36.772 157.835Z" fill="#FFBE9D"/>
<path d="M71.686 141.642L76.558 135.684C76.558 135.684 84.22 130.818 85.804 130.938C87.388 131.058 89.452 131.424 88.6 133.734C88.6 133.734 91.036 134.934 90.55 136.29C90.064 137.646 88.36 138 88.36 138C88.36 138 91.042 138.366 90.61 140.07C90.178 141.774 89.212 141.648 89.212 141.648C89.212 141.648 89.938 142.626 89.332 143.112C88.3583 143.678 87.3411 144.165 86.29 144.57C86.29 144.57 83.356 147.492 81.172 148.584C79.7093 149.283 78.1564 149.776 76.558 150.048L71.686 141.642Z" fill="#FFBE9D"/>
<path d="M42.268 125.928C40.4015 124.569 38.0827 123.983 35.7947 124.291C33.5067 124.6 31.426 125.779 29.986 127.584C29.0551 128.731 28.2617 129.984 27.622 131.316C25.942 134.886 25.042 143.01 25.042 143.01L34.912 159.264L53.902 145.746L45.544 128.58C45.544 128.58 44.134 127.29 42.268 125.928Z" fill="white"/>
<path d="M30.4 124.2C30.4791 124.164 30.5615 124.136 30.646 124.116L31.378 123.9C31.546 123.858 31.72 123.792 31.924 123.756L32.596 123.66C32.8627 123.625 33.1311 123.605 33.4 123.6H34.3C35.8434 123.65 37.3578 124.033 38.74 124.722C39.5958 125.143 40.4009 125.66 41.14 126.264C41.9763 126.933 42.7314 127.699 43.39 128.544L53.872 145.692L53.944 145.812L53.83 145.896L50.698 148.122L34.84 159.372L34.72 159.456L34.648 159.336C31.714 154.458 29.248 150.39 27.538 147.522C26.692 146.106 26.032 144.984 25.564 144.204L25.054 143.322C24.9897 143.223 24.9354 143.119 24.892 143.01C24.9632 143.102 25.0293 143.198 25.09 143.298C25.222 143.508 25.402 143.796 25.636 144.156L27.67 147.438L34.87 159.192L34.678 159.156L50.524 147.846L53.656 145.62L53.608 145.83C49.684 139.35 46.096 133.434 43.192 128.646C41.9756 127.064 40.4246 125.771 38.65 124.86C37.2937 124.171 35.8073 123.776 34.288 123.702H33.4C33.1385 123.711 32.878 123.737 32.62 123.78L31.954 123.858C31.75 123.858 31.57 123.948 31.408 123.984L30.67 124.164L30.4 124.2Z" fill="#263238"/>
<path d="M89.962 199.89C89.962 199.89 94.2939 207.192 92.1399 212.304C89.9859 217.416 61.06 244.704 61.06 244.704L51.0699 236.52L70.4799 210.822L89.962 199.89Z" fill="#FFBE9D"/>
<path d="M62.3499 243.42L61.7499 244.068C61.7499 244.068 68.6079 258.522 66.8139 260.7L45.2679 240.6L52.2579 233.7C54.0759 238.158 57.2739 241.458 62.3499 243.42Z" fill="white"/>
<path d="M45.2679 240.599L46.9479 238.938L66.9999 258.815C66.9999 258.815 67.5699 260.123 66.8319 260.699L45.2679 240.599Z" fill="#E0E0E0"/>
<path d="M59.2 246.492C59.2 246.492 59.2659 246.27 59.5239 246.018C59.8648 245.702 60.2762 245.472 60.7239 245.346C61.1759 245.222 61.6505 245.206 62.11 245.298C62.458 245.382 62.644 245.502 62.632 245.538C62.0295 245.5 61.4247 245.538 60.832 245.652C60.2535 245.859 59.7047 246.142 59.2 246.492Z" fill="#263238"/>
<path d="M58.282 245.19C58.6977 244.687 59.2583 244.324 59.8874 244.151C60.5166 243.979 61.1837 244.004 61.798 244.224C61.1838 244.265 60.5727 244.343 59.968 244.458C59.3922 244.669 58.8292 244.913 58.282 245.19Z" fill="#263238"/>
<path d="M60.4 248.562C60.322 248.562 60.628 247.818 61.414 247.326C61.6324 247.158 61.8832 247.037 62.1507 246.971C62.4182 246.905 62.6965 246.895 62.968 246.942C62.968 247.038 62.284 247.14 61.582 247.596C60.88 248.052 60.454 248.616 60.4 248.562Z" fill="#263238"/>
<path d="M62.476 245.783C62.4687 245.408 62.5822 245.04 62.8 244.733C62.9986 244.387 63.2339 244.063 63.502 243.767C63.652 243.599 63.808 243.431 63.976 243.257C64.0659 243.161 64.1643 243.072 64.27 242.993C64.3408 242.942 64.4227 242.907 64.5091 242.893C64.5956 242.878 64.6842 242.884 64.768 242.909C64.8589 242.944 64.9359 243.007 64.987 243.089C65.038 243.172 65.0602 243.269 65.05 243.365C65.0421 243.512 64.9989 243.654 64.924 243.779C64.8143 243.993 64.6815 244.194 64.528 244.379C64.2694 244.692 63.9613 244.959 63.616 245.171C63.3131 245.39 62.9516 245.514 62.578 245.525C62.578 245.477 62.962 245.357 63.49 244.985C63.7962 244.764 64.069 244.499 64.3 244.199C64.4325 244.023 64.5509 243.836 64.654 243.641C64.756 243.449 64.768 243.227 64.654 243.215C64.54 243.203 64.354 243.305 64.186 243.485L63.706 243.971C63.4417 244.246 63.199 244.541 62.98 244.853C62.62 245.399 62.53 245.795 62.476 245.783Z" fill="#263238"/>
<path d="M62.686 245.855C62.686 245.855 62.62 245.855 62.5 245.825H62.41L62.5 245.765C62.8544 245.547 63.2443 245.393 63.652 245.309C63.9709 245.237 64.297 245.201 64.624 245.201C64.8065 245.2 64.9889 245.21 65.17 245.231C65.2824 245.239 65.3923 245.267 65.494 245.315C65.5576 245.346 65.6136 245.391 65.6582 245.446C65.7027 245.501 65.7348 245.565 65.752 245.633C65.7664 245.727 65.7495 245.822 65.7039 245.904C65.6583 245.987 65.5866 246.052 65.5 246.089C65.3836 246.142 65.2604 246.178 65.134 246.197C64.9142 246.238 64.6915 246.262 64.468 246.269C64.0893 246.278 63.7114 246.232 63.346 246.131C63.0027 246.067 62.6846 245.907 62.428 245.669C62.428 245.621 62.8 245.795 63.4 245.909C63.7474 245.979 64.1027 246.001 64.456 245.975C64.658 245.964 64.8586 245.936 65.056 245.891C65.284 245.891 65.47 245.759 65.428 245.699C65.428 245.519 64.906 245.519 64.606 245.501C64.2988 245.49 63.9911 245.51 63.688 245.561C63.2946 245.627 62.9073 245.726 62.53 245.855V245.765C62.644 245.801 62.692 245.843 62.686 245.855Z" fill="#263238"/>
<path d="M61.564 208.566L61.564 287.64H67.912V208.566H61.564Z" fill="#455A64"/>
<path d="M64.252 245.166H10.366V250.416H64.252V245.166Z" fill="#455A64"/>
<path d="M12.5739 125.406H5.79395V287.646H12.5739V125.406Z" fill="#455A64"/>
<path d="M71.146 202.806H5.79395V214.224H71.146V202.806Z" fill="#455A64"/>
<path d="M71.146 214.2C71.146 214.284 56.554 214.356 38.56 214.356C20.566 214.356 5.974 214.284 5.974 214.2C5.974 214.116 20.56 214.044 38.56 214.044C56.56 214.044 71.146 214.14 71.146 214.2Z" fill="#263238"/>
<path d="M37.66 202.8C37.66 202.884 30.46 202.956 21.64 202.956C12.82 202.956 5.62 202.884 5.62 202.8C5.62 202.716 12.82 202.644 21.64 202.644C30.46 202.644 37.66 202.722 37.66 202.8Z" fill="#263238"/>
<path d="M12.574 216.12C12.664 216.12 12.73 230.652 12.73 248.568C12.73 266.484 12.664 281.016 12.574 281.016C12.484 281.016 12.418 266.49 12.418 248.568C12.418 230.646 12.49 216.12 12.574 216.12Z" fill="#263238"/>
</svg>
